<svg width="89" height="20" viewBox="0 0 89 20" fill="none" xmlns="http://www.w3.org/2000/svg">
<path d="M7.25859 16.3285C5.81519 16.3285 4.52996 16.0773 3.4227 15.5749C1.18839 14.57 -0.0572921 12.7343 0.00202593 10.4348H4.52996C4.47065 11.8068 5.53837 12.6957 7.25859 12.6957C8.62291 12.6957 9.43358 12.3285 9.43358 11.6522C9.43358 11.3043 9.17654 10.9952 8.64268 10.7053C8.08904 10.4155 7.1795 10.0676 5.89428 9.62319C4.76724 9.23672 3.81815 8.85024 3.04702 8.44444C1.48498 7.61353 0.694069 6.47343 0.694069 5.02415C0.694069 4.13527 0.970886 3.343 1.50475 2.66667C2.59224 1.27536 4.60906 0.502416 7.12018 0.502416C8.4845 0.502416 9.65108 0.7343 10.6595 1.19807C12.6961 2.1256 13.8033 3.78744 13.744 5.7971H9.21609C9.2754 4.79227 8.46472 4.13527 7.10041 4.13527C6.01291 4.13527 5.32087 4.52174 5.32087 5.0628C5.32087 5.27536 5.39996 5.44928 5.53837 5.58454C5.71632 5.73913 5.97337 5.8744 6.3095 6.00966C6.68518 6.18358 7.27836 6.39614 8.0495 6.64734L8.8404 6.9372C12.5774 8.27053 14.0604 9.62319 14.0604 11.6908C14.0604 12.6377 13.7836 13.4493 13.2497 14.1449C12.1424 15.5362 10.0465 16.3285 7.25859 16.3285Z" fill="#2F2C2B"/>
<path d="M14.5933 15.9614V4.88889H18.0931L18.3897 5.7971C19.3585 5.10145 20.4658 4.59903 21.3358 4.50242C21.6126 4.46377 21.8894 4.44444 22.1465 4.44444C24.5785 4.44444 26.0812 6.10628 26.0812 9.0628V15.9614H22.2849V9.77778C22.2849 8.28986 21.8697 7.5942 20.9799 7.5942C20.9008 7.5942 20.6833 7.63285 20.3076 7.69082C19.6551 7.86473 19.0026 8.21256 18.3897 8.69565V15.9614H14.5933Z" fill="#2F2C2B"/>
<path d="M31.5949 16.3478C30.7644 16.3478 29.9933 16.1353 29.2815 15.7101C27.759 14.8406 26.8692 12.9855 26.8692 10.5121C26.8692 9.29469 27.1065 8.21256 27.5613 7.24638C28.451 5.41063 30.1119 4.42512 32.1683 4.42512C32.5835 4.42512 32.9987 4.54106 33.2162 4.71498L34.798 7.78744H34.9365V4.88889H38.7328V15.9614H35.3121L35.0551 14.8019C34.284 15.8261 33.1174 16.3478 31.5949 16.3478ZM30.5865 10.2802C30.5865 12.1353 31.3576 13.2174 32.7021 13.2174C33.7896 13.2174 34.7585 12.3092 34.9365 11.2271V8.79227C34.2642 7.96135 33.5524 7.55556 32.801 7.55556C31.4367 7.55556 30.5865 8.59903 30.5865 10.2802Z" fill="#2F2C2B"/>
<path d="M39.7934 20V4.88889H43.2932L43.4909 5.52657C44.3807 4.83092 45.4879 4.42512 46.5952 4.42512C49.5809 4.42512 51.5779 6.51208 51.5779 10.2802C51.5779 11.5362 51.3407 12.6377 50.8859 13.5845C49.9566 15.343 48.3352 16.3285 46.4963 16.3285C46.2393 16.3285 45.9823 16.3092 45.7252 16.2705L43.7479 13.4879H43.5898V20H39.7934ZM43.5898 12.3865C44.1236 13.0048 44.7366 13.2754 45.6066 13.2754C46.9709 13.2754 47.8607 12.1932 47.8607 10.3382C47.8607 8.54106 47.1093 7.55556 45.8241 7.55556C44.9343 7.55556 44.1829 7.94203 43.5898 8.71498V12.3865Z" fill="#2F2C2B"/>
<path d="M56.0818 16.1739C55.2513 16.1739 54.5988 16.058 54.144 15.8261C53.2543 15.3816 52.8786 14.3768 52.8786 12.2899V0.309179H56.6749V12.4444C56.6749 13.2947 57.0309 13.5845 57.9997 13.5266V15.9614C57.5054 16.0773 57.0902 16.1353 56.7145 16.1546C56.6552 16.1739 56.4377 16.1739 56.0818 16.1739Z" fill="#2F2C2B"/>
<path d="M59.2942 15.9614V4.88889H63.0906V15.9614H59.2942ZM58.9581 2.00966C58.9581 0.850242 59.9072 0 61.1924 0C62.4776 0 63.4267 0.850242 63.4267 2.00966C63.4267 3.16908 62.4776 4.01932 61.1924 4.01932C59.9072 4.01932 58.9581 3.16908 58.9581 2.00966Z" fill="#2F2C2B"/>
<path d="M64.8012 15.9614V4.88889H68.301L68.5975 5.7971C69.5664 5.10145 70.6737 4.59903 71.5437 4.50242C71.8205 4.46377 72.0973 4.44444 72.3543 4.44444C74.7864 4.44444 76.2891 6.10628 76.2891 9.0628V15.9614H72.4928V9.77778C72.4928 8.28986 72.0775 7.5942 71.1878 7.5942C71.1087 7.5942 70.8912 7.63285 70.5155 7.69082C69.863 7.86473 69.2105 8.21256 68.5975 8.69565V15.9614H64.8012Z" fill="#2F2C2B"/>
<path d="M77.3144 15.9614V0.289856H81.1305V9.73913L84.4721 4.88889H88.9011L85.0652 10.029L89 15.9614H84.4918L81.1305 10.2415V15.9614H77.3144Z" fill="#2F2C2B"/>
</svg>
