<svg width="220" height="40" viewBox="0 0 220 40" fill="none" xmlns="http://www.w3.org/2000/svg">
<path d="M38.211 15.6597C36.9298 14.2794 35.2558 12.8579 33.6232 11.4157C34.4705 12.2398 34.7805 13.5171 34.7185 14.6914C34.6565 15.8863 34.2432 17.0194 33.8299 18.1319C34.5532 18.7706 35.3385 19.5123 35.3592 20.46C35.3798 21.4076 34.6772 22.1699 33.9952 22.8292C30.234 26.5787 26.4729 30.3283 22.7117 34.0778C22.0297 34.7577 21.2031 35.4993 20.2318 35.3963C19.5085 35.3139 18.9299 34.7783 18.4339 34.2632C16.45 32.2854 14.466 30.3077 12.4821 28.3299L5.78642 21.6549C5.3731 21.2222 5.00112 20.7484 4.83579 20.2127C4.73246 19.7595 4.7738 19.3062 4.93912 18.8736C5.16645 18.4204 5.51776 18.0495 5.88975 17.6787C7.02637 16.5456 8.16298 15.4125 9.2996 14.2794L17.7519 5.8532C18.1446 5.48237 18.5785 5.13214 19.0745 4.94672C19.1778 4.92612 19.2605 4.90552 19.3638 4.88491C19.5705 4.86431 19.7772 4.86431 19.9838 4.88491C19.9838 4.88491 19.9838 4.88491 20.0045 4.88491C20.1905 4.90552 20.3558 4.96732 20.5418 5.02913C20.8931 5.21455 21.2238 5.48237 21.5337 5.7708L27.1135 11.3333C27.5062 11.7247 27.9195 12.1368 28.3121 12.5282C28.7254 12.9403 28.9528 13.4965 28.9528 14.094C28.9528 14.6914 28.7254 15.2477 28.2915 15.6803L21.9884 21.9639L25.3569 25.322L31.66 19.0384C31.784 18.9148 31.908 18.7912 32.0113 18.647C32.0113 18.6264 32.0526 18.6058 32.0733 18.5852C32.1766 18.4616 32.3006 18.3174 32.4039 18.1731C32.4039 18.1731 32.4039 18.1525 32.4246 18.1319C32.6313 17.8229 32.8379 17.5139 32.9826 17.1843C33.0446 17.0812 33.0859 16.9576 33.1273 16.8546C33.1686 16.7516 33.2099 16.6486 33.2512 16.5456V16.5044C33.5199 15.7421 33.6852 14.9386 33.6852 14.094C33.6852 12.2604 32.9826 10.5298 31.6806 9.21132C31.1433 8.57266 30.5234 7.9958 29.8827 7.41895L26.0389 3.58699C25.5842 3.09255 25.1089 2.61871 24.6129 2.16546L24.5509 2.10366C24.0136 1.56801 23.435 1.15597 22.7944 0.826339C22.753 0.826339 22.7324 0.785135 22.691 0.785135C22.6497 0.764534 22.5877 0.743932 22.5464 0.72333C21.8437 0.352495 21.0791 0.105273 20.2731 0.0228649C19.5498 -0.0389408 18.8265 0.0228649 18.1239 0.228884C17.9999 0.249486 17.8966 0.29069 17.7726 0.311292C17.7519 0.311292 17.7312 0.311292 17.7106 0.311292C17.4419 0.393699 17.1733 0.476107 16.9046 0.579116C16.8633 0.579116 16.8426 0.599718 16.8013 0.62032C16.698 0.661524 16.6153 0.702728 16.512 0.743932C16.4706 0.743932 16.45 0.785135 16.4086 0.805737C15.768 1.13537 15.1894 1.54741 14.652 2.08306L14.4454 2.28907C13.7014 2.92773 13.0194 3.6076 12.3375 4.30806C10.5189 6.14163 8.72096 7.9752 6.90237 9.80877L2.02525 14.6708C1.85992 14.8356 1.69459 15.0211 1.54993 15.2065C1.5086 15.2477 1.46727 15.3095 1.42594 15.3507C1.40527 15.3713 1.36394 15.4125 1.34328 15.4331C1.05395 15.7421 0.867963 16.1748 0.661305 16.525C0.413316 16.9576 0.227324 17.4315 0.123995 17.9259C0.0413316 18.338 0 18.7706 0 19.2032C0 19.3269 0 19.4505 0 19.5947C0 19.7801 -1.92465e-08 19.9655 0.0206658 20.1509C0.0206658 20.1715 0.0206658 20.2127 0.0206658 20.2333C0.0206658 20.3982 0.0619973 20.5836 0.0826631 20.7484C0.0826631 20.7896 0.0826631 20.8102 0.0826631 20.8514C0.103329 21.0162 0.14466 21.2016 0.185992 21.3664C0.185992 21.387 0.185992 21.4076 0.185992 21.4282C0.227324 21.6137 0.289321 21.7785 0.351318 21.9433C0.413316 22.1081 0.475313 22.2935 0.557976 22.4583C0.557976 22.4583 0.557976 22.4995 0.578642 22.5201C0.661305 22.685 0.743968 22.8292 0.826631 22.994C0.826631 23.0146 0.847297 23.0352 0.867963 23.0558C0.950626 23.2206 1.05395 23.3648 1.15728 23.509C1.15728 23.509 1.15728 23.509 1.15728 23.5296C1.26061 23.6945 1.38461 23.8387 1.5086 23.9829C1.65326 24.1683 1.81859 24.3537 2.00458 24.5185L2.2319 24.7452C2.99654 25.6928 3.88517 26.5581 4.75313 27.4234C6.44772 29.0922 8.16298 30.7609 9.85758 32.4297C11.2629 33.81 12.6475 35.1697 14.0527 36.55C15.272 37.745 16.5326 38.9605 18.1239 39.5785C19.3638 40.0524 20.7484 40.1348 22.0297 39.7845C24.0963 39.2283 25.7289 37.6626 27.2582 36.138C30.11 33.3155 32.9619 30.4931 35.8138 27.6706C37.6324 25.8783 39.5543 23.8799 39.9263 21.3664C40.2363 19.3062 39.5543 17.0606 38.149 15.5361L38.211 15.6597ZM19.0332 4.96732C19.1158 4.94672 19.1778 4.92612 19.2605 4.92612C19.1778 4.92612 19.0952 4.94672 19.0125 4.98792L19.0332 4.96732ZM19.6325 4.88491C19.6325 4.88491 19.4465 4.88491 19.3432 4.90552C19.4465 4.90552 19.5292 4.88491 19.6325 4.88491C19.7358 4.88491 19.8185 4.88491 19.9218 4.90552C19.8185 4.90552 19.7358 4.88491 19.6325 4.88491ZM20.2731 4.96732C20.2731 4.96732 20.3971 5.00853 20.4385 5.02913C20.4385 5.02913 20.4798 5.02913 20.4798 5.04973C20.4178 5.02913 20.3351 4.98792 20.2525 4.96732H20.2731ZM19.9838 4.90552C19.9838 4.90552 20.1698 4.94672 20.2525 4.96732C20.1698 4.94672 20.0665 4.92612 19.9838 4.90552ZM22.815 0.908747C22.815 0.908747 22.753 0.867543 22.7117 0.867543C22.753 0.867543 22.7737 0.908747 22.815 0.908747ZM17.7932 0.373097C17.7932 0.373097 17.7519 0.373097 17.7312 0.373097C17.7519 0.373097 17.7726 0.373097 17.7932 0.373097ZM16.9253 0.682126C16.9253 0.682126 16.8633 0.702728 16.8219 0.72333C16.8633 0.72333 16.8839 0.702728 16.9253 0.682126ZM16.5533 0.846941C16.5533 0.846941 16.4913 0.888145 16.45 0.908747C16.4913 0.908747 16.512 0.867543 16.5533 0.846941Z" fill="#00A980"/>
<path d="M59.2725 32.657C56.4344 32.657 53.9072 32.1546 51.73 31.1498C47.3367 29.1401 44.8873 25.4686 45.004 20.8696H53.9072C53.7906 23.6135 55.8901 25.3913 59.2725 25.3913C61.9552 25.3913 63.5492 24.657 63.5492 23.3043C63.5492 22.6087 63.0438 21.9903 61.994 21.4106C60.9054 20.8309 59.117 20.1353 56.5899 19.2464C54.3738 18.4734 52.5076 17.7005 50.9913 16.8889C47.9199 15.2271 46.3647 12.9469 46.3647 10.0483C46.3647 8.27053 46.909 6.68599 47.9588 5.33333C50.0971 2.55073 54.0628 1.00483 59.0004 1.00483C61.683 1.00483 63.9769 1.4686 65.9597 2.39614C69.9642 4.25121 72.1414 7.57488 72.0248 11.5942H63.1215C63.2382 9.58454 61.6441 8.27053 58.9615 8.27053C56.8231 8.27053 55.4624 9.04348 55.4624 10.1256C55.4624 10.5507 55.6179 10.8986 55.8901 11.1691C56.24 11.4783 56.7454 11.7488 57.4063 12.0193C58.145 12.3672 59.3114 12.7923 60.8277 13.2947L62.3828 13.8744C69.7309 16.5411 72.6468 19.2464 72.6468 23.3816C72.6468 25.2754 72.1025 26.8986 71.0528 28.2899C68.8756 31.0725 64.7544 32.657 59.2725 32.657Z" fill="#00A980"/>
<path d="M73.6947 31.9227V9.77778H80.5763L81.1595 11.5942C83.0645 10.2029 85.2417 9.19807 86.9524 9.00483C87.4967 8.92754 88.041 8.88889 88.5464 8.88889C93.3285 8.88889 96.2833 12.2126 96.2833 18.1256V31.9227H88.8186V19.5556C88.8186 16.5797 88.0021 15.1884 86.2526 15.1884C86.0971 15.1884 85.6694 15.2657 84.9307 15.3816C83.6477 15.7295 82.3647 16.4251 81.1595 17.3913V31.9227H73.6947Z" fill="#00A980"/>
<path d="M107.125 32.6957C105.492 32.6957 103.976 32.2705 102.576 31.4203C99.5823 29.6812 97.8327 25.971 97.8327 21.0242C97.8327 18.5894 98.2993 16.4251 99.1935 14.4928C100.943 10.8213 104.209 8.85024 108.252 8.85024C109.069 8.85024 109.885 9.08213 110.313 9.42995L113.423 15.5749H113.695V9.77778H121.16V31.9227H114.434L113.929 29.6039C112.412 31.6522 110.118 32.6957 107.125 32.6957ZM105.142 20.5604C105.142 24.2705 106.658 26.4348 109.302 26.4348C111.44 26.4348 113.345 24.6184 113.695 22.4541V17.5845C112.373 15.9227 110.974 15.1111 109.496 15.1111C106.814 15.1111 105.142 17.1981 105.142 20.5604Z" fill="#00A980"/>
<path d="M123.245 40V9.77778H130.127L130.516 11.0531C132.265 9.66184 134.443 8.85024 136.62 8.85024C142.491 8.85024 146.417 13.0242 146.417 20.5604C146.417 23.0725 145.951 25.2754 145.057 27.1691C143.229 30.686 140.041 32.657 136.425 32.657C135.92 32.657 135.415 32.6184 134.909 32.5411L131.021 26.9758H130.71V40H123.245ZM130.71 24.7729C131.76 26.0097 132.965 26.5507 134.676 26.5507C137.359 26.5507 139.108 24.3865 139.108 20.6763C139.108 17.0821 137.631 15.1111 135.104 15.1111C133.354 15.1111 131.877 15.8841 130.71 17.43V24.7729Z" fill="#00A980"/>
<path d="M155.273 32.3478C153.64 32.3478 152.357 32.1159 151.463 31.6522C149.713 30.7633 148.975 28.7536 148.975 24.5797V0.618359H156.44V24.8889C156.44 26.5894 157.139 27.1691 159.044 27.0531V31.9227C158.072 32.1546 157.256 32.2705 156.517 32.3092C156.401 32.3478 155.973 32.3478 155.273 32.3478Z" fill="#00A980"/>
<path d="M161.59 31.9227V9.77778H169.054V31.9227H161.59ZM160.929 4.01932C160.929 1.70048 162.795 0 165.322 0C167.849 0 169.715 1.70048 169.715 4.01932C169.715 6.33817 167.849 8.03865 165.322 8.03865C162.795 8.03865 160.929 6.33817 160.929 4.01932Z" fill="#00A980"/>
<path d="M172.418 31.9227V9.77778H179.3L179.883 11.5942C181.788 10.2029 183.965 9.19807 185.676 9.00483C186.22 8.92754 186.764 8.88889 187.27 8.88889C192.052 8.88889 195.007 12.2126 195.007 18.1256V31.9227H187.542V19.5556C187.542 16.5797 186.725 15.1884 184.976 15.1884C184.82 15.1884 184.393 15.2657 183.654 15.3816C182.371 15.7295 181.088 16.4251 179.883 17.3913V31.9227H172.418Z" fill="#00A980"/>
<path d="M197.023 31.9227V0.579712H204.526V19.4783L211.097 9.77778H219.806L212.263 20.058L220 31.9227H211.136L204.526 20.4831V31.9227H197.023Z" fill="#00A980"/>
</svg>
