<svg width="166" height="162" viewBox="0 0 166 162" fill="none" xmlns="http://www.w3.org/2000/svg">
<g clip-path="url(#clip0_9_2112)">
<path d="M120.72 8.73659C130.044 7.86336 138.333 14.5188 139.252 23.6156C140.17 32.7125 133.371 40.8188 124.052 41.7384C114.7 42.6612 106.357 35.9972 105.435 26.8677C104.513 17.7379 111.363 9.61297 120.72 8.73659ZM123.243 41.3203C132.297 40.8386 139.257 33.3187 138.83 24.4797C138.402 15.6407 130.748 8.79389 121.687 9.14659C112.533 9.50293 105.429 17.0676 105.861 25.9982C106.293 34.9287 114.096 41.8068 123.243 41.3203Z" fill="#060717"/>
<path d="M114.607 34.2896C117.415 36.2777 120.705 37.2445 124.176 36.6974C127.499 36.1814 130.472 34.3896 132.433 31.7213C134.224 29.2654 134.844 26.2038 134.304 23.2513C133.745 20.2234 131.977 17.5362 129.388 15.7807C128.667 15.2992 127.848 14.8315 127.021 14.5501C126.519 14.3794 125.962 14.2708 125.498 14.014C125.252 13.878 125.211 13.8357 125.133 13.5818C126.877 13.5007 129.887 15.3778 131.14 16.4903C133.455 18.545 134.872 21.7517 134.991 24.7803C135.118 28.0214 133.893 31.1744 131.594 33.5175C129.239 35.9183 125.991 37.2904 122.585 37.3234C120.009 37.3684 116.615 36.6033 114.648 34.8822C114.637 34.8726 114.627 34.8615 114.617 34.8512C114.577 34.734 114.548 34.6536 114.464 34.5576C114.397 34.4801 114.337 34.4078 114.276 34.3247L114.607 34.2896Z" fill="#060717"/>
<path d="M127.937 19.9247C128.089 19.9711 128.238 20.0312 128.368 20.123C129.587 20.9822 130.285 22.7335 130.459 24.1439C130.719 26.2584 130.088 28.3266 128.727 29.9854C127.222 31.8183 125.247 32.631 122.899 32.8874C122.718 32.8049 122.718 32.8428 122.633 32.6492C123.004 32.2358 123.848 32.3133 124.381 32.1868C126.229 31.7487 127.882 30.5163 128.872 28.9453C130.269 26.7289 130.541 24.1065 129.074 21.8578C128.738 21.3437 128.069 20.6439 127.957 20.0551C127.949 20.0119 127.944 19.9682 127.937 19.9247Z" fill="#060717"/>
<path d="M119.554 22.1927C119.573 22.2018 119.593 22.2105 119.612 22.2198C119.644 22.2353 119.675 22.2519 119.708 22.2673C120.669 22.728 121.517 23.7063 122.282 24.4275C122.86 23.8735 123.83 22.6079 124.623 22.4805L124.675 22.5914C124.274 23.4467 123.318 24.1882 122.64 24.8482C123.424 25.4623 124.087 26.1717 124.745 26.9102C124.717 26.9662 124.738 26.9339 124.657 26.9993C124.559 27.0789 124.473 27.0834 124.343 27.0513C123.673 26.8862 122.738 25.7136 122.324 25.1848C121.823 25.6683 120.716 26.9369 120.023 26.9828L119.992 26.848C120.386 26.0414 121.229 25.4258 121.888 24.8259C121.16 24.1532 119.687 23.1992 119.554 22.1927Z" fill="#060717"/>
<path d="M120.128 13.3884C120.384 13.3666 120.654 13.3104 120.897 13.4106L120.95 13.5639C120.605 13.9694 118.584 14.2605 117.976 14.4525C115.014 15.3874 112.701 17.8181 111.337 20.4618L111.246 20.6594C111.051 20.7401 111.063 20.748 110.868 20.6714L110.815 20.4878C111.045 19.7959 111.427 19.1465 111.844 18.5471C113.853 15.6608 116.654 14.0334 120.128 13.3884Z" fill="#060717"/>
<path d="M120.063 17.9496L120.352 18.0019L120.422 18.1071C120.041 18.6596 118.623 19.0355 118.002 19.39C116.022 20.5197 115.191 22.4167 114.631 24.4887L114.442 24.5691L114.317 24.478C114.17 23.7778 114.62 22.7064 114.934 22.0715C115.997 19.9258 117.814 18.7194 120.063 17.9496Z" fill="#060717"/>
<path d="M112.331 32.6946C110.747 31.1741 109.616 27.4672 109.568 25.35C109.561 25.0334 109.605 24.8502 109.833 24.6226L109.974 24.6208C110.082 24.7416 110.119 24.8392 110.147 24.9929C110.228 25.432 110.201 25.895 110.23 26.3407C110.271 26.9558 110.395 27.5867 110.55 28.1841C110.995 29.8933 111.84 31.577 113.056 32.8919C112.75 32.8836 112.595 32.848 112.331 32.6946Z" fill="#060717"/>
<path d="M114.825 28.1791C115.411 28.321 115.829 29.2155 116.185 29.6723C117.309 31.1119 119.756 31.8161 120.264 32.6134C119.586 32.5889 119.006 32.3733 118.412 32.0654C116.881 31.2709 115.334 29.829 114.825 28.1791Z" fill="#060717"/>
<path d="M112.331 32.6946C112.595 32.848 112.75 32.8836 113.056 32.8919C113.238 33.0749 113.447 33.2575 113.596 33.4655C113.641 33.593 113.686 33.7199 113.733 33.8463L113.61 34.0646C113.122 33.674 112.718 33.1784 112.331 32.6946Z" fill="#060717" fill-opacity="0.941176"/>
<path d="M123.584 17.8056C123.877 17.7961 124.281 17.7423 124.547 17.8686C124.789 17.9833 124.812 18.119 124.907 18.3402C124.621 18.3694 124.25 18.4444 123.984 18.3089C123.752 18.1904 123.681 18.0252 123.584 17.8056Z" fill="#060717"/>
<path d="M113.597 33.4655C113.932 33.7422 114.269 34.017 114.608 34.2896L114.277 34.3247C114.337 34.4078 114.398 34.4801 114.465 34.5576C114.548 34.6536 114.577 34.734 114.618 34.8512C114.269 34.6101 113.942 34.3277 113.61 34.0646L113.733 33.8463C113.686 33.7199 113.641 33.593 113.597 33.4655Z" fill="#060717" fill-opacity="0.964706"/>
<path d="M66.2323 12.6597C66.3102 12.6563 66.3884 12.6541 66.4663 12.653C66.9071 12.6481 67.2545 12.7242 67.5585 13.0533C68.0291 13.5631 70.3949 21.3093 70.2498 22.0314C70.1639 22.459 69.7552 22.6721 69.401 22.864C69.2861 22.8656 69.1724 22.8678 69.0577 22.8577C68.6378 22.8206 68.2268 22.6817 67.953 22.3544C67.3902 21.6817 65.2512 14.4621 65.3935 13.6559C65.4796 13.168 65.8434 12.9264 66.2323 12.6597Z" fill="#6156FE"/>
<path d="M30.237 47.5323C30.3449 47.5255 30.448 47.5214 30.5562 47.5255C31.6558 47.5676 38.5953 49.6758 39.2671 50.462C39.4633 50.6933 39.5495 50.995 39.5045 51.292C39.4278 51.8088 39.0741 52.1485 38.6633 52.4434C38.4726 52.4511 38.2833 52.4556 38.0935 52.4323C36.7488 52.2671 31.4465 50.5269 30.294 49.9386C30.0436 49.8107 29.8265 49.6623 29.6553 49.4401C29.4634 49.1912 29.3775 48.8859 29.4342 48.5774C29.5231 48.0937 29.8361 47.7957 30.237 47.5323Z" fill="#6156FE"/>
<path d="M50.5759 19.4685C50.8262 19.468 51.089 19.455 51.3209 19.5606C51.5121 19.6476 51.6443 19.7688 51.7742 19.9301C52.6544 21.0241 53.3466 22.4107 54.062 23.6126C54.7257 24.7273 55.5904 25.9308 56.0646 27.1339C56.1737 27.4111 56.1693 27.6791 56.0318 27.9479C55.8472 28.309 55.5082 28.4766 55.1389 28.6133C54.9402 28.6109 54.7497 28.59 54.5571 28.541C54.3328 28.484 54.1118 28.3698 53.9465 28.2094C53.2692 27.5522 51.2822 24.1114 50.6697 23.1225C50.2273 22.4081 49.3409 21.2796 49.5946 20.4215C49.7409 19.9265 50.1353 19.6942 50.5759 19.4685Z" fill="#6156FE"/>
<path d="M36.5074 31.8822C36.6698 31.8811 36.8363 31.8794 36.9973 31.9031C38.1001 32.0656 42.7823 36.2261 43.4956 37.2141C43.7099 37.5111 43.8205 37.7802 43.7277 38.1493C43.6191 38.5818 43.1711 38.8588 42.8044 39.0615C42.6734 39.0667 42.5422 39.0747 42.4116 39.0588C41.5117 38.9485 36.3526 34.6065 35.7505 33.7433C35.5668 33.4801 35.5064 33.1323 35.5863 32.8229C35.703 32.371 36.1357 32.1203 36.5074 31.8822Z" fill="#6156FE"/>
<path d="M64.0074 37.6498C65.6961 34.7784 68.1057 32.1937 71.4983 31.3146C75.6527 30.2383 80.4345 31.631 84.0404 33.7064C89.0465 36.5876 91.5284 40.6308 94.1943 45.4385C94.9643 46.827 95.9566 48.4242 96.3565 49.9582C96.3622 49.9802 96.3672 50.0023 96.3727 50.0245C99.162 50.9816 101.9 52.1415 104.657 53.1922C107.045 54.1108 109.437 55.0172 111.835 55.9112C112.871 56.2866 113.935 56.5927 114.967 56.972C115.698 56.5189 116.175 55.7212 116.865 55.2037C117.906 55.566 118.907 56.0631 119.91 56.5151C121.203 57.0974 122.519 57.6628 123.781 58.3064C137.102 64.4369 145.47 74.5069 150.397 87.9225C152.691 94.1715 154.028 100.787 155.111 107.328C156.519 115.538 157.323 123.836 157.518 132.158C156.92 132.217 156.321 132.269 155.722 132.314C155.716 134.207 155.747 136.108 155.693 138C155.472 145.826 154.771 153.663 153.957 161.448L153.916 162H85.0097L85.003 161.443C82.727 159.42 80.1222 157.696 77.6583 155.895C75.4391 154.273 73.313 152.557 71.0112 151.043L68.8479 157.311C68.3571 158.735 67.8904 160.215 67.2764 161.593L49.775 161.604L49.2769 161.775L49.2621 161.671C48.43 161.464 47.2959 161.586 46.4247 161.587L41.448 161.593L20.8502 161.608L20.2891 161.616C18.8885 161.549 17.4579 161.606 16.0533 161.606C13.0581 161.628 10.0628 161.604 7.06836 161.535C7.50802 160.125 8.17407 158.755 8.76047 157.398C9.52894 155.608 10.2871 153.814 11.0351 152.016C13.64 145.73 16.4152 139.512 19.3575 133.37C22.5512 126.654 25.9035 119.872 30.4085 113.883C36.0784 106.344 43.3575 101.025 53.5097 103.789C54.6093 104.088 55.8211 104.467 56.8407 104.976C57.6518 105.381 58.4508 105.998 59.3265 106.247C60.378 106.546 61.6042 106.489 62.6965 106.62C63.1602 106.675 65.1137 107.108 65.3315 107.075C65.4757 106.861 65.4346 106.721 65.432 106.468C65.3842 105.049 65.251 103.64 65.1792 102.223C65.0333 98.6841 64.8449 95.147 64.6142 91.6123C64.4529 89.0434 64.4354 86.4234 64.1154 83.8714C64.0434 83.2977 63.9337 82.7127 63.7057 82.1762C62.8902 80.2569 57.5448 75.3548 55.8533 73.5426C55.2589 72.906 54.5116 72.2071 54.1038 71.4403C53.903 71.0623 53.8594 70.6426 53.8542 70.2224C53.838 68.8658 54.5364 64.9517 55.0605 63.7035C55.1563 63.4752 55.3187 63.2998 55.4921 63.1248C55.2658 62.7089 54.2745 62.3276 53.8425 62.0734C52.4453 61.251 51.2384 60.1018 50.8409 58.5133C50.614 57.6084 50.5791 56.6677 50.7385 55.7492C51.0319 53.9786 51.9094 52.3531 52.4438 50.647C53.2158 48.1825 53.2625 45.759 54.6876 43.4787C56.1193 41.1876 58.5873 39.0692 61.3013 38.4133C61.8314 38.1478 62.5282 38.1271 63.1149 38.0561C63.3943 37.8927 63.7092 37.7768 64.0074 37.6498ZM76.2389 74.0394C77.0208 75.4676 78.0544 76.8617 78.636 78.3751C79.1501 79.7127 79.4104 81.1737 79.716 82.5687L80.9667 88.2609L85.4869 108.633C86.313 108.382 87.1481 108.147 87.9542 107.839C88.0761 106.03 89.1271 102.695 89.6269 100.812C90.6793 96.6912 91.8669 92.6044 93.1881 88.558C94.8089 83.5855 96.494 78.6393 99.7198 74.4118C100.402 73.5996 101.106 72.7976 101.763 71.9664C99.9181 70.3007 98.0429 69.0984 95.7476 68.1126C94.1103 70.8763 91.7653 74.1305 88.4511 75.0204C85.0659 75.9293 81.4669 74.1265 78.4827 72.7533C77.752 73.1954 76.9454 73.5694 76.2389 74.0394Z" fill="#060717"/>
<path d="M123.781 58.3064C137.102 64.4369 145.47 74.5069 150.397 87.9225C152.691 94.1715 154.028 100.787 155.111 107.328C156.519 115.538 157.323 123.836 157.518 132.158C156.919 132.217 156.321 132.269 155.721 132.314C152.606 132.438 149.491 132.672 146.373 132.724C139.489 132.836 132.603 132.585 125.746 131.973C123.423 131.784 120.908 131.819 118.651 131.217C116.444 130.628 114.513 129.148 112.389 128.294C113.28 126.091 114.744 124.039 115.843 121.923C119.836 114.279 123.589 106.517 127.097 98.6499C127.526 97.6926 129.216 94.4694 129.088 93.5639C129.069 93.4305 129.024 93.4324 128.924 93.3572C128.493 93.489 128.29 94.1475 128.136 94.5335C126.374 98.969 124.358 103.296 122.31 107.611C120.094 112.28 117.788 116.909 115.394 121.494C114.235 123.673 113.006 125.82 111.829 127.991C109.644 126.592 107.043 125.727 104.698 124.61L90.4042 117.647C90.0098 115.737 91.1238 113.277 91.611 111.387C93.6749 103.344 96.0301 95.375 98.6715 87.4944C99.1025 86.1867 100.994 81.7909 100.735 80.6595L100.612 80.5844C100.591 80.5983 100.57 80.6103 100.551 80.6263C99.7388 81.3156 98.5347 86.0067 98.1518 87.187C97.2352 89.9287 96.3365 92.6759 95.4552 95.4286C94.3137 99.194 93.2206 102.973 92.1762 106.765C91.3474 109.734 90.3306 112.705 89.8991 115.76C89.5896 114.92 89.465 113.974 89.273 113.1C88.8853 111.334 88.5045 109.566 87.9541 107.839C88.076 106.03 89.127 102.695 89.6267 100.812C90.6792 96.6912 91.8668 92.6044 93.188 88.558C94.8087 83.5855 96.4939 78.6393 99.7197 74.4118C99.9238 74.7858 100.184 75.1584 100.511 75.4401C100.961 75.8287 101.5 75.9952 102.097 75.9592C106.18 75.7127 119.918 62.6257 123.028 59.1797L123.781 58.3064Z" fill="#00A980"/>
<path d="M56.7188 64.0544C57.3208 62.9758 58.1289 61.7182 59.4197 61.3608C59.7757 61.2624 60.1519 61.2861 60.5165 61.3121C60.1636 61.6261 59.8214 61.9346 59.5411 62.3141C58.6662 63.4989 56.2532 67.7228 56.2071 69.0691C56.2024 69.2053 56.211 69.2879 56.2932 69.4024C56.4926 69.361 56.5662 69.2294 56.674 69.069C57.906 67.2377 58.9978 62.1949 61.3987 61.6238C62.492 61.3637 63.8981 62.348 64.8022 62.8786C63.8986 62.8903 62.7756 62.8383 62.0948 63.5317C61.2803 64.361 58.6227 69.2789 58.7065 70.3735C58.715 70.4853 58.7208 70.486 58.7531 70.576L58.8695 70.6168C59.3114 70.3214 59.5408 69.6084 59.7338 69.1357C60.3601 67.6015 61.3951 64.4768 62.9313 63.6923C63.6009 63.3502 64.3935 63.3952 65.1147 63.529C66.3388 63.7562 67.4154 64.2746 68.1137 65.3276C68.8868 66.4931 69.084 68.0794 69.3853 69.4168C67.8806 68.7274 66.3018 68.0731 64.9184 67.1689L65.3204 66.3085C65.7089 66.4521 66.3615 66.7794 66.7741 66.6462C66.7987 66.6383 66.8208 66.6241 66.8439 66.6128C66.842 66.4355 66.8133 66.4198 66.6901 66.2958C66.4014 66.0052 65.7012 65.6413 65.2725 65.6866C65.0413 65.7109 64.922 65.782 64.7934 65.9664C64.5117 66.3708 64.386 66.9906 64.2413 67.4553C69.7459 70.3588 72.3526 70.8952 74.3323 77.3612C74.9896 79.5085 75.4654 81.7173 75.9926 83.8981L78.2793 93.1698C79.2443 96.8719 80.1828 100.581 81.0947 104.296C81.5322 106.057 82.031 107.8 82.3774 109.583C80.6273 110.098 78.8864 110.644 77.1557 111.219C74.318 109.953 71.5359 108.867 68.5435 107.983C67.9082 107.795 66.2894 107.507 65.9301 107.022L65.8903 106.577L65.7758 106.786L65.6685 106.758C65.5907 106.597 65.61 106.532 65.4316 106.468C65.3838 105.049 65.2506 103.639 65.1788 102.223C65.0329 98.6841 64.8445 95.147 64.6138 91.6123C64.4525 89.0434 64.435 86.4234 64.115 83.8714C64.043 83.2977 63.9333 82.7127 63.7053 82.1762C62.8898 80.2569 57.5444 75.3548 55.8529 73.5426C55.2585 72.906 54.5111 72.2071 54.1034 71.4403C53.9026 71.0623 53.859 70.6426 53.8538 70.2224C53.8376 68.8658 54.536 64.9517 55.0601 63.7035C55.1559 63.4752 55.3183 63.2998 55.4917 63.1248C55.6814 63.3058 55.5963 63.4288 55.7587 63.616C55.9708 63.5583 55.9946 63.5081 56.2037 63.6L56.2318 63.8239C56.3905 63.8577 56.5484 63.8707 56.6755 63.9822C56.6967 64.0009 56.7043 64.0303 56.7188 64.0544Z" fill="#FEFEFE"/>
<path d="M65.4316 106.468C65.3838 105.049 65.2506 103.64 65.1788 102.223C65.0329 98.6841 64.8445 95.147 64.6138 91.6123C64.4525 89.0434 64.435 86.4234 64.115 83.8714C64.043 83.2977 63.9333 82.7127 63.7053 82.1762C62.8898 80.2569 57.5444 75.3548 55.8529 73.5426C55.2585 72.906 54.5111 72.2071 54.1034 71.4403C53.9026 71.0623 53.859 70.6426 53.8538 70.2224C53.8376 68.8658 54.536 64.9517 55.0601 63.7035C55.1559 63.4752 55.3183 63.2998 55.4917 63.1248C55.6814 63.3058 55.5963 63.4289 55.7587 63.616C55.9708 63.5583 55.9946 63.5081 56.2037 63.6L56.2318 63.8239C56.3905 63.8577 56.5484 63.8707 56.6755 63.9822C56.6967 64.0009 56.7043 64.0303 56.7188 64.0544C56.0116 65.4874 53.9264 69.3499 54.4267 70.8684C54.837 72.1136 56.722 73.6602 57.6827 74.6375C58.798 75.7923 59.9048 76.9547 61.0033 78.1248C61.9862 79.1544 63.1516 80.196 63.9072 81.3987C64.3363 82.0816 64.4885 82.7917 64.6065 83.5737C64.8534 85.2074 64.9069 86.8821 64.999 88.5297L65.3746 95.3652L65.7299 101.823C65.8175 103.403 65.9496 104.995 65.8903 106.577L65.7758 106.786L65.6685 106.758C65.5907 106.597 65.61 106.532 65.4316 106.468Z" fill="#060717"/>
<path d="M55.7587 63.616C55.9707 63.5583 55.9946 63.5081 56.2037 63.6L56.2317 63.8239C55.7512 64.5947 55.4241 65.5421 55.0059 66.3577C55.1694 65.3597 55.3388 64.5421 55.7587 63.616Z" fill="#FEFEFE"/>
<path d="M20.2891 161.616C21.2825 158.936 22.3903 156.289 23.4779 153.644C25.4578 148.829 27.5143 144.045 29.6467 139.292C34.1499 129.314 41.0334 112.08 51.5828 107.259C53.9229 106.19 55.9651 105.953 58.5038 106.324C57.0581 106.492 55.5842 106.614 54.1702 106.96C49.9465 107.994 46.5944 110.963 43.9624 114.23C38.4941 121.016 34.8768 129.005 31.3423 136.859C29.2328 141.529 27.1886 146.228 25.2104 150.952L20.8501 161.608L20.2891 161.616Z" fill="#FEFEFE"/>
<path d="M85.0029 161.443C87.5571 161.348 90.1441 161.437 92.7028 161.437L108.099 161.438L153.956 161.448L153.915 162H85.0096L85.0029 161.443Z" fill="#FEFEFE"/>
<path d="M65.07 130.593C66.3748 129.488 68.4208 128.059 70.2797 128.303C70.3862 128.317 70.4082 128.33 70.4958 128.365L70.578 128.508C70.1858 129.003 68.4748 129.046 67.8179 129.349C66.6679 129.879 65.5897 130.816 64.7851 131.765C63.6979 133.048 62.8906 134.538 62.1016 136.006C60.9208 138.204 59.8938 140.49 58.808 142.734L53.3393 154.029L51.0854 158.681C50.6502 159.575 49.9909 160.646 49.7746 161.604L49.2765 161.775L49.2617 161.671C49.3741 160.527 52.577 154.434 53.3357 152.854C55.2682 148.752 57.2375 144.666 59.2434 140.597C60.2548 138.546 61.2293 136.468 62.3483 134.469C63.1229 133.093 64.0346 131.795 65.07 130.593Z" fill="#FEFEFE"/>
<path d="M59.8645 120.339C61.0301 121.45 65.2568 128.693 65.2198 130.093C65.215 130.276 65.1456 130.429 65.0704 130.593C64.3319 129.736 63.9824 128.456 63.5191 127.44C63.0268 126.36 62.4925 125.282 61.8729 124.266C61.4326 123.544 59.7159 121.465 59.7345 120.721C59.7379 120.583 59.8049 120.46 59.8645 120.339Z" fill="#FEFEFE"/>
<path d="M63.1144 38.0561C63.3939 37.8927 63.7087 37.7768 64.007 37.6498C62.8901 40.2197 62.4363 42.7595 63.1741 45.5127C63.2748 45.8884 63.8151 47.3053 63.6724 47.572C63.639 47.6346 63.5787 47.6799 63.5319 47.7337C63.3253 47.6857 63.2662 47.5967 63.16 47.4252C61.9443 45.4609 62.1254 41.2766 62.7863 39.1246C62.8053 39.0629 62.827 39.002 62.8497 38.9415C62.9157 38.6425 63.0224 38.3486 63.1144 38.0561Z" fill="#FEFEFE"/>
<path d="M62.1543 60.9918C62.4133 60.2721 62.6565 59.5602 62.8131 58.8109C63.3131 56.4205 63.4875 53.0428 66.091 51.8482C67.4326 51.2327 68.9477 51.4624 70.2797 51.9576C74.0081 53.3434 75.4461 55.3798 79.7459 53.5135C81.3701 52.8084 82.7876 51.5065 83.4117 49.8623C84.0627 48.1469 83.7236 46.1061 85.7394 45.1621C86.7476 44.69 87.8734 44.6848 88.9109 45.0658C90.0891 45.4984 91.1051 46.4602 91.6173 47.5802C91.9956 48.4072 92.086 49.2838 92.079 50.18C92.1393 49.9468 92.177 49.7864 92.3509 49.6038L92.4983 49.6206L92.6015 49.8117L92.6688 49.3934C92.7108 49.3755 92.7494 49.3439 92.7949 49.3401C93.0452 49.3184 108.141 55.0414 109.525 55.575C111.23 56.2324 112.923 56.9019 114.667 57.457C112.533 59.8695 110.326 62.2216 108.212 64.65C106.206 66.9546 104.288 69.358 102.144 71.5442C100.19 70.0582 98.2833 68.6921 96.0353 67.6486C96.9054 65.3847 98.3815 61.837 97.6989 59.4415L97.5857 59.3436C97.3977 59.4744 97.3695 59.6004 97.3262 59.8204C97.109 60.9263 97.1646 62.0669 96.9334 63.1895C96.1579 66.9549 93.9065 71.0816 90.6753 73.3737C88.9448 74.6012 87.1879 74.9051 85.0933 74.5744C82.7714 74.2077 80.5341 73.3038 78.5463 72.0919C77.6674 72.6355 76.7881 73.2137 75.8153 73.586C74.9154 72.0968 74.0522 70.545 72.8803 69.2395C71.8731 68.1175 70.6633 67.1718 69.583 66.1182C69.0477 65.5963 68.6808 64.9275 68.1399 64.4108C66.7105 63.0454 64.0186 61.6553 62.1543 60.9918Z" fill="#FEFEFE"/>
<path d="M92.0792 50.18C92.1395 49.9468 92.1771 49.7864 92.351 49.6038L92.4984 49.6206L92.6017 49.8117C92.506 51.1408 92.2312 52.3009 91.1305 53.2039C90.9999 53.3111 90.8303 53.4338 90.6588 53.4592L90.5147 53.3354C90.5092 53.0015 91.6373 51.7035 91.8522 51.1961C91.9897 50.8713 92.0327 50.5255 92.0792 50.18Z" fill="#060717"/>
<path d="M86.1528 68.5195C86.4534 68.5024 86.9778 68.5233 87.2354 68.6983C87.4351 68.834 87.4489 68.8861 87.5022 69.1036C87.173 70.133 84.9373 72.2126 84.1046 73.1027C83.8283 73.0346 83.5265 72.9668 83.276 72.832C82.9571 72.6605 82.6965 72.3787 82.6151 72.0259C82.5141 71.5885 82.6997 71.1307 82.9317 70.7631C83.6537 69.6239 84.8143 68.8157 86.1528 68.5195Z" fill="#060717"/>
<path d="M86.2373 69.062C86.2611 69.0628 86.2851 69.062 86.3088 69.0645C86.5143 69.0859 86.6158 69.09 86.7515 69.246C86.5544 69.8664 84.397 71.9522 83.8391 72.6291C83.5912 72.4512 83.3663 72.3123 83.2501 72.018C83.1355 71.7277 83.2083 71.3828 83.3457 71.1137C83.8792 70.0691 85.1497 69.4026 86.2373 69.062Z" fill="#FEFEFE"/>
<path d="M73.9295 64.8565C73.9802 64.8576 74.0311 64.8577 74.0819 64.8598C74.6047 64.8805 75.1518 65.1797 75.4835 65.569C75.672 65.7905 75.7972 66.0721 75.7398 66.3649C75.6714 66.7141 75.4125 66.8717 75.1289 67.0477C74.9722 67.0587 74.8073 67.0648 74.6509 67.05C74.245 67.0112 73.7949 66.732 73.5518 66.4187C73.3675 66.1814 73.2681 65.8739 73.3299 65.5765C73.4028 65.2249 73.6437 65.0495 73.9295 64.8565Z" fill="#060717"/>
<path d="M72.1813 60.7307L72.3704 60.7796C72.4326 60.8604 72.5025 60.8989 72.4798 61.0076C72.3329 61.7114 70.0851 63.0547 69.419 63.4922C69.2514 63.5092 69.2463 63.5459 69.1074 63.4373L69.1217 63.2514C69.7555 62.2629 71.2063 61.4192 72.1813 60.7307Z" fill="#060717"/>
<path d="M116.922 55.7386C118.992 56.5771 121.044 57.5673 123.04 58.5631C122.689 58.9028 122.35 59.2467 122.022 59.6079L121.97 59.6494C120.861 60.5613 119.879 61.6828 118.832 62.6685C115.289 66.0057 111.623 69.3126 107.73 72.2582C106.484 73.2012 105.15 74.2529 103.726 74.924C103.055 75.2401 102.443 75.3937 101.698 75.4271C101.107 75.2321 100.802 74.9598 100.393 74.522C101.169 73.4306 102.106 72.4247 102.99 71.4148C104.235 69.9805 105.49 68.5535 106.753 67.1343C110.135 63.3317 113.485 59.4932 116.922 55.7386Z" fill="#FEFEFE"/>
<path d="M69.3516 66.6749C70.1025 67.1384 70.8003 67.9297 71.4159 68.5573C72.2658 69.4238 73.0841 70.343 73.778 71.3338C74.3072 72.0898 74.7683 72.894 75.3112 73.6401C76.0995 74.7238 77.0743 75.7046 77.6191 76.9396C78.1719 78.1925 78.4965 79.6047 78.8247 80.9285C79.4614 83.4966 79.9692 86.091 80.5165 88.6779C81.3984 92.8477 82.367 97.0032 83.2998 101.163L84.5172 106.56C84.6623 107.181 85.005 107.953 84.9922 108.57C84.8776 108.786 84.833 108.776 84.5997 108.873L82.8867 109.412C82.3769 106.746 81.6391 104.132 80.9763 101.5L77.8539 89.0824L76.0616 81.9457C75.4804 79.5624 75.0087 77.1324 74.008 74.872C73.1164 72.8582 71.796 71.0596 70.0136 69.7154C69.7675 68.7451 69.4102 67.6693 69.3516 66.6749Z" fill="#FEFEFE"/>
<path d="M87.3324 108.607L87.5282 108.625C87.6229 108.729 89.6065 116.582 89.7916 117.316C87.7018 116.429 85.6761 115.348 83.6444 114.341C81.7581 113.373 79.8423 112.462 77.8994 111.607C79.0839 111.129 80.3299 110.787 81.5493 110.406L87.3324 108.607Z" fill="#FEFEFE"/>
<path d="M72.6553 128.344C74.1715 128.552 76.0095 129.667 77.4223 130.29L82.9941 132.698C93.9508 137.525 104.943 142.276 115.969 146.95C117.338 147.531 118.718 148.09 120.107 148.626C120.894 148.927 123.962 149.848 124.453 150.267C124.66 150.443 124.672 150.625 124.701 150.874C123.502 150.675 122.238 150.06 121.108 149.622C118.41 148.579 115.732 147.488 113.074 146.352C102.582 141.903 92.1283 137.369 81.7141 132.749L75.4936 130.11C74.6867 129.765 73.6407 129.46 72.9344 128.948C72.6814 128.764 72.6992 128.629 72.6553 128.344Z" fill="#FEFEFE"/>
<path d="M65.829 131.575C66.5195 132.076 67.8471 136.729 68.1391 137.666C68.9438 140.254 69.6965 142.858 70.3962 145.475C70.6943 146.603 71.1363 147.925 71.1882 149.089C71.1991 149.333 71.1461 149.411 71.0307 149.622L70.8194 149.553C70.4608 149.11 69.7706 145.593 69.5807 144.855C68.9043 142.198 68.1428 139.561 67.2979 136.95C66.7701 135.366 66.0641 133.797 65.6473 132.183C65.5765 131.909 65.6935 131.799 65.829 131.575Z" fill="#FEFEFE"/>
<path d="M71.77 129.506C71.9396 129.56 71.9809 129.565 72.074 129.727C72.4642 130.404 72.4204 131.792 72.4873 132.576C72.8151 136.415 72.9894 140.236 72.7871 144.088C72.7149 145.459 72.6564 146.839 72.3231 148.177C72.1108 148.076 72.0038 148.066 71.9172 147.84C71.7386 147.374 72.1518 144.383 72.1996 143.639C72.3262 141.467 72.34 139.29 72.2408 137.117C72.1657 135.604 72.0112 134.108 71.8464 132.603C71.7544 131.763 71.5597 130.812 71.6082 129.976C71.6181 129.804 71.6877 129.654 71.77 129.506Z" fill="#FEFEFE"/>
<path d="M70.1265 121.559C70.2796 121.64 70.3522 121.704 70.4334 121.852C71.0032 122.893 72.0563 127.732 71.7301 128.832C71.6059 128.753 71.414 128.674 71.3571 128.538C71.0575 127.824 70.9969 126.657 70.8382 125.868C70.6039 124.704 70.3016 123.565 70.0168 122.413C69.9237 122.036 69.9114 121.901 70.1265 121.559Z" fill="#FEFEFE"/>
<path d="M3.40137 0H164.148C164.032 0.0563869 163.946 0.0847432 163.813 0.0969485C162.991 0.172601 162.092 0.0961407 161.261 0.095738L155.603 0.0943501L137.459 0.0923704L44.4062 0.0914876L16.5606 0.0918972L8.35235 0.097316C6.72542 0.0981484 5.01744 0.19259 3.40137 0Z" fill="#060717" fill-opacity="0.0156863"/>
</g>
<defs>
<clipPath id="clip0_9_2112">
<rect width="166" height="162" fill="white"/>
</clipPath>
</defs>
</svg>
