<svg width="182" height="182" viewBox="0 0 182 182" fill="none" xmlns="http://www.w3.org/2000/svg">
<path d="M65.3648 65.5721C65.7885 63.009 66.3517 60.4645 67.2786 58.0317C69.3878 52.496 73.3319 47.9335 78.7853 45.4945C84.2763 43.0387 90.9694 42.8407 96.5879 45.0087C103.378 47.6291 108.202 52.865 111.099 59.4466C111.427 60.1919 111.754 60.9366 112.003 61.7126C112.259 62.5115 112.458 63.4201 112.804 64.1771L112.871 64.3187C116.747 65.1729 120.376 66.5674 123.991 68.2002C137.425 74.2685 149.61 84.2322 157.58 96.7037C167.038 111.503 171.498 127.862 170.306 145.425C170.026 149.549 169.522 153.622 168.629 157.66C167.856 161.043 166.925 164.388 165.837 167.683C165.295 169.347 164.644 170.994 164.157 172.674C161.163 172.678 158.158 172.679 155.166 172.748C155.078 172.123 155 171.494 154.885 170.873C154.621 169.424 154.334 167.966 154.184 166.5C150.162 166.804 145.471 168.545 141.986 170.526C141.044 171.062 139.247 172.492 138.363 172.711C138.14 172.767 137.951 172.727 137.73 172.693C137.698 172.688 137.667 172.684 137.635 172.68L66.0363 172.732C65.1055 173.518 64.2826 174.413 63.3116 175.159C60.6436 177.207 57.1096 178.095 53.7847 177.996C49.323 177.862 45.5732 175.946 42.536 172.722C41.577 172.772 40.5863 172.702 39.6258 172.687C38.1145 172.667 36.6033 172.66 35.092 172.665L17.7532 172.673C11.7507 157.482 10.1296 140.912 13.074 124.845C16.2411 107.708 25.1661 92.1654 38.3714 80.7918C41.3241 78.2677 44.578 76.0948 47.7845 73.9105C47.1685 72.6797 47.5942 71.1823 48.7655 70.4596C49.9367 69.7369 51.466 70.0282 52.2896 71.1309C52.9454 70.6116 53.8556 70.212 54.6014 69.8279C57.9757 68.0909 61.6343 66.3706 65.3648 65.5721ZM51.9755 71.4837C51.4395 70.9674 50.9324 70.6642 50.1678 70.6683C49.5331 70.6773 48.927 70.9343 48.4791 71.3844C48.0838 71.7837 47.8903 72.2659 47.9193 72.829C47.937 73.1772 48.0197 73.4656 48.2262 73.7488C49.5601 73.1821 50.8282 72.3591 51.9755 71.4837Z" fill="black"/>
<path d="M112.871 64.3187C116.747 65.1729 120.375 66.5674 123.991 68.2002C137.425 74.2684 149.61 84.2322 157.58 96.7037C167.038 111.503 171.498 127.862 170.306 145.425C170.026 149.549 169.521 153.621 168.629 157.66C167.856 161.043 166.925 164.388 165.837 167.683C165.295 169.347 164.644 170.994 164.157 172.674C161.163 172.677 158.158 172.679 155.165 172.748C155.078 172.123 155 171.494 154.884 170.873C154.621 169.424 154.334 167.966 154.184 166.5C150.162 166.804 145.471 168.545 141.986 170.526C141.044 171.062 139.247 172.492 138.363 172.711C138.14 172.767 137.951 172.727 137.729 172.693C137.698 172.688 137.666 172.684 137.635 172.68L66.0361 172.732C66.7396 171.425 67.8522 170.431 68.5303 168.905C69.3535 167.052 69.8286 165.07 70.3467 163.117C70.9443 160.875 71.5281 158.629 72.0981 156.379L79.3003 128.128C79.8731 125.951 80.43 123.771 80.971 121.587C81.4507 119.602 81.8442 117.523 82.5981 115.62C84.611 118.118 86.535 120.236 89.6844 121.274C92.0676 122.06 94.5383 121.849 96.7648 120.697C103.372 117.278 106.103 108.805 108.24 102.188C110.175 102.608 112.183 102.671 114.138 102.977C116.757 103.386 119.333 104.015 121.94 104.49C115.497 96.6841 115.881 85.3296 114.918 75.7874C114.525 71.9017 113.906 68.0861 112.871 64.3187Z" fill="#00A980"/>
<path d="M158.349 165.74C157.833 163.301 157.16 160.872 156.527 158.461C155 152.661 153.306 146.905 151.445 141.203C149.378 134.853 147.343 128.157 143.996 122.348C141.498 117.949 138.193 114.06 134.254 110.885C131.708 108.854 128.839 107.092 125.829 105.84C124.905 105.455 122.696 104.9 122.001 104.433C122.015 104.199 122.006 104.204 122.174 104.043C123.594 103.741 129.293 106.774 130.791 107.696C135.452 110.529 139.457 114.323 142.537 118.824C146.839 125.116 149.087 132.161 151.477 139.318C154.515 148.326 157.114 157.476 159.262 166.736C157.911 168.216 156.498 169.674 154.885 170.873C154.621 169.424 154.335 167.966 154.184 166.5C150.162 166.804 145.472 168.545 141.987 170.526C141.045 171.062 139.248 172.492 138.364 172.711C138.14 172.767 137.951 172.727 137.73 172.693C137.698 172.688 137.667 172.684 137.635 172.68C143.703 168.061 150.738 165.764 158.349 165.74Z" fill="black"/>
<path d="M129.686 119.477C129.87 119.645 129.928 119.704 129.916 119.963C129.869 121.034 128.948 123.176 128.663 124.381C127.884 127.696 127.299 131.053 126.911 134.436C126.064 142.42 125.993 150.467 126.699 158.464C126.902 160.89 127.121 163.314 127.357 165.736C127.497 167.091 127.703 168.439 127.805 169.798C127.844 170.323 127.822 170.528 127.484 170.922C127.363 170.733 127.285 170.537 127.239 170.318C126.781 168.156 126.645 165.33 126.424 163.076C125.223 150.778 125.176 138.427 127.614 126.266C128.064 124.021 128.44 121.433 129.686 119.477Z" fill="black"/>
<path d="M96.3558 133.959C96.4941 134.016 96.7237 134.102 96.782 134.243C97.1087 135.032 96.5671 137.303 96.4392 138.188C95.4554 145.378 93.8028 152.46 91.5031 159.343C90.6807 161.845 89.8399 164.326 88.7696 166.736L88.5023 166.663C88.3738 166.457 88.3665 166.347 88.4091 166.104C88.57 165.189 89.1014 164.286 89.4457 163.425C89.7519 162.66 90.0132 161.872 90.2794 161.091C92.4275 154.97 94.0538 148.677 95.141 142.281C95.6251 139.515 95.9063 136.727 96.3558 133.959Z" fill="black"/>
<path d="M65.3648 65.5721C65.1622 67.3476 64.9942 69.1095 64.9862 70.8981C64.9713 74.1929 65.3326 77.4787 65.4663 80.768C65.8105 89.2481 64.9491 97.4055 62.2653 105.474C65.8022 104.283 69.3618 103.144 73.0831 102.701C66.0126 119.019 57.2283 134.493 49.5699 150.526C44.2499 150.989 39.3436 153.585 35.9684 157.724C35.3885 158.425 34.8796 159.188 34.3643 159.937C35.2468 153.958 36.3523 148.013 37.6784 142.115C40.3366 130.167 43.9245 117.801 54.2729 110.22C54.9442 109.728 57.3235 108.464 57.5201 107.754C57.2055 107.648 56.9539 107.766 56.6634 107.904C55.2686 108.57 53.8727 109.684 52.6809 110.673C46.7969 115.557 42.9139 122.109 40.5045 129.297C37.82 137.304 36.1717 145.794 34.6946 154.101C34.2769 156.449 33.6443 158.923 33.5871 161.308C33.5686 162.079 33.6411 162.847 33.9902 163.547C34.5636 164.698 35.7006 165.449 36.902 165.816C37.5445 166.012 38.1775 166.084 38.8456 166.124C39.7262 168.605 40.8774 170.672 42.536 172.722C41.577 172.771 40.5863 172.702 39.6258 172.687C38.1145 172.667 36.6033 172.66 35.092 172.665L17.7532 172.673C11.7507 157.482 10.1296 140.912 13.074 124.845C16.2411 107.708 25.1661 92.1654 38.3714 80.7918C41.3241 78.2676 44.578 76.0948 47.7845 73.9105C47.1685 72.6797 47.5942 71.1823 48.7655 70.4596C49.9367 69.7369 51.466 70.0282 52.2896 71.1309C52.9454 70.6116 53.8556 70.212 54.6014 69.8279C57.9757 68.0909 61.6343 66.3706 65.3648 65.5721ZM51.9755 71.4837C51.4395 70.9674 50.9324 70.6642 50.1678 70.6683C49.5331 70.6773 48.927 70.9343 48.4791 71.3844C48.0838 71.7837 47.8903 72.2659 47.9193 72.829C47.937 73.1772 48.0197 73.4656 48.2262 73.7487C49.5601 73.1821 50.8282 72.359 51.9755 71.4837Z" fill="#00A980"/>
<path d="M47.7843 73.9105C47.1683 72.6797 47.594 71.1823 48.7652 70.4596C49.9365 69.7369 51.4657 70.0282 52.2894 71.1309C52.8912 71.9366 52.9866 73.0131 52.5359 73.9121C52.0851 74.8111 51.1654 75.3786 50.1596 75.3782C49.154 75.3778 48.2345 74.8098 47.7843 73.9105ZM51.9753 71.4837C51.4393 70.9674 50.9322 70.6642 50.1676 70.6682C49.5329 70.6773 48.9268 70.9343 48.4789 71.3843C48.0836 71.7837 47.8901 72.2659 47.9191 72.829C47.9368 73.1771 48.0195 73.4656 48.226 73.7487C49.5599 73.1821 50.828 72.359 51.9753 71.4837Z" fill="black"/>
<path d="M51.9759 71.4837C52.2809 72.0121 52.4632 72.5288 52.3184 73.1439C52.1954 73.6661 51.8387 74.114 51.3837 74.39C50.8121 74.7371 50.1228 74.8333 49.4782 74.6556C48.9478 74.508 48.5579 74.1792 48.2266 73.7487C49.5605 73.1821 50.8286 72.359 51.9759 71.4837Z" fill="#00A980"/>
<path d="M56.9234 77.7149C58.0823 77.5448 59.1595 78.3464 59.3296 79.5052C59.4999 80.664 58.6983 81.7415 57.5395 81.9116C56.3805 82.0817 55.3032 81.2801 55.1331 80.1212C54.963 78.9624 55.7644 77.885 56.9234 77.7149Z" fill="black"/>
<path d="M56.7982 78.2899C57.634 78.0577 58.4993 78.5495 58.7275 79.3865C58.9557 80.2234 58.4596 81.0863 57.6216 81.3104C56.7893 81.5331 55.9335 81.0412 55.7069 80.2099C55.4803 79.3786 55.968 78.5206 56.7982 78.2899Z" fill="#00A980"/>
<path d="M102.235 90.4266C102.804 94.1562 103.657 97.8547 104.272 101.583C105.6 101.749 106.924 101.95 108.241 102.188C106.104 108.805 103.373 117.278 96.7653 120.697C94.5388 121.849 92.0681 122.06 89.6849 121.274C86.5354 120.236 84.6115 118.118 82.5986 115.62C83.694 113.548 86.1978 112.937 87.8464 111.417C89.7135 109.696 90.4646 107.729 91.9654 105.892C92.3468 105.426 92.8392 105.027 93.2689 104.604C93.6381 104.24 93.9663 103.838 94.1855 103.365C94.9266 101.763 94.2815 100.085 93.7483 98.5445C97.296 96.2322 99.723 93.7958 102.235 90.4266Z" fill="#FEFDFE"/>
<path d="M84.7117 47.5152C84.9641 47.8664 84.9838 52.3339 85.1823 53.3662C85.7802 56.4748 87.131 59.2991 89.0663 61.7979C92.8112 66.6332 98.0979 68.7672 104.015 69.5281C104.154 69.1977 104.302 68.8726 104.489 68.5658C104.944 67.8169 105.662 67.1637 106.533 66.9605C107.337 66.7729 108.128 66.9733 108.815 67.4123C109.859 68.0853 110.585 69.1549 110.823 70.3745C111.046 71.5473 110.83 72.8805 110.147 73.8718C109.329 75.0592 108.128 75.5039 106.778 75.7675C106.664 77.4853 106.338 79.2082 105.897 80.8709C104.062 87.7898 99.8431 94.2965 93.5699 97.932C92.9571 96.5228 92.695 94.8257 91.344 93.8829C90.4754 93.2766 89.1348 93.0447 88.0954 93.25C87.8172 93.305 87.5062 93.3824 87.3412 93.6291L87.3779 93.7554C88.1402 94.0817 89.5116 93.617 90.6565 94.134C91.6074 94.5634 91.9954 95.357 92.3445 96.2777C91.619 96.1815 90.9885 96.096 90.2668 96.2933L90.2236 96.3877C90.7214 96.8532 91.8394 96.7945 92.5023 96.8464C92.8601 97.5637 93.1091 98.3198 93.3346 99.0871C92.917 99.0761 92.2309 99.011 91.9001 99.2908C92.1324 99.535 92.5565 99.6086 92.87 99.7325C93.3819 99.9349 93.9009 100.198 94.1069 100.744C94.3762 101.459 93.8588 102.77 93.4909 103.408C93.0012 104.257 92.1033 104.817 91.4777 105.563C89.9314 107.408 89.1995 109.474 87.2056 111.245C85.8607 112.439 83.9776 112.959 82.8126 114.353C82.0444 115.272 81.7357 116.505 81.3939 117.631C80.2502 121.398 79.4122 125.506 78.4337 129.35L72.0499 154.378L70.0989 161.887C69.4491 164.359 68.8567 166.889 67.7441 169.204C66.0039 172.746 62.9323 175.457 59.2002 176.742C55.0382 178.168 50.9139 177.529 47.0416 175.622C44.6262 174.265 42.5968 172.314 41.1456 169.954C39.1754 166.79 38.8342 163.328 38.8247 159.682C38.8212 158.267 38.8269 156.891 39.1479 155.504C42.1365 152.74 45.9121 151.387 49.9095 151.055C51.1746 148.678 52.3158 146.223 53.5164 143.812C55.4166 140.007 57.34 136.214 59.2866 132.433C62.0477 127.089 64.7578 121.718 67.4163 116.323C71.1228 108.818 74.985 101.252 76.5704 92.9663C77.052 93.3639 77.5323 93.7942 77.9789 94.2309C78.6735 94.9105 78.5206 94.9951 78.5224 95.8669C78.5651 95.8954 78.5992 95.956 78.6504 95.9526C78.8375 95.9398 80.7414 93.8921 81.0971 93.5916C81.3918 93.3426 81.7012 93.1675 82.0401 92.9867C83.0589 92.4436 84.1298 91.9994 85.1756 91.5119C87.2943 90.524 89.6548 89.1098 92.021 88.9559C92.9788 88.8935 93.8595 89.357 94.7514 89.3089C94.9422 89.2986 94.872 89.3275 94.9963 89.1912C94.944 89.0903 94.9446 89.0775 94.8539 88.981C94.4798 88.5825 93.6606 88.3287 93.1295 88.3082C92.1881 88.2721 91.2201 88.4319 90.3178 88.6912C88.7418 89.1443 87.2449 89.9052 85.7544 90.579C84.3391 91.2188 82.8526 91.816 81.535 92.6432C80.6668 93.1883 79.902 93.8363 79.1539 94.5341C78.3141 93.9273 77.5783 93.1246 76.8993 92.3476C73.7551 88.7485 71.6244 84.2264 70.5087 79.5994C70.2612 79.5447 70.0157 79.4693 69.7758 79.3868C68.7533 79.0355 67.9714 78.129 67.5187 77.1725C66.913 75.9022 66.8487 74.4405 67.3404 73.1221C68.225 70.7648 71.781 70.4006 73.7918 69.4838C79.6393 66.8184 82.5998 60.0877 83.5927 54.0661C83.9572 51.8558 83.9296 49.645 84.7117 47.5152Z" fill="#FEFDFE"/>
<path d="M85.839 76.0508C85.8656 76.0664 85.8939 76.0792 85.9188 76.0973C86.905 76.8223 84.389 80.2373 84.7255 81.4036C85.1001 82.702 86.9333 82.0344 87.7462 82.6133C87.8669 82.6993 87.8463 82.8129 87.8698 82.9479C87.0456 83.0612 86.0547 83.0738 85.2917 82.7052C84.855 82.4942 84.5108 82.1472 84.3528 81.6841C83.8942 80.3386 85.1938 77.3054 85.839 76.0508Z" fill="black"/>
<path d="M93.4905 73.0911C94.1467 72.9607 94.7873 73.3771 94.9341 74.0299C95.0809 74.6826 94.6805 75.3332 94.0317 75.4964C93.5973 75.6055 93.1379 75.4706 92.8317 75.144C92.5253 74.8173 92.4202 74.35 92.5571 73.9236C92.6939 73.4972 93.0513 73.1786 93.4905 73.0911Z" fill="black"/>
<path d="M77.8867 75.1431C78.5118 74.9579 79.1698 75.3077 79.3658 75.9294C79.5619 76.5511 79.2235 77.2151 78.6053 77.4218C78.1956 77.5588 77.7442 77.4641 77.4241 77.1742C77.104 76.8843 76.9652 76.4443 77.0611 76.0232C77.1571 75.6022 77.4728 75.2657 77.8867 75.1431Z" fill="black"/>
<path d="M89.3447 68.9465C90.5139 69.0725 91.5947 69.698 92.7642 69.8775C93.53 69.995 95.4602 69.8176 95.9675 70.0908C96.0789 70.1509 96.0622 70.3099 96.083 70.4246C94.466 70.7964 91.4219 70.7084 89.9691 69.8105C89.587 69.5741 89.4482 69.382 89.3447 68.9465Z" fill="black"/>
<path d="M79.992 69.8171C80.1877 69.8869 80.1752 69.9008 80.2989 70.0496C80.2945 70.1784 80.2753 70.2675 80.2022 70.3762C79.0655 72.0699 76.705 72.7838 74.829 73.1862C74.7174 73.1444 74.6233 73.0835 74.5211 73.0231L74.5039 72.8475C75.0449 72.2938 76.2491 72.2911 76.9616 71.9933C78.1348 71.5027 79.0495 70.6444 79.992 69.8171Z" fill="black"/>
<path d="M80.3587 47.7306C80.5937 47.7204 80.8496 47.6933 81.081 47.7398C81.2746 47.7787 81.2948 47.7796 81.4113 47.9462C81.2284 48.2423 80.728 48.359 80.4122 48.4557C78.813 48.9445 78.0745 49.2465 76.7486 50.3235C73.2131 53.1959 71.8511 57.4077 71.4238 61.7931C71.3406 62.0572 71.285 62.1425 71.0476 62.2701C70.873 62.1479 70.8711 62.1285 70.8215 61.9289C70.3082 59.857 72.042 55.4146 73.048 53.6212C74.6861 50.7011 77.1325 48.6402 80.3587 47.7306Z" fill="#FEFDFE"/>
<path d="M87.2751 52.8797C87.405 52.9067 87.6263 52.9417 87.7397 52.9968C88.1499 53.1962 88.4583 55.4298 88.6456 55.9833C89.7067 59.12 91.9804 62.0677 94.7906 63.8317C95.4973 64.2753 96.3412 64.452 97.0162 64.9297C97.1648 65.205 97.115 65.368 97.0969 65.6759C94.2986 64.8075 92.0672 62.9729 90.3387 60.6328C88.979 58.792 86.9289 55.2484 87.2751 52.8797Z" fill="#FEFDFE"/>
<path d="M43.3362 42.0752C46.1434 41.605 50.6957 42.7695 53.0135 44.4021C54.0403 45.1253 55.0489 46.1519 55.2377 47.4453C55.3664 48.3267 55.0738 49.1599 54.5323 49.8517C52.448 52.5141 48.5119 52.9615 45.399 53.321C41.8177 53.395 37.7904 53.0628 34.8649 50.762C33.986 50.071 33.2207 49.1418 33.1185 47.9879C33.0333 47.0269 33.4066 46.1388 34.0319 45.4222C36.219 42.915 40.2115 42.3173 43.3362 42.0752ZM44.411 52.8767C47.369 52.908 51.4927 52.2294 53.6777 50.0328C54.2728 49.4345 54.7544 48.6779 54.7535 47.8077C54.7525 46.876 54.2003 46.0403 53.5423 45.4238C51.2317 43.2584 47.1838 42.4147 44.1142 42.5203C41.0421 42.6303 36.7876 43.1678 34.5795 45.5812C34.008 46.2058 33.5713 46.9784 33.6209 47.85C33.6753 48.8048 34.3033 49.6197 35.0076 50.2164C37.5357 52.3581 41.2137 52.89 44.411 52.8767Z" fill="black"/>
<path d="M47.8411 6.88051C49.8735 6.64151 52.285 6.82188 54.3298 6.98854C56.0651 7.12998 64.1349 8.14552 64.947 9.10301C64.5437 9.43571 60.8827 8.42862 60.22 8.29928C53.0132 6.94359 45.6098 7.02279 38.4336 8.53236C32.7076 9.73784 25.5957 12.1459 22.2845 17.2831C21.1835 18.9911 20.641 20.9113 21.0974 22.9267C21.8237 26.133 24.3743 28.4654 27.0455 30.163C36.5109 36.178 50.5933 36.9496 61.2958 34.5374C66.899 33.2744 74.2546 30.522 77.4154 25.4574C78.6249 23.5198 78.9246 21.5348 78.4043 19.3238C77.671 16.5296 74.8941 14.0652 72.5092 12.6513C71.6826 12.161 70.7875 11.8238 69.9587 11.3523C69.7183 11.2154 69.4927 11.0637 69.3937 10.805L69.5329 10.7427C71.3069 10.8279 74.0936 12.9869 75.4626 14.1688C77.4115 15.8512 79.015 18.1401 79.1912 20.7757C79.3579 23.2715 78.1747 25.6265 76.5626 27.4625C71.5217 33.2038 60.9681 35.7036 53.5876 36.186C44.234 36.7972 31.5084 35.1486 24.2439 28.7103C22.2005 26.8994 20.6392 24.6521 20.4761 21.8599C20.3323 19.3986 21.3775 17.339 22.9882 15.5379C27.535 10.4531 35.3766 8.22452 41.9507 7.34595C43.9054 7.08471 45.8731 6.98415 47.8411 6.88051Z" fill="black"/>
<path d="M43.0474 59.7451C44.4243 59.669 45.7084 59.7475 46.9177 60.4834C47.6306 60.9172 48.2486 61.5789 48.4098 62.421C48.5197 63.0012 48.3873 63.601 48.0437 64.0812C47.2947 65.1468 46.0264 65.5234 44.8148 65.7539C43.4382 65.8988 41.8605 65.7642 40.6709 64.9952C39.7625 64.4079 39.4625 63.7007 39.2295 62.6963C39.3326 62.2616 39.4673 61.8443 39.7215 61.4719C40.487 60.3504 41.7825 59.9665 43.0474 59.7451ZM44.234 65.3497C45.3332 65.2792 46.5692 64.9832 47.3448 64.1467C47.7181 63.7439 47.9522 63.2262 47.9125 62.6699C47.8685 62.0545 47.4982 61.5164 47.0303 61.136C46.1201 60.3965 44.7051 60.0888 43.5445 60.194C42.3582 60.3778 40.9496 60.6714 40.1873 61.698C39.8969 62.0892 39.7588 62.5508 39.8302 63.0365C39.9219 63.6582 40.3713 64.1767 40.873 64.5236C41.8449 65.1956 43.0742 65.4002 44.234 65.3497Z" fill="black"/>
</svg>
