<svg width="101" height="101" viewBox="0 0 101 101" fill="none" xmlns="http://www.w3.org/2000/svg">
<path d="M35.9344 36.0743C36.1672 34.6659 36.4765 33.2679 36.9857 31.9311C38.1444 28.8894 40.3114 26.3825 43.3077 25.0421C46.3246 23.6926 50.0021 23.5836 53.0893 24.7746C56.8204 26.2141 59.471 29.0908 61.0631 32.707C61.2434 33.1165 61.4227 33.5257 61.5597 33.952C61.7006 34.391 61.8097 34.8902 62.0001 35.3061L62.0366 35.3839C64.1666 35.8531 66.1602 36.6192 68.1465 37.5163C75.5285 40.85 82.2239 46.3242 86.6034 53.1763C91.8004 61.3074 94.2517 70.2956 93.5973 79.9456C93.4436 82.2115 93.1665 84.4495 92.6762 86.6685C92.2517 88.5272 91.74 90.365 91.1428 92.1756C90.8447 93.0902 90.4873 93.9951 90.2195 94.9182C88.5747 94.9201 86.9234 94.9212 85.2793 94.9591C85.2313 94.6154 85.1882 94.27 85.1248 93.9287C84.9797 93.1326 84.8223 92.3314 84.7397 91.5259C82.5298 91.6931 79.9526 92.65 78.0379 93.7386C77.5201 94.033 76.5329 94.8192 76.0472 94.9395C75.9245 94.9699 75.8206 94.948 75.699 94.9294C75.6817 94.9266 75.6644 94.9246 75.647 94.9222L36.3071 94.9532C35.7957 95.3852 35.3436 95.8771 34.8101 96.2868C33.3443 97.4124 31.4025 97.9004 29.5756 97.8459C27.1242 97.7728 25.0637 96.7202 23.3949 94.9486C22.8679 94.9759 22.3236 94.9377 21.7959 94.9293C20.9655 94.9188 20.1351 94.915 19.3047 94.9178L9.77794 94.9224C6.47933 86.5759 5.58801 77.4716 7.20527 68.6438C8.94487 59.2274 13.8481 50.6874 21.1034 44.4377C22.7257 43.0507 24.5135 41.8567 26.2752 40.6564C25.9367 39.9802 26.1706 39.1574 26.8141 38.7603C27.4576 38.3632 28.2979 38.5232 28.7504 39.129C29.1108 38.8436 29.6109 38.6241 30.0206 38.413C31.8746 37.4585 33.8847 36.5132 35.9344 36.0743ZM28.5779 39.3229C28.2833 39.0392 28.0047 38.8726 27.5846 38.8749C27.2359 38.8799 26.9029 39.0211 26.6568 39.2684C26.4396 39.4878 26.3333 39.7528 26.3492 40.0622C26.359 40.2535 26.4044 40.412 26.5179 40.5675C27.2508 40.2562 27.9476 39.8039 28.5779 39.3229Z" fill="black"/>
<path d="M62.0365 35.3839C64.1665 35.8531 66.16 36.6192 68.1464 37.5162C75.5284 40.8499 82.2237 46.3241 86.6033 53.1763C91.8003 61.3073 94.2516 70.2955 93.5971 79.9456C93.4435 82.2115 93.1664 84.4494 92.6761 86.6685C92.2516 88.5272 91.7399 90.3649 91.1426 92.1755C90.8446 93.0902 90.4872 93.9951 90.2194 94.9181C88.5746 94.92 86.9233 94.9212 85.2791 94.9591C85.2312 94.6153 85.1881 94.2699 85.1247 93.9286C84.9796 93.1325 84.8221 92.3314 84.7396 91.5258C82.5297 91.693 79.9524 92.6499 78.0378 93.7385C77.52 94.0329 76.5328 94.8191 76.0471 94.9394C75.9244 94.9698 75.8205 94.948 75.6989 94.9293C75.6816 94.9266 75.6643 94.9245 75.6469 94.9222L36.307 94.9532C36.6935 94.2349 37.3048 93.6887 37.6773 92.8505C38.1295 91.8325 38.3905 90.7431 38.6751 89.6702C39.0033 88.4382 39.3241 87.2042 39.6372 85.9681L43.5934 70.445C43.9081 69.2492 44.214 68.0511 44.5112 66.8509C44.7747 65.7606 44.9908 64.618 45.405 63.5726C46.511 64.945 47.5682 66.1084 49.2988 66.6788C50.6083 67.1105 51.9658 66.9948 53.1891 66.3616C56.8193 64.4825 58.3197 59.827 59.4936 56.1912C60.5565 56.4219 61.6602 56.4568 62.7342 56.6246C64.173 56.8495 65.5888 57.1949 67.0208 57.4555C63.4806 53.167 63.6915 46.9282 63.1616 41.6853C62.946 39.5503 62.6056 37.4539 62.0365 35.3839Z" fill="#54C1A1"/>
<path d="M87.0276 91.1082C86.7444 89.7684 86.3742 88.4335 86.0262 87.1091C85.1874 83.9219 84.2563 80.7598 83.2337 77.6267C82.0976 74.1375 80.9794 70.4585 79.1402 67.2669C77.7673 64.8498 75.951 62.7132 73.7867 60.9689C72.3882 59.853 70.8114 58.8852 69.1577 58.1973C68.6498 57.986 67.4364 57.6809 67.0542 57.4243C67.0619 57.2959 67.0571 57.2986 67.1493 57.2098C67.9297 57.0438 71.061 58.7104 71.8841 59.2171C74.4452 60.7736 76.6456 62.8578 78.3384 65.331C80.7021 68.7877 81.9375 72.6587 83.2508 76.5909C84.9208 81.54 86.3487 86.5676 87.5296 91.6555C86.7874 92.4689 86.0108 93.2697 85.1247 93.9286C84.9796 93.1325 84.8221 92.3313 84.7396 91.5258C82.5297 91.693 79.9524 92.6499 78.0378 93.7385C77.52 94.0329 76.5327 94.8191 76.0471 94.9394C75.9244 94.9698 75.8204 94.9479 75.6989 94.9293C75.6816 94.9265 75.6643 94.9245 75.6469 94.9221C78.9805 92.3842 82.8461 91.1217 87.0276 91.1082Z" fill="black"/>
<path d="M71.2771 65.69C71.3783 65.7826 71.4097 65.8149 71.4034 65.9569C71.3774 66.5457 70.8715 67.7224 70.7152 68.3845C70.2871 70.2059 69.9658 72.0508 69.7528 73.9096C69.2876 78.2962 69.249 82.7176 69.6374 87.1117C69.7485 88.4444 69.869 89.7763 69.9989 91.1072C70.076 91.8517 70.1889 92.5921 70.2451 93.3388C70.2668 93.6276 70.2544 93.7399 70.0689 93.9566C70.0026 93.8529 69.9597 93.745 69.9342 93.6249C69.6824 92.4369 69.6074 90.884 69.4864 89.6458C68.8259 82.8887 68.7995 76.1025 70.1389 69.4206C70.3862 68.1866 70.5923 66.7647 71.2771 65.69Z" fill="black"/>
<path d="M52.9646 73.6482C53.0406 73.6797 53.1668 73.7267 53.1988 73.8041C53.3783 74.2376 53.0808 75.4855 53.0106 75.9722C52.4703 79.9225 51.5625 83.8139 50.2992 87.5956C49.8474 88.9706 49.3855 90.3337 48.7975 91.6578L48.6506 91.618C48.58 91.5044 48.576 91.4442 48.5994 91.3109C48.6878 90.8078 48.9797 90.3119 49.1689 89.8389C49.3371 89.4182 49.4806 88.9852 49.6269 88.5564C50.8069 85.1927 51.7003 81.7352 52.2974 78.2209C52.5633 76.701 52.7177 75.1691 52.9646 73.6482Z" fill="black"/>
<path d="M35.9341 36.0743C35.8229 37.0499 35.7307 38.018 35.7263 39.0007C35.7182 40.811 35.9169 42.6164 35.9904 44.4237C36.1799 49.0831 35.7068 53.5652 34.2325 57.9987C36.1758 57.3442 38.1316 56.7179 40.1763 56.4745C36.292 65.4408 31.4659 73.9431 27.2586 82.753C24.3355 83.0075 21.6398 84.4342 19.7855 86.708C19.4669 87.0937 19.1873 87.5125 18.9042 87.9245C19.3889 84.6388 19.9961 81.3723 20.7245 78.1319C22.1846 71.5669 24.1556 64.772 29.8413 60.6065C30.2101 60.3364 31.5174 59.6414 31.6254 59.2515C31.4525 59.1934 31.3142 59.258 31.1547 59.3341C30.3883 59.6997 29.6213 60.312 28.9666 60.8556C25.7337 63.5392 23.6005 67.1393 22.2769 71.0886C20.8022 75.4886 19.8968 80.1534 19.0855 84.7174C18.856 86.0079 18.5086 87.367 18.4772 88.6778C18.4671 89.1012 18.507 89.5231 18.6988 89.9079C19.0139 90.5399 19.6386 90.9529 20.2988 91.1543C20.6518 91.2621 20.9995 91.3017 21.3666 91.3235C21.8506 92.6867 22.4832 93.8224 23.3946 94.9486C22.8676 94.9759 22.3233 94.9378 21.7956 94.9293C20.9652 94.9188 20.1348 94.9151 19.3045 94.9178L9.77767 94.9224C6.47905 86.576 5.58774 77.4716 7.20499 68.6439C8.94459 59.2275 13.8479 50.6874 21.1031 44.4377C22.7254 43.0507 24.5132 41.8568 26.275 40.6565C25.9364 39.9802 26.1703 39.1574 26.8138 38.7603C27.4573 38.3632 28.2976 38.5232 28.7502 39.1291C29.1105 38.8437 29.6106 38.6241 30.0203 38.4131C31.8743 37.4585 33.8845 36.5132 35.9341 36.0743ZM28.5776 39.3229C28.2831 39.0392 28.0044 38.8727 27.5843 38.8749C27.2356 38.8799 26.9026 39.0212 26.6565 39.2684C26.4393 39.4879 26.333 39.7528 26.349 40.0622C26.3587 40.2535 26.4041 40.412 26.5176 40.5676C27.2505 40.2562 27.9473 39.8039 28.5776 39.3229Z" fill="#54C1A1"/>
<path d="M26.2749 40.6564C25.9364 39.9801 26.1702 39.1574 26.8137 38.7603C27.4572 38.3631 28.2975 38.5232 28.7501 39.129C29.0808 39.5716 29.1332 40.1631 28.8856 40.6571C28.638 41.1511 28.1326 41.4629 27.58 41.4627C27.0275 41.4626 26.5223 41.1505 26.2749 40.6564ZM28.5775 39.3228C28.283 39.0392 28.0043 38.8726 27.5842 38.8749C27.2355 38.8799 26.9025 39.0211 26.6564 39.2684C26.4392 39.4878 26.3329 39.7528 26.3489 40.0621C26.3586 40.2534 26.4041 40.4119 26.5175 40.5675C27.2504 40.2561 27.9472 39.8038 28.5775 39.3228Z" fill="black"/>
<path d="M28.5776 39.3229C28.7452 39.6132 28.8454 39.8971 28.7659 40.2351C28.6983 40.522 28.5023 40.7681 28.2523 40.9198C27.9383 41.1105 27.5596 41.1634 27.2054 41.0657C26.914 40.9847 26.6997 40.804 26.5177 40.5675C27.2505 40.2562 27.9473 39.8039 28.5776 39.3229Z" fill="#54C1A1"/>
<path d="M31.2965 42.7463C31.9332 42.6528 32.5251 43.0932 32.6186 43.7299C32.7122 44.3667 32.2718 44.9587 31.6351 45.0522C30.9983 45.1457 30.4064 44.7053 30.3129 44.0686C30.2194 43.4318 30.6597 42.8398 31.2965 42.7463Z" fill="black"/>
<path d="M31.2278 43.0623C31.687 42.9347 32.1624 43.2049 32.2879 43.6648C32.4133 44.1246 32.1408 44.5988 31.6803 44.7219C31.223 44.8443 30.7528 44.5741 30.6282 44.1173C30.5037 43.6606 30.7716 43.1891 31.2278 43.0623Z" fill="#54C1A1"/>
<path d="M56.193 49.7293C56.506 51.7785 56.9749 53.8106 57.3129 55.8589C58.0426 55.9501 58.7696 56.0609 59.4933 56.1912C58.3194 59.827 56.819 64.4826 53.1887 66.3616C51.9654 66.9948 50.6079 67.1105 49.2984 66.6789C47.5679 66.1085 46.5107 64.9451 45.4047 63.5727C46.0065 62.4339 47.3821 62.098 48.2879 61.263C49.3138 60.3175 49.7264 59.2362 50.5509 58.2273C50.7605 57.971 51.031 57.752 51.2671 57.5192C51.4699 57.3192 51.6503 57.0985 51.7707 56.8384C52.1778 55.9584 51.8233 55.0366 51.5303 54.1899C53.4795 52.9193 54.8129 51.5806 56.193 49.7293Z" fill="#FEFDFE"/>
<path d="M46.5635 26.1522C46.7022 26.3452 46.7132 28.7999 46.8223 29.367C47.1509 31.075 47.8932 32.6268 48.9566 33.9997C51.0144 36.6563 53.9193 37.8287 57.1704 38.2466C57.2467 38.065 57.3282 37.8864 57.4307 37.7178C57.6811 37.3063 58.0756 36.9474 58.5541 36.8357C58.9957 36.7326 59.4305 36.8427 59.8075 37.0839C60.3816 37.4536 60.7801 38.0413 60.9113 38.7114C61.0335 39.3558 60.9149 40.0883 60.5399 40.633C60.0907 41.2854 59.4306 41.5298 58.6888 41.6747C58.6261 42.6185 58.4471 43.5652 58.2049 44.4788C57.1968 48.2805 54.8791 51.8557 51.4324 53.8535C51.0956 53.0792 50.9515 52.1468 50.2092 51.6287C49.732 51.2957 48.9953 51.1683 48.4242 51.2811C48.2714 51.3114 48.1005 51.3539 48.0099 51.4894L48.03 51.5589C48.4489 51.7381 49.2024 51.4827 49.8315 51.7668C50.354 52.0027 50.5672 52.4387 50.759 52.9445C50.3604 52.8917 50.014 52.8448 49.6174 52.9532L49.5937 53.0051C49.8672 53.2608 50.4815 53.2285 50.8458 53.257C51.0424 53.6512 51.1792 54.0666 51.3031 54.4881C51.0737 54.4821 50.6967 54.4464 50.515 54.6001C50.6426 54.7343 50.8756 54.7747 51.0479 54.8428C51.3292 54.954 51.6143 55.0987 51.7275 55.3988C51.8755 55.7913 51.5913 56.5117 51.3891 56.8624C51.1201 57.329 50.6268 57.6366 50.2831 58.0466C49.4335 59.0602 49.0314 60.1952 47.936 61.1683C47.1971 61.8247 46.1624 62.1103 45.5223 62.8762C45.1003 63.3813 44.9307 64.059 44.743 64.6775C44.1147 66.7475 43.6544 69.0047 43.1169 71.1169L39.6101 84.8685L38.5384 88.9942C38.1815 90.3528 37.8561 91.7427 37.2448 93.0146C36.2888 94.9613 34.6012 96.4505 32.5507 97.1569C30.2639 97.9405 27.9978 97.5894 25.8701 96.5421C24.5429 95.7965 23.4278 94.7247 22.6303 93.4279C21.5477 91.6896 21.3601 89.7871 21.3548 87.7841C21.3528 87.0063 21.3558 86.2503 21.5322 85.4883C23.1741 83.9698 25.2486 83.2258 27.445 83.0435C28.14 81.7374 28.767 80.3882 29.4266 79.0635C30.4705 76.9729 31.5272 74.8887 32.5966 72.811C34.1135 69.8747 35.6024 66.9239 37.0629 63.9592C39.0992 59.8355 41.221 55.6783 42.0918 51.1256C42.3565 51.3441 42.6203 51.5805 42.8658 51.8204C43.2474 52.1938 43.1635 52.2403 43.1645 52.7193C43.1879 52.7349 43.2067 52.7682 43.2348 52.7664C43.3376 52.7594 44.3836 51.6342 44.579 51.469C44.7409 51.3322 44.911 51.236 45.0972 51.1367C45.6569 50.8382 46.2453 50.5941 46.8199 50.3262C47.984 49.7834 49.2809 49.0062 50.581 48.9216C51.1073 48.8873 51.5912 49.1419 52.0812 49.1154C52.1861 49.1098 52.1475 49.1257 52.2158 49.0508C52.1871 48.9953 52.1874 48.9883 52.1376 48.9353C51.932 48.7163 51.4819 48.5769 51.1901 48.5657C50.6728 48.5459 50.141 48.6337 49.6452 48.7762C48.7793 49.0252 47.9568 49.4433 47.1379 49.8136C46.3603 50.1652 45.5435 50.4934 44.8196 50.9479C44.3426 51.2475 43.9224 51.6036 43.5114 51.987C43.0499 51.6536 42.6456 51.2126 42.2725 50.7857C40.5448 48.8083 39.3739 46.3237 38.7608 43.7814C38.6247 43.7513 38.4899 43.71 38.358 43.6646C37.7962 43.4716 37.3666 42.9736 37.1178 42.448C36.785 41.7501 36.7496 40.947 37.0197 40.2225C37.5057 38.9273 39.4595 38.7271 40.5643 38.2233C43.7771 36.7585 45.4036 33.0603 45.9489 29.7517C46.1491 28.5372 46.1339 27.3225 46.5635 26.1522Z" fill="#FEFDFE"/>
<path d="M47.1843 41.831C47.1989 41.8396 47.2144 41.8466 47.2281 41.8566C47.77 42.2549 46.3877 44.1313 46.5726 44.7721C46.7785 45.4855 47.7857 45.1187 48.2324 45.4367C48.2987 45.484 48.2874 45.5464 48.3003 45.6206C47.8475 45.6828 47.303 45.6898 46.8838 45.4873C46.6438 45.3714 46.4547 45.1808 46.3678 44.9263C46.1158 44.187 46.8298 42.5204 47.1843 41.831Z" fill="black"/>
<path d="M51.3881 40.2045C51.7486 40.1328 52.1006 40.3616 52.1813 40.7203C52.262 41.0789 52.042 41.4364 51.6855 41.5261C51.4469 41.586 51.1944 41.5119 51.0262 41.3325C50.8578 41.153 50.8001 40.8962 50.8752 40.662C50.9504 40.4277 51.1468 40.2526 51.3881 40.2045Z" fill="black"/>
<path d="M42.8148 41.3326C43.1582 41.2308 43.5198 41.423 43.6275 41.7646C43.7352 42.1062 43.5493 42.471 43.2097 42.5846C42.9846 42.6599 42.7365 42.6079 42.5606 42.4486C42.3848 42.2894 42.3085 42.0476 42.3612 41.8162C42.4139 41.5849 42.5873 41.4 42.8148 41.3326Z" fill="black"/>
<path d="M49.1099 37.9275C49.7523 37.9967 50.3461 38.3403 50.9887 38.4389C51.4095 38.5034 52.4701 38.4059 52.7488 38.556C52.81 38.589 52.8008 38.6764 52.8123 38.7394C51.9238 38.9437 50.2512 38.8955 49.453 38.4022C49.243 38.2723 49.1667 38.1667 49.1099 37.9275Z" fill="black"/>
<path d="M43.9715 38.4061C44.079 38.4444 44.0722 38.4521 44.1401 38.5338C44.1377 38.6046 44.1272 38.6535 44.087 38.7133C43.4625 39.6439 42.1655 40.0363 41.1348 40.2574C41.0735 40.2345 41.0218 40.201 40.9656 40.1678L40.9562 40.0713C41.2534 39.7671 41.915 39.7656 42.3065 39.6019C42.9511 39.3323 43.4536 38.8607 43.9715 38.4061Z" fill="black"/>
<path d="M44.1717 26.2706C44.3008 26.265 44.4414 26.25 44.5686 26.2756C44.6749 26.297 44.686 26.2975 44.75 26.389C44.6495 26.5517 44.3746 26.6159 44.2011 26.669C43.3224 26.9376 42.9167 27.1035 42.1882 27.6954C40.2457 29.2737 39.4975 31.5879 39.2629 33.9975C39.2172 34.1426 39.1866 34.1895 39.0562 34.2596C38.9603 34.1925 38.9592 34.1818 38.9319 34.0722C38.6498 32.9338 39.6023 30.4928 40.155 29.5074C41.055 27.9029 42.3991 26.7705 44.1717 26.2706Z" fill="#FEFDFE"/>
<path d="M47.972 29.0996C48.0434 29.1144 48.165 29.1337 48.2273 29.1639C48.4527 29.2735 48.6222 30.5007 48.7251 30.8048C49.3082 32.5282 50.5577 34.1478 52.1018 35.1169C52.4901 35.3607 52.9537 35.4577 53.3247 35.7202C53.4063 35.8714 53.379 35.961 53.369 36.1301C51.8315 35.6531 50.6053 34.6451 49.6556 33.3595C48.9084 32.3481 47.7818 30.4011 47.972 29.0996Z" fill="#FEFDFE"/>
<path d="M23.8298 23.1646C25.3721 22.9061 27.8734 23.5458 29.147 24.4428C29.7112 24.8402 30.2654 25.4042 30.3692 26.1148C30.4399 26.5991 30.2792 27.0569 29.9817 27.437C28.8366 28.9 26.6739 29.1459 24.9635 29.3436C22.9958 29.3843 20.783 29.2019 19.1755 27.9379C18.6925 27.5582 18.272 27.0477 18.2158 26.4137C18.169 25.8857 18.374 25.3977 18.7176 25.0039C19.9192 23.6263 22.1129 23.2978 23.8298 23.1646ZM24.4207 29.0995C26.046 29.1166 28.3117 28.7436 29.5122 27.5366C29.8391 27.2078 30.1037 26.7921 30.1032 26.314C30.1026 25.802 29.7991 25.3429 29.4376 25.0041C28.168 23.8145 25.9438 23.351 24.2572 23.4091C22.5692 23.4697 20.2317 23.7652 19.0185 25.0913C18.7045 25.4345 18.4646 25.859 18.4919 26.3379C18.5218 26.8625 18.8668 27.3103 19.2539 27.6381C20.643 28.8147 22.6639 29.1069 24.4207 29.0995Z" fill="black"/>
<path d="M26.3037 3.82662C27.4204 3.69523 28.7454 3.79425 29.869 3.88575C30.8224 3.96341 35.2564 4.52112 35.7026 5.04718C35.4811 5.23 33.4695 4.67677 33.1053 4.60573C29.1455 3.8611 25.0778 3.90487 21.1348 4.73456C17.9887 5.39711 14.0812 6.72049 12.262 9.54322C11.6571 10.4817 11.3591 11.5368 11.61 12.6441C12.0091 14.4058 13.4106 15.6873 14.8784 16.6199C20.0794 19.9245 27.817 20.348 33.6974 19.0222C36.776 18.3281 40.8174 16.8155 42.554 14.0327C43.2185 12.968 43.383 11.8774 43.0971 10.6625C42.6941 9.12726 41.1682 7.77334 39.8578 6.99651C39.4036 6.72718 38.9118 6.54194 38.4564 6.28287C38.3243 6.20767 38.2004 6.12433 38.146 5.98217L38.2224 5.94794C39.1971 5.99468 40.7284 7.18088 41.4806 7.83023C42.5515 8.75453 43.4326 10.0121 43.5295 11.4603C43.6212 12.8316 42.9712 14.1255 42.0855 15.1344C39.316 18.2892 33.5173 19.6631 29.4622 19.9283C24.3228 20.2645 17.3307 19.3591 13.339 15.8218C12.2161 14.8269 11.3583 13.5922 11.2685 12.058C11.1894 10.7057 11.7637 9.57394 12.6486 8.58429C15.1466 5.7903 19.4551 4.56552 23.0672 4.08256C24.1412 3.93896 25.2224 3.88363 26.3037 3.82662Z" fill="black"/>
<path d="M23.6715 32.8734C24.428 32.8316 25.1336 32.8747 25.7981 33.279C26.1898 33.5173 26.5294 33.8809 26.618 34.3436C26.6783 34.6623 26.6056 34.9919 26.4169 35.2558C26.0054 35.8413 25.3085 36.0482 24.6428 36.1749C23.8864 36.2546 23.0195 36.1807 22.3659 35.7582C21.8668 35.4356 21.7019 35.047 21.5738 34.4951C21.6305 34.2563 21.7045 34.027 21.8441 33.8224C22.2647 33.2061 22.9765 32.9952 23.6715 32.8734ZM24.3236 35.9529C24.9276 35.9141 25.6067 35.7514 26.0329 35.2917C26.2379 35.0704 26.3665 34.786 26.3447 34.4803C26.3205 34.1422 26.1171 33.8465 25.8599 33.6376C25.3598 33.2312 24.5823 33.0622 23.9446 33.1201C23.2928 33.2211 22.5189 33.3825 22.1001 33.9466C21.9405 34.1615 21.8646 34.4152 21.9039 34.682C21.9543 35.0236 22.2012 35.3085 22.4769 35.4991C23.0109 35.8683 23.6864 35.9807 24.3236 35.9529Z" fill="black"/>
</svg>
