<svg width="35" height="35" viewBox="0 0 35 35" fill="none" xmlns="http://www.w3.org/2000/svg">
<rect width="35" height="35" rx="17.5" fill="#2F2C2B"/>
<mask id="mask0_1334_6750" style="mask-type:luminance" maskUnits="userSpaceOnUse" x="9" y="19" width="14" height="7">
<path fill-rule="evenodd" clip-rule="evenodd" d="M9.16602 19.5469H22.2943V25.6626H9.16602V19.5469Z" fill="white"/>
</mask>
<g mask="url(#mask0_1334_6750)">
<path fill-rule="evenodd" clip-rule="evenodd" d="M15.7302 20.7969C12.2043 20.7969 10.416 21.4027 10.416 22.596C10.416 23.801 12.2043 24.4127 15.7302 24.4127C19.256 24.4127 21.0443 23.8069 21.0443 22.6144C21.0443 21.4077 19.256 20.7969 15.7302 20.7969ZM15.7302 25.6627C14.1068 25.6627 9.16602 25.6627 9.16602 22.596C9.16602 19.8627 12.9118 19.5469 15.7302 19.5469C17.3535 19.5469 22.2943 19.5469 22.2943 22.6144C22.2943 25.3469 18.5485 25.6627 15.7302 25.6627Z" fill="white"/>
</g>
<path fill-rule="evenodd" clip-rule="evenodd" d="M15.7316 10.416C13.9783 10.416 12.5508 11.8435 12.5508 13.5977C12.5475 14.4468 12.8741 15.2427 13.47 15.8435C14.0666 16.4435 14.8616 16.776 15.7083 16.7793L15.7316 17.4043V16.7793C17.4858 16.7793 18.9133 15.3518 18.9133 13.5977C18.9133 11.8435 17.4858 10.416 15.7316 10.416ZM15.7316 18.0293H15.7058C14.5233 18.0252 13.415 17.561 12.5841 16.7243C11.7525 15.8868 11.2966 14.7752 11.3008 13.5952C11.3008 11.1543 13.2883 9.16602 15.7316 9.16602C18.1758 9.16602 20.1633 11.1543 20.1633 13.5977C20.1633 16.041 18.1758 18.0293 15.7316 18.0293Z" fill="white"/>
<path fill-rule="evenodd" clip-rule="evenodd" d="M23.5039 18.6902C23.1589 18.6902 22.8789 18.4102 22.8789 18.0652V14.7227C22.8789 14.3777 23.1589 14.0977 23.5039 14.0977C23.8489 14.0977 24.1289 14.3777 24.1289 14.7227V18.0652C24.1289 18.4102 23.8489 18.6902 23.5039 18.6902Z" fill="white"/>
<path fill-rule="evenodd" clip-rule="evenodd" d="M25.2091 17.0195H21.8008C21.4558 17.0195 21.1758 16.7395 21.1758 16.3945C21.1758 16.0495 21.4558 15.7695 21.8008 15.7695H25.2091C25.5541 15.7695 25.8341 16.0495 25.8341 16.3945C25.8341 16.7395 25.5541 17.0195 25.2091 17.0195Z" fill="white"/>
</svg>
