<svg width="40" height="41" viewBox="0 0 40 41" fill="none" xmlns="http://www.w3.org/2000/svg">
<rect width="40" height="41" rx="20" fill="#00A980"/>
<mask id="mask0_90_1316" style="mask-type:luminance" maskUnits="userSpaceOnUse" x="13" y="17" width="14" height="7">
<path fill-rule="evenodd" clip-rule="evenodd" d="M13.333 17.0801H26.5329V23.2251H13.333V17.0801Z" fill="white"/>
</mask>
<g mask="url(#mask0_90_1316)">
<path fill-rule="evenodd" clip-rule="evenodd" d="M19.9338 18.3301C16.383 18.3301 14.583 18.9401 14.583 20.1442C14.583 21.3592 16.383 21.9751 19.9338 21.9751C23.4838 21.9751 25.283 21.3651 25.283 20.1609C25.283 18.9459 23.4838 18.3301 19.9338 18.3301ZM19.9338 23.2251C18.3013 23.2251 13.333 23.2251 13.333 20.1442C13.333 17.3976 17.1005 17.0801 19.9338 17.0801C21.5663 17.0801 26.533 17.0801 26.533 20.1609C26.533 22.9076 22.7663 23.2251 19.9338 23.2251Z" fill="white"/>
</g>
<mask id="mask1_90_1316" style="mask-type:luminance" maskUnits="userSpaceOnUse" x="15" y="6" width="10" height="10">
<path fill-rule="evenodd" clip-rule="evenodd" d="M15.5088 6.66699H24.3588V15.5158H15.5088V6.66699Z" fill="white"/>
</mask>
<g mask="url(#mask1_90_1316)">
<path fill-rule="evenodd" clip-rule="evenodd" d="M19.9346 7.85602C18.1505 7.85602 16.6988 9.30685 16.6988 11.091C16.693 12.8693 18.1338 14.3193 19.9105 14.326L19.9346 14.921V14.326C21.718 14.326 23.1688 12.8743 23.1688 11.091C23.1688 9.30685 21.718 7.85602 19.9346 7.85602ZM19.9346 15.5152H19.908C17.473 15.5077 15.5005 13.5218 15.5088 11.0885C15.5088 8.65102 17.4938 6.66602 19.9346 6.66602C22.3746 6.66602 24.3588 8.65102 24.3588 11.091C24.3588 13.531 22.3746 15.5152 19.9346 15.5152Z" fill="white"/>
</g>
<path d="M9.92188 33H8.65625L10.6172 27.3438H12.125L14.0781 33H12.8203L12.3984 31.6953H10.3516L9.92188 33ZM10.6484 30.7812H12.1016L11.3906 28.6172H11.3516L10.6484 30.7812ZM15.6906 27.3438V33H14.5188V27.3438H15.6906ZM24.3062 30.8672V31.6797H21.5484V33.7266H20.5641V31.6797H17.8219V30.8672H24.3062ZM23.7125 27.4297V28.2109H21.5797C21.693 28.8359 22.4937 29.5391 23.9625 29.7031L23.6031 30.4844C22.4 30.3477 21.5289 29.8555 21.0641 29.2031C20.6031 29.8633 19.7242 30.3477 18.5094 30.4844L18.15 29.7031C19.6187 29.5391 20.4273 28.8398 20.5484 28.2109H18.4078V27.4297H20.5641V26.6172H21.5484V27.4297H23.7125ZM27.1531 28.2812C27.1531 29.0781 27.6766 29.8984 28.8328 30.25L28.3562 31.0234C27.5594 30.7969 26.9969 30.3086 26.6766 29.6875C26.3602 30.3594 25.7937 30.8867 24.9734 31.1406L24.4891 30.3594C25.6453 30.0156 26.1609 29.1484 26.1609 28.2812V28.2266H24.7312V27.4453H26.1609V26.6562H27.1687V27.4453H28.5906V28.2266H27.1531V28.2812ZM30.5281 26.6172V31.8906H29.5359V29.4922H28.3562V28.6875H29.5359V26.6172H30.5281ZM30.7 32.7969V33.5938H25.8094V31.4375H26.8094V32.7969H30.7Z" fill="white"/>
</svg>
