<svg width="13" height="13" viewBox="0 0 13 13" fill="none" xmlns="http://www.w3.org/2000/svg">
<rect width="13" height="13" rx="6.5" fill="#00A980"/>
<mask id="mask0_316_2000" style="mask-type:luminance" maskUnits="userSpaceOnUse" x="4" y="7" width="5" height="3">
<path fill-rule="evenodd" clip-rule="evenodd" d="M4.1665 7.22754H8.78647V9.37829H4.1665V7.22754Z" fill="white"/>
</mask>
<g mask="url(#mask0_316_2000)">
<path fill-rule="evenodd" clip-rule="evenodd" d="M6.4768 7.66504C5.234 7.66504 4.604 7.87854 4.604 8.3C4.604 8.72525 5.234 8.94079 6.4768 8.94079C7.7193 8.94079 8.349 8.72729 8.349 8.30583C8.349 7.88058 7.7193 7.66504 6.4768 7.66504ZM6.4768 9.37829C5.90542 9.37829 4.1665 9.37829 4.1665 8.3C4.1665 7.33866 5.48513 7.22754 6.4768 7.22754C7.04817 7.22754 8.7865 7.22754 8.7865 8.30583C8.7865 9.26716 7.46817 9.37829 6.4768 9.37829Z" fill="white"/>
</g>
<mask id="mask1_316_2000" style="mask-type:luminance" maskUnits="userSpaceOnUse" x="4" y="3" width="5" height="4">
<path fill-rule="evenodd" clip-rule="evenodd" d="M4.92773 3.58301H8.02524V6.6801H4.92773V3.58301Z" fill="white"/>
</mask>
<g mask="url(#mask1_316_2000)">
<path fill-rule="evenodd" clip-rule="evenodd" d="M6.47679 3.99951C5.85233 3.99951 5.34424 4.5073 5.34424 5.13176C5.3422 5.75417 5.84649 6.26167 6.46833 6.26401L6.47679 6.47226V6.26401C7.10095 6.26401 7.60874 5.75592 7.60874 5.13176C7.60874 4.5073 7.10095 3.99951 6.47679 3.99951ZM6.47679 6.68022H6.46745C5.6152 6.67759 4.92483 5.98255 4.92774 5.13088C4.92774 4.27776 5.62249 3.58301 6.47679 3.58301C7.33079 3.58301 8.02524 4.27776 8.02524 5.13176C8.02524 5.98576 7.33079 6.68022 6.47679 6.68022Z" fill="white"/>
</g>
</svg>
