<svg width="256" height="315" viewBox="0 0 256 315" xmlns="http://www.w3.org/2000/svg">
    <path d="M213.803 167.03c.442 47.847 41.733 64.131 42.193 64.342-.359 1.154-6.635 22.818-21.756 44.913-13.047 19.093-26.556 38.083-47.998 38.481-21.057.398-27.843-12.449-51.919-12.449-24.08 0-31.597 12.057-51.523 12.855-20.316.791-35.489-20.678-48.607-39.671-26.82-38.847-47.288-109.676-19.66-157.721 13.712-23.83 38.213-38.941 64.554-39.319 20.301-.385 39.469 13.648 51.919 13.648 12.444 0 35.61-16.635 59.901-14.167 10.158.423 38.74 4.103 57.085 30.999-1.468.911-34.113 19.918-34.189 59.092zM155.03 50.385C165.713 37.405 172.95 19.341 170.975 1.282c-15.485.621-34.223 10.319-45.325 23.299-9.954 11.595-18.663 30.015-16.335 47.744 17.285 1.34 35.008-9.255 45.715-21.94z" fill="#fff"/>
</svg>