<svg width="24" height="23" viewBox="0 0 24 23" fill="none" xmlns="http://www.w3.org/2000/svg">
<path d="M20 11.4985C20 11.8542 19.7178 12.1481 19.3518 12.1947L19.25 12.2011L4.25 12.2011C3.83579 12.2011 3.5 11.8865 3.5 11.4985C3.5 11.1428 3.78215 10.8488 4.14823 10.8023L4.25 10.7959L19.25 10.7959C19.6642 10.7959 20 11.1105 20 11.4985Z" fill="#2F2C2B"/>
<path d="M10.829 16.6443C11.1225 16.9181 11.1235 17.363 10.8313 17.6379C10.5656 17.8879 10.149 17.9114 9.85489 17.7079L9.77062 17.6401L3.72062 11.9969C3.45298 11.7473 3.42863 11.3556 3.64759 11.0801L3.72057 11.0012L9.77057 5.3571C10.0641 5.08329 10.5389 5.08421 10.8312 5.35916C11.0969 5.60911 11.1203 5.99947 10.9018 6.2741L10.829 6.35276L5.313 11.4993L10.829 16.6443Z" fill="#2F2C2B"/>
</svg>
