<svg width="15" height="15" viewBox="0 0 15 15" fill="none" xmlns="http://www.w3.org/2000/svg">
<path d="M5.42578 2.09668C6.16888 1.8012 8.83058 1.80117 9.57324 2.09668C9.97855 2.258 10.2525 2.56304 10.5039 3.01953L10.7861 3.56152C10.7926 3.57221 10.7984 3.58174 10.8037 3.58984L10.8281 3.62305C10.9569 3.76318 11.1723 3.84766 11.3145 3.84766C12.6594 3.8477 13.75 4.9386 13.75 6.2832V9.9043C13.75 11.6194 12.3587 13.0107 10.6436 13.0107H4.35645C2.64089 13.0107 1.25 11.6196 1.25 9.9043V6.2832C1.25 4.9386 2.34057 3.8477 3.68555 3.84766C3.82718 3.84766 4.04287 3.76305 4.17188 3.62305C4.17445 3.62024 4.17855 3.61589 4.18262 3.61035L4.21387 3.56055L4.49609 3.01953C4.74721 2.5632 5.02051 2.2581 5.42578 2.09668ZM9.15234 2.94336C8.50913 2.76156 6.27125 2.76944 5.77246 2.96777C5.61443 3.03078 5.47334 3.18823 5.31738 3.47168L5.07715 3.93652L5.01758 4.04395C4.96818 4.1261 4.91872 4.19536 4.8623 4.25684C4.54577 4.6009 4.07758 4.78516 3.68555 4.78516L3.58301 4.78906C2.80357 4.84181 2.1875 5.49086 2.1875 6.2832V9.9043C2.1875 11.1019 3.15869 12.0732 4.35645 12.0732H10.6436C11.8409 12.0732 12.8125 11.1017 12.8125 9.9043V6.2832C12.8125 5.45641 12.1417 4.7852 11.3145 4.78516L11.2051 4.78125C10.8373 4.75088 10.424 4.56986 10.1367 4.25684C10.0811 4.19627 10.0324 4.1272 9.9834 4.0459C9.97635 4.0342 9.96709 4.01821 9.95703 4L9.88477 3.86426L9.68262 3.47168C9.5264 3.18806 9.38477 3.03074 9.22656 2.96777L9.15234 2.94336Z" fill="white"/>
<path d="M10.9402 5.3125C11.2854 5.3125 11.5652 5.59232 11.5652 5.9375C11.5652 6.25802 11.3239 6.52219 11.0131 6.5583L10.9402 6.5625C10.5894 6.5625 10.3096 6.28268 10.3096 5.9375C10.3096 5.61698 10.5508 5.35281 10.8617 5.3167L10.9402 5.3125Z" fill="white"/>
<path d="M7.5 5.74902C8.85619 5.74926 9.95508 6.84884 9.95508 8.20508C9.95485 9.56112 8.85604 10.6599 7.5 10.6602C6.14376 10.6602 5.04418 9.56126 5.04395 8.20508C5.04395 6.84869 6.14362 5.74902 7.5 5.74902ZM7.5 6.68652C6.66138 6.68652 5.98145 7.36646 5.98145 8.20508C5.98168 9.0435 6.66153 9.72266 7.5 9.72266C8.33828 9.72242 9.01735 9.04335 9.01758 8.20508C9.01758 7.3666 8.33842 6.68676 7.5 6.68652Z" fill="white"/>
</svg>
