<svg width="24" height="24" viewBox="0 0 24 24" fill="none" xmlns="http://www.w3.org/2000/svg">
<path d="M8.68164 3.35425C9.87064 2.88147 14.1293 2.88139 15.3174 3.35425C15.9658 3.61234 16.4034 4.10056 16.8057 4.83081L17.2578 5.698C17.2682 5.71518 17.2776 5.73089 17.2861 5.7439L17.3242 5.79565C17.5301 6.02 17.8749 6.15582 18.1025 6.15601C20.2546 6.15601 22 7.90108 22 10.0525V15.8474C21.9999 18.5915 19.7743 20.817 17.0303 20.8171H6.96973C4.22501 20.817 2.00008 18.5918 2 15.8474V10.0525C2 7.90108 3.74544 6.15601 5.89746 6.15601C6.12424 6.15582 6.46956 6.01981 6.67578 5.79565C6.67984 5.79118 6.68512 5.78468 6.69141 5.77612L6.74316 5.69702L7.19336 4.83179C7.59527 4.10133 8.03289 3.61252 8.68164 3.35425ZM14.6436 4.70874C13.6144 4.41787 10.0345 4.4305 9.23633 4.7478C8.98331 4.84851 8.75748 5.10069 8.50781 5.55444L8.12305 6.29858L8.02832 6.47046C7.94932 6.60183 7.8705 6.71296 7.78027 6.81128C7.27393 7.36165 6.52462 7.65586 5.89746 7.65601L5.73242 7.66187C4.4855 7.74643 3.5 8.78487 3.5 10.0525V15.8474C3.50008 17.7634 5.05349 19.317 6.96973 19.3171H17.0303C18.9459 19.317 20.4999 17.763 20.5 15.8474V10.0525C20.5 8.72959 19.4262 7.65601 18.1025 7.65601L17.9287 7.64917C17.3402 7.60071 16.6795 7.31123 16.2197 6.8103C16.1306 6.7132 16.0513 6.60283 15.9727 6.47241C15.9614 6.45374 15.9476 6.42912 15.9316 6.40015L15.8154 6.18237L15.4912 5.55444C15.2414 5.10091 15.0157 4.84852 14.7627 4.7478L14.6436 4.70874Z" fill="#2F2C2B"/>
<path d="M17.5041 8.5C18.0564 8.5 18.5041 8.94772 18.5041 9.5C18.5041 10.0128 18.1181 10.4355 17.6207 10.4933L17.5041 10.5C16.9428 10.5 16.4951 10.0523 16.4951 9.5C16.4951 8.98716 16.8812 8.56449 17.3785 8.50673L17.5041 8.5Z" fill="#2F2C2B"/>
<path d="M11.9995 9.19897C14.1696 9.19897 15.929 10.9576 15.9292 13.1277C15.9292 15.2979 14.1697 17.0574 11.9995 17.0574C9.82943 17.0572 8.0708 15.2978 8.0708 13.1277C8.07096 10.9577 9.82953 9.19913 11.9995 9.19897ZM11.9995 10.699C10.658 10.6991 9.57096 11.7861 9.5708 13.1277C9.5708 14.4694 10.6579 15.5572 11.9995 15.5574C13.3413 15.5574 14.4292 14.4695 14.4292 13.1277C14.429 11.786 13.3412 10.699 11.9995 10.699Z" fill="#2F2C2B"/>
</svg>
