<svg width="24" height="24" viewBox="0 0 24 24" fill="none" xmlns="http://www.w3.org/2000/svg">
<mask id="mask0_970_5274" style="mask-type:luminance" maskUnits="userSpaceOnUse" x="1" y="1" width="22" height="22">
<path fill-rule="evenodd" clip-rule="evenodd" d="M23 1.00049H1.507V22.4943H23V1.00049Z" fill="white"/>
</mask>
<g mask="url(#mask0_970_5274)">
<path fill-rule="evenodd" clip-rule="evenodd" d="M17.8916 19.6755C17.3116 19.6755 16.7646 19.8955 16.1856 20.1285C12.6386 21.7685 8.44356 21.0225 5.71056 18.2905C2.10456 14.6825 2.10456 8.81349 5.71056 5.20749C7.45656 3.46149 9.77856 2.50049 12.2506 2.50049C14.7236 2.50049 17.0466 3.46249 18.7916 5.20849C21.5256 7.94049 22.2696 12.1355 20.6446 15.6485C20.4106 16.2275 20.1846 16.7915 20.1846 17.3775C20.1846 17.9625 20.3856 18.5515 20.5626 19.0715C20.7086 19.4995 20.9296 20.1455 20.7876 20.2875C20.6486 20.4315 19.9986 20.2045 19.5696 20.0575C19.0546 19.8815 18.4706 19.6795 17.8916 19.6755ZM12.2756 22.4945C13.8036 22.4945 15.3416 22.1715 16.7806 21.5055C17.2046 21.3355 17.6016 21.1755 17.8866 21.1755C18.2146 21.1775 18.6556 21.3295 19.0816 21.4765C19.9556 21.7765 21.0436 22.1505 21.8486 21.3485C22.6506 20.5455 22.2806 19.4605 21.9826 18.5875C21.8356 18.1575 21.6846 17.7135 21.6846 17.3775C21.6846 17.1015 21.8176 16.7495 22.0216 16.2425C23.8946 12.1975 23.0286 7.32249 19.8516 4.14749C17.8236 2.11849 15.1246 1.00049 12.2516 1.00049C9.37856 1.00049 6.67856 2.11749 4.65056 4.14649C0.458563 8.33849 0.458563 15.1585 4.65056 19.3505C6.70556 21.4065 9.47256 22.4945 12.2756 22.4945Z" fill="#2F2C2B"/>
</g>
</svg>
