<svg width="17" height="17" viewBox="0 0 17 17" fill="none" xmlns="http://www.w3.org/2000/svg">
<path fill-rule="evenodd" clip-rule="evenodd" d="M8.49935 2.47949C5.17939 2.47949 2.47852 5.18037 2.47852 8.50033C2.47852 11.8203 5.17939 14.5212 8.49935 14.5212C11.8193 14.5212 14.5202 11.8203 14.5202 8.50033C14.5202 5.18037 11.8193 2.47949 8.49935 2.47949M8.49935 15.5837C4.5936 15.5837 1.41602 12.4061 1.41602 8.50033C1.41602 4.59458 4.5936 1.41699 8.49935 1.41699C12.4051 1.41699 15.5827 4.59458 15.5827 8.50033C15.5827 12.4061 12.4051 15.5837 8.49935 15.5837" fill="#F92626"/>
<path fill-rule="evenodd" clip-rule="evenodd" d="M8.49609 9.4729C8.20284 9.4729 7.96484 9.2349 7.96484 8.94165V5.81152C7.96484 5.51827 8.20284 5.28027 8.49609 5.28027C8.78934 5.28027 9.02734 5.51827 9.02734 5.81152V8.94165C9.02734 9.2349 8.78934 9.4729 8.49609 9.4729" fill="#F92626"/>
<path fill-rule="evenodd" clip-rule="evenodd" d="M8.50289 11.8971C8.11118 11.8971 7.79102 11.5805 7.79102 11.1888C7.79102 10.7971 8.10481 10.4805 8.49581 10.4805H8.50289C8.8946 10.4805 9.21122 10.7971 9.21122 11.1888C9.21122 11.5805 8.8946 11.8971 8.50289 11.8971" fill="#F92626"/>
</svg>
