<svg width="15" height="15" viewBox="0 0 15 15" fill="none" xmlns="http://www.w3.org/2000/svg">
<mask id="mask0_90_3080" style="mask-type:luminance" maskUnits="userSpaceOnUse" x="1" y="1" width="13" height="13">
<path fill-rule="evenodd" clip-rule="evenodd" d="M1.25 1.25H13.7517V13.7506H1.25V1.25Z" fill="white"/>
</mask>
<g mask="url(#mask0_90_3080)">
<path fill-rule="evenodd" clip-rule="evenodd" d="M6.84045 12.5471C7.2092 12.9071 7.80295 12.9027 8.1692 12.5346L8.62045 12.0846C8.97045 11.7352 9.4542 11.5359 9.94733 11.5359H10.5911C11.1123 11.5359 11.5361 11.1121 11.5361 10.5915V9.94837C11.5361 9.44774 11.7298 8.97712 12.0836 8.62274L12.5336 8.17212C12.7167 7.98837 12.8148 7.75024 12.8142 7.49774C12.8136 7.24587 12.7142 7.00899 12.5348 6.83024L12.0842 6.37899C11.7298 6.02212 11.5361 5.55212 11.5361 5.05149V4.40962C11.5361 3.88837 11.1123 3.46462 10.5911 3.46462H9.94858C9.44795 3.46462 8.97733 3.27024 8.62295 2.91837L8.1717 2.46649C7.79608 2.09462 7.1967 2.09649 6.82983 2.46587L6.38045 2.91649C6.0217 3.27087 5.55108 3.46462 5.05233 3.46462H4.4092C3.88858 3.46524 3.46483 3.88899 3.46483 4.40962V5.05024C3.46483 5.55087 3.27045 6.02149 2.91795 6.37649L2.4742 6.82087C2.46983 6.82587 2.46545 6.82962 2.46108 6.83399C2.0942 7.20337 2.09608 7.80274 2.46545 8.16962L2.9167 8.62087C3.27045 8.97587 3.46483 9.44649 3.46483 9.94712V10.5915C3.46483 11.1121 3.88795 11.5359 4.4092 11.5359H5.05108C5.55233 11.5365 6.02295 11.7309 6.37733 12.084L6.82795 12.5334C6.8317 12.5377 6.83608 12.5421 6.84045 12.5471ZM7.4992 13.7509C7.01983 13.7509 6.54045 13.5696 6.17358 13.2059C6.16858 13.2009 6.16358 13.1959 6.15858 13.1902L5.71483 12.7471C5.53795 12.5715 5.3017 12.474 5.05045 12.4734H4.4092C3.37108 12.4734 2.52733 11.629 2.52733 10.5915V9.94712C2.52733 9.69587 2.4292 9.46024 2.25295 9.28274L1.80358 8.83399C1.07358 8.10774 1.06483 6.92524 1.7817 6.18774C1.78733 6.18212 1.79295 6.17649 1.79858 6.17087L2.25358 5.71462C2.4292 5.53774 2.52733 5.30087 2.52733 5.05024V4.40962C2.52733 3.37212 3.37108 2.52774 4.40858 2.52712H5.05233C5.30295 2.52712 5.5392 2.42899 5.71858 2.25212L6.16545 1.80399C6.89608 1.06837 8.09045 1.06462 8.82733 1.79712L9.2842 2.25399C9.46108 2.42962 9.69733 2.52712 9.94858 2.52712H10.5911C11.6292 2.52712 12.4736 3.37149 12.4736 4.40962V5.05149C12.4736 5.30212 12.5711 5.53899 12.748 5.71712L13.1967 6.16649C13.5523 6.51962 13.7498 6.99149 13.7517 7.49462C13.7536 7.99774 13.5592 8.47087 13.2048 8.82774L12.7467 9.28462C12.5711 9.46149 12.4736 9.69712 12.4736 9.94837V10.5915C12.4736 11.629 11.6292 12.4734 10.5917 12.4734H9.94733C9.69983 12.4734 9.45795 12.5734 9.28233 12.7477L8.83358 13.1965C8.4667 13.5659 7.98295 13.7509 7.4992 13.7509Z" fill="white"/>
</g>
<path fill-rule="evenodd" clip-rule="evenodd" d="M5.8934 9.57527C5.7734 9.57527 5.6534 9.52965 5.56215 9.43777C5.37902 9.25465 5.37902 8.9584 5.56215 8.77527L8.77465 5.56215C8.95777 5.37902 9.25465 5.37902 9.43777 5.56215C9.6209 5.74527 9.6209 6.04215 9.43777 6.22527L6.22465 9.43777C6.1334 9.52965 6.0134 9.57527 5.8934 9.57527Z" fill="white"/>
<path fill-rule="evenodd" clip-rule="evenodd" d="M9.06465 9.68652C8.71902 9.68652 8.43652 9.40715 8.43652 9.06152C8.43652 8.7159 8.7134 8.43652 9.05902 8.43652H9.06465C9.41027 8.43652 9.68965 8.7159 9.68965 9.06152C9.68965 9.40715 9.41027 9.68652 9.06465 9.68652Z" fill="white"/>
<path fill-rule="evenodd" clip-rule="evenodd" d="M5.93965 6.56152C5.59402 6.56152 5.31152 6.28215 5.31152 5.93652C5.31152 5.5909 5.5884 5.31152 5.93402 5.31152H5.93965C6.28527 5.31152 6.56465 5.5909 6.56465 5.93652C6.56465 6.28215 6.28527 6.56152 5.93965 6.56152Z" fill="white"/>
</svg>
