<svg width="20" height="21" viewBox="0 0 20 21" fill="none" xmlns="http://www.w3.org/2000/svg">
<path fill-rule="evenodd" clip-rule="evenodd" d="M10.001 14.4734C9.65598 14.4734 9.37598 14.1794 9.37598 13.8171V3.28125C9.37598 2.919 9.65598 2.625 10.001 2.625C10.346 2.625 10.626 2.919 10.626 3.28125V13.8171C10.626 14.1794 10.346 14.4734 10.001 14.4734Z" fill="#fff"/>
<path fill-rule="evenodd" clip-rule="evenodd" d="M10.0008 14.4729C9.83494 14.4729 9.67494 14.4038 9.55827 14.2795L7.12827 11.7184C6.88494 11.4612 6.88577 11.0455 7.12994 10.79C7.37494 10.5345 7.76994 10.5345 8.01327 10.7918L10.0008 12.8874L11.9883 10.7918C12.2316 10.5345 12.6266 10.5345 12.8716 10.79C13.1158 11.0455 13.1166 11.4612 12.8733 11.7184L10.4433 14.2795C10.3266 14.4038 10.1666 14.4729 10.0008 14.4729Z" fill="#fff"/>
<mask id="mask0_154_3070" style="mask-type:luminance" maskUnits="userSpaceOnUse" x="1" y="6" width="18" height="13">
<path fill-rule="evenodd" clip-rule="evenodd" d="M1.66699 6.76562H18.3335V18.7916H1.66699V6.76562Z" fill="white"/>
</mask>
<g mask="url(#mask0_154_3070)">
<path fill-rule="evenodd" clip-rule="evenodd" d="M14.6462 18.7916H5.36283C3.32533 18.7916 1.66699 17.0512 1.66699 14.911V10.6366C1.66699 8.50162 3.32116 6.76562 5.35533 6.76562H6.13949C6.48449 6.76562 6.76449 7.05962 6.76449 7.42187C6.76449 7.78412 6.48449 8.07812 6.13949 8.07812H5.35533C4.01033 8.07812 2.91699 9.22525 2.91699 10.6366V14.911C2.91699 16.3276 4.01366 17.4791 5.36283 17.4791H14.6462C15.9895 17.4791 17.0837 16.3302 17.0837 14.9197V10.6462C17.0837 9.22962 15.9862 8.07812 14.6387 8.07812H13.862C13.517 8.07812 13.237 7.78412 13.237 7.42187C13.237 7.05962 13.517 6.76562 13.862 6.76562H14.6387C16.6762 6.76562 18.3337 8.50687 18.3337 10.6462V14.9197C18.3337 17.0547 16.6787 18.7916 14.6462 18.7916Z" fill="#fff"/>
</g>
</svg>
