<svg width="15" height="15" viewBox="0 0 15 15" fill="none" xmlns="http://www.w3.org/2000/svg">
<mask id="mask0_320_2850" style="mask-type:luminance" maskUnits="userSpaceOnUse" x="1" y="1" width="13" height="13">
<path fill-rule="evenodd" clip-rule="evenodd" d="M1.25 1.25H13.4372V13.4379H1.25V1.25Z" fill="white"/>
</mask>
<g mask="url(#mask0_320_2850)">
<path fill-rule="evenodd" clip-rule="evenodd" d="M5.48312 7.24938C5.49437 7.25938 5.505 7.26875 5.51562 7.28C6.19 7.97125 6.56188 8.88688 6.56188 9.85875V12.3487L7.95937 11.5875C8.06937 11.5275 8.1375 11.41 8.1375 11.2806V9.85125C8.1375 8.88313 8.50563 7.97063 9.17375 7.28313L12.1969 4.0675C12.3925 3.85938 12.5 3.58625 12.5 3.29813V2.71313C12.5 2.42313 12.2712 2.1875 11.9912 2.1875H2.69687C2.41625 2.1875 2.1875 2.42313 2.1875 2.71313V3.29813C2.1875 3.58625 2.295 3.85938 2.49063 4.06688L5.48312 7.24938ZM6.34125 13.4381C6.215 13.4381 6.09 13.4044 5.97625 13.3369C5.75625 13.2056 5.62438 12.9738 5.62438 12.7163V9.85875C5.62438 9.14938 5.36 8.48125 4.87812 7.96938C4.86375 7.9575 4.84937 7.94438 4.83687 7.93063L1.80813 4.71C1.44813 4.3275 1.25 3.82562 1.25 3.29812V2.71313C1.25 1.90625 1.89938 1.25 2.69688 1.25H11.9913C12.7881 1.25 13.4375 1.90625 13.4375 2.71313V3.29812C13.4375 3.825 13.2394 4.32625 12.8806 4.70937L9.85125 7.93063C9.34938 8.44813 9.075 9.12875 9.075 9.85125V11.2806C9.075 11.7531 8.81938 12.1856 8.40813 12.4106L6.6825 13.3506C6.575 13.4088 6.45812 13.4381 6.34125 13.4381V13.4381Z" fill="#2F2C2B"/>
</g>
</svg>
