<svg width="20" height="21" viewBox="0 0 20 21" fill="none" xmlns="http://www.w3.org/2000/svg">
<mask id="mask0_154_3071" style="mask-type:luminance" maskUnits="userSpaceOnUse" x="1" y="1" width="18" height="19">
<path fill-rule="evenodd" clip-rule="evenodd" d="M1.66699 1.75H18.9142V19.8353H1.66699V1.75Z" fill="white"/>
</mask>
<g mask="url(#mask0_154_3071)">
<path fill-rule="evenodd" clip-rule="evenodd" d="M6.36852 3.0625C3.94852 3.0625 2.91602 4.354 2.91602 7.37887V14.203C2.91602 16.989 4.38102 18.5229 7.04102 18.5229H13.526C16.1793 18.5229 17.6402 16.989 17.6402 14.203V14.2004L17.6635 9.856C17.6635 6.88187 16.6918 5.7225 14.196 5.7225H11.8377C11.0468 5.72162 10.2918 5.32525 9.81685 4.662L9.05602 3.59975C8.81685 3.26287 8.43435 3.06337 8.03435 3.0625H6.36852ZM13.526 19.8354H7.04102C3.72602 19.8354 1.66602 17.6767 1.66602 14.203V7.37887C1.66602 3.6435 3.24852 1.75 6.36852 1.75H8.03518C8.82768 1.75087 9.58268 2.14812 10.056 2.81225L10.8152 3.87275C11.056 4.20875 11.4385 4.40912 11.8385 4.41H14.196C17.4143 4.41 18.9135 6.14162 18.9135 9.8595L18.8902 14.2056C18.8893 17.6776 16.8343 19.8354 13.526 19.8354Z" fill="#2F2C2B"/>
</g>
<path fill-rule="evenodd" clip-rule="evenodd" d="M13.9296 13.749H6.65039C6.30539 13.749 6.02539 13.455 6.02539 13.0928C6.02539 12.7305 6.30539 12.4365 6.65039 12.4365H13.9296C14.2746 12.4365 14.5546 12.7305 14.5546 13.0928C14.5546 13.455 14.2746 13.749 13.9296 13.749Z" fill="#2F2C2B"/>
</svg>
