<svg width="10" height="10" viewBox="0 0 10 10" fill="none" xmlns="http://www.w3.org/2000/svg">
<mask id="mask0_970_5013" style="mask-type:luminance" maskUnits="userSpaceOnUse" x="0" y="1" width="10" height="9">
<path fill-rule="evenodd" clip-rule="evenodd" d="M0.833984 1.25H9.3642V9.37542H0.833984V1.25Z" fill="white"/>
</mask>
<g mask="url(#mask0_970_5013)">
<path fill-rule="evenodd" clip-rule="evenodd" d="M1.59397 5.0513C2.17813 6.8688 4.48605 8.33838 5.09938 8.70213C5.7148 8.33463 8.03938 6.8488 8.6048 5.05297C8.97605 3.89213 8.63147 2.42172 7.2623 1.98047C6.59897 1.76755 5.82522 1.89713 5.29105 2.31047C5.17938 2.3963 5.02438 2.39797 4.91188 2.31297C4.34605 1.88755 3.60688 1.76297 2.93313 1.98047C1.56605 2.4213 1.22272 3.89172 1.59397 5.0513ZM5.0998 9.37547C5.04813 9.37547 4.99688 9.36297 4.95022 9.33755C4.8198 9.2663 1.74772 7.57297 0.998966 5.24213C0.99855 5.24213 0.99855 5.24172 0.99855 5.24172C0.52855 3.77422 1.05188 1.93005 2.74147 1.38547C3.5348 1.1288 4.39938 1.24172 5.09855 1.68297C5.77605 1.25463 6.67605 1.1363 7.45355 1.38547C9.1448 1.93088 9.6698 3.77463 9.20022 5.24172C8.47563 7.54588 5.38105 9.26463 5.2498 9.33672C5.20313 9.36255 5.15147 9.37547 5.0998 9.37547Z" fill="#E84E4E"/>
</g>
<path fill-rule="evenodd" clip-rule="evenodd" d="M7.56412 4.42727C7.40287 4.42727 7.2662 4.30352 7.25287 4.14019C7.22537 3.79769 6.9962 3.50852 6.66995 3.40311C6.50537 3.34977 6.41537 3.17352 6.46828 3.00977C6.52203 2.84561 6.69662 2.75644 6.86162 2.80811C7.42953 2.99186 7.82745 3.49477 7.8762 4.08936C7.88995 4.26144 7.76204 4.41227 7.58995 4.42602C7.5812 4.42686 7.57287 4.42727 7.56412 4.42727Z" fill="#E84E4E"/>
</svg>
