<svg width="16" height="16" viewBox="0 0 16 16" fill="none" xmlns="http://www.w3.org/2000/svg">
<path d="M7.99429 0C3.56888 0 0 3.08878 0 6.8386C0 9.27259 1.48465 11.4039 3.71164 12.6209L2.95789 15.6665C2.94368 15.7121 2.94149 15.7611 2.95158 15.808C2.96166 15.8549 2.98362 15.8979 3.01499 15.9321C3.06073 15.9757 3.11959 15.9998 3.18059 16C3.23116 15.9956 3.27914 15.974 3.31763 15.9382L6.56103 13.5722C7.03979 13.6437 7.52241 13.6808 8.00571 13.6834C12.4254 13.6834 16 10.5946 16 6.8386C16 3.0826 12.414 0 7.99429 0Z" fill="#392020"/>
</svg>
