<svg width="42" height="40" viewBox="0 0 42 40" fill="none" xmlns="http://www.w3.org/2000/svg">
<path d="M39.3893 15.6597C38.0686 14.2794 36.343 12.8579 34.6601 11.4157C35.5335 12.2398 35.853 13.5171 35.7891 14.6914C35.7252 15.8863 35.2992 17.0194 34.8731 18.1319C35.6187 18.7706 36.4282 19.5123 36.4495 20.46C36.4708 21.4076 35.7465 22.1699 35.0435 22.8292C31.1664 26.5787 27.2892 30.3283 23.4121 34.0778C22.7091 34.7577 21.8569 35.4993 20.8557 35.3963C20.1101 35.3139 19.5136 34.7783 19.0023 34.2632C16.9572 32.2854 14.9121 30.3077 12.867 28.3299L5.96485 21.6549C5.53879 21.2222 5.15534 20.7484 4.98491 20.2127C4.8784 19.7595 4.92101 19.3062 5.09143 18.8736C5.32576 18.4204 5.68792 18.0495 6.07137 17.6787C7.24304 16.5456 8.41471 15.4125 9.58637 14.2794L18.2993 5.8532C18.7041 5.48237 19.1514 5.13214 19.6627 4.94672C19.7692 4.92612 19.8544 4.90552 19.961 4.88491C20.174 4.86431 20.387 4.86431 20.6 4.88491C20.6 4.88491 20.6 4.88491 20.6214 4.88491C20.8131 4.90552 20.9835 4.96732 21.1752 5.02913C21.5374 5.21455 21.8782 5.48237 22.1978 5.7708L27.9496 11.3333C28.3544 11.7247 28.7804 12.1368 29.1852 12.5282C29.6112 12.9403 29.8456 13.4965 29.8456 14.094C29.8456 14.6914 29.6112 15.2477 29.1639 15.6803L22.6664 21.9639L26.1388 25.322L32.6363 19.0384C32.7641 18.9148 32.8919 18.7912 32.9984 18.647C32.9984 18.6264 33.041 18.6058 33.0623 18.5852C33.1689 18.4616 33.2967 18.3174 33.4032 18.1731C33.4032 18.1731 33.4032 18.1525 33.4245 18.1319C33.6375 17.8229 33.8506 17.5139 33.9997 17.1843C34.0636 17.0812 34.1062 16.9576 34.1488 16.8546C34.1914 16.7516 34.234 16.6486 34.2766 16.5456V16.5044C34.5536 15.7421 34.724 14.9386 34.724 14.094C34.724 12.2604 33.9997 10.5298 32.6576 9.21132C32.1037 8.57266 31.4646 7.9958 30.8042 7.41895L26.8418 3.58699C26.3732 3.09255 25.8832 2.61871 25.3719 2.16546L25.308 2.10366C24.7541 1.56801 24.1577 1.15597 23.4973 0.826339C23.4547 0.826339 23.4334 0.785135 23.3908 0.785135C23.3481 0.764534 23.2842 0.743932 23.2416 0.72333C22.5173 0.352495 21.7291 0.105273 20.8983 0.0228649C20.1527 -0.0389408 19.4071 0.0228649 18.6828 0.228884C18.555 0.249486 18.4484 0.29069 18.3206 0.311292C18.2993 0.311292 18.278 0.311292 18.2567 0.311292C17.9798 0.393699 17.7028 0.476107 17.4259 0.579116C17.3833 0.579116 17.362 0.599718 17.3194 0.62032C17.2129 0.661524 17.1277 0.702728 17.0211 0.743932C16.9785 0.743932 16.9572 0.785135 16.9146 0.805737C16.2542 1.13537 15.6577 1.54741 15.1039 2.08306L14.8908 2.28907C14.1239 2.92773 13.4209 3.6076 12.7179 4.30806C10.8433 6.14163 8.98989 7.9752 7.11522 9.80877L2.0877 14.6708C1.91727 14.8356 1.74685 15.0211 1.59773 15.2065C1.55512 15.2477 1.51252 15.3095 1.46991 15.3507C1.44861 15.3713 1.406 15.4125 1.3847 15.4331C1.08646 15.7421 0.894728 16.1748 0.681698 16.525C0.426061 16.9576 0.234334 17.4315 0.127818 17.9259C0.0426061 18.338 0 18.7706 0 19.2032C0 19.3269 0 19.4505 0 19.5947C0 19.7801 -1.984e-08 19.9655 0.021303 20.1509C0.021303 20.1715 0.021303 20.2127 0.021303 20.2333C0.021303 20.3982 0.0639091 20.5836 0.0852122 20.7484C0.0852122 20.7896 0.0852122 20.8102 0.0852122 20.8514C0.106515 21.0162 0.149121 21.2016 0.191727 21.3664C0.191727 21.387 0.191727 21.4076 0.191727 21.4282C0.234334 21.6137 0.298243 21.7785 0.362152 21.9433C0.426061 22.1081 0.48997 22.2935 0.575182 22.4583C0.575182 22.4583 0.575182 22.4995 0.596485 22.5201C0.681698 22.685 0.76691 22.8292 0.852122 22.994C0.852122 23.0146 0.873425 23.0352 0.894728 23.0558C0.97994 23.2206 1.08646 23.3648 1.19297 23.509C1.19297 23.509 1.19297 23.509 1.19297 23.5296C1.29949 23.6945 1.4273 23.8387 1.55512 23.9829C1.70424 24.1683 1.87467 24.3537 2.0664 24.5185L2.30073 24.7452C3.08894 25.6928 4.00497 26.5581 4.8997 27.4234C6.64655 29.0922 8.41471 30.7609 10.1616 32.4297C11.6102 33.81 13.0375 35.1697 14.4861 36.55C15.743 37.745 17.0424 38.9605 18.6828 39.5785C19.961 40.0524 21.3883 40.1348 22.7091 39.7845C24.8394 39.2283 26.5223 37.6626 28.0987 36.138C31.0385 33.3155 33.9784 30.4931 36.9182 27.6706C38.7929 25.8783 40.774 23.8799 41.1575 21.3664C41.477 19.3062 40.774 17.0606 39.3254 15.5361L39.3893 15.6597ZM19.6201 4.96732C19.7053 4.94672 19.7692 4.92612 19.8544 4.92612C19.7692 4.92612 19.684 4.94672 19.5988 4.98792L19.6201 4.96732ZM20.2379 4.88491C20.2379 4.88491 20.0462 4.88491 19.9397 4.90552C20.0462 4.90552 20.1314 4.88491 20.2379 4.88491C20.3444 4.88491 20.4296 4.88491 20.5361 4.90552C20.4296 4.90552 20.3444 4.88491 20.2379 4.88491ZM20.8983 4.96732C20.8983 4.96732 21.0261 5.00853 21.0687 5.02913C21.0687 5.02913 21.1113 5.02913 21.1113 5.04973C21.0474 5.02913 20.9622 4.98792 20.877 4.96732H20.8983ZM20.6 4.90552C20.6 4.90552 20.7918 4.94672 20.877 4.96732C20.7918 4.94672 20.6853 4.92612 20.6 4.90552ZM23.5186 0.908747C23.5186 0.908747 23.4547 0.867543 23.4121 0.867543C23.4547 0.867543 23.476 0.908747 23.5186 0.908747ZM18.3419 0.373097C18.3419 0.373097 18.2993 0.373097 18.278 0.373097C18.2993 0.373097 18.3206 0.373097 18.3419 0.373097ZM17.4472 0.682126C17.4472 0.682126 17.3833 0.702728 17.3407 0.72333C17.3833 0.72333 17.4046 0.702728 17.4472 0.682126ZM17.0637 0.846941C17.0637 0.846941 16.9998 0.888145 16.9572 0.908747C16.9998 0.908747 17.0211 0.867543 17.0637 0.846941Z" fill="#54C1A1"/>
</svg>
