<svg width="18" height="17" viewBox="0 0 18 17" fill="none" xmlns="http://www.w3.org/2000/svg">
<path d="M17.195 6.65538C16.6184 6.06874 15.8651 5.46459 15.1305 4.85168C15.5117 5.20191 15.6512 5.74477 15.6233 6.24385C15.5954 6.75169 15.4094 7.23326 15.2234 7.70608C15.5489 7.97751 15.9023 8.29272 15.9116 8.69548C15.9209 9.09825 15.6047 9.42221 15.2978 9.7024C13.6053 11.296 11.9128 12.8895 10.2203 14.4831C9.91338 14.772 9.54139 15.0872 9.10431 15.0434C8.77882 15.0084 8.51843 14.7808 8.29524 14.5619C7.40248 13.7213 6.50972 12.8808 5.61696 12.0402L2.60389 9.20332C2.4179 9.01945 2.2505 8.81806 2.17611 8.59041C2.12961 8.39779 2.14821 8.20516 2.2226 8.02128C2.3249 7.82866 2.48299 7.67105 2.65039 7.51345C3.16186 7.03188 3.67334 6.55031 4.18482 6.06874L7.98836 2.48761C8.16505 2.33001 8.36034 2.18116 8.58353 2.10236C8.63003 2.0936 8.66723 2.08484 8.71373 2.07609C8.80672 2.06733 8.89972 2.06733 8.99271 2.07609C8.99271 2.07609 8.99271 2.07609 9.00201 2.07609C9.08571 2.08484 9.16011 2.11111 9.2438 2.13738C9.4019 2.21618 9.55069 2.33001 9.69018 2.45259L12.2011 4.81666C12.3778 4.98302 12.5638 5.15813 12.7405 5.32449C12.9264 5.49961 13.0287 5.73602 13.0287 5.98994C13.0287 6.24385 12.9264 6.48026 12.7312 6.66413L9.89478 9.33466L11.4106 10.7619L14.247 8.09133C14.3028 8.0388 14.3586 7.98626 14.4051 7.92497C14.4051 7.91621 14.4237 7.90746 14.433 7.8987C14.4795 7.84617 14.5353 7.78488 14.5818 7.72359C14.5818 7.72359 14.5818 7.71483 14.5911 7.70608C14.6841 7.57474 14.7771 7.4434 14.8422 7.30331C14.8701 7.25953 14.8887 7.20699 14.9073 7.16322C14.9259 7.11944 14.9445 7.07566 14.9631 7.03188V7.01437C15.084 6.6904 15.1584 6.34893 15.1584 5.98994C15.1584 5.21067 14.8422 4.47518 14.2563 3.91481C14.0145 3.64338 13.7355 3.39822 13.4472 3.15305L11.7175 1.52447C11.5129 1.31433 11.299 1.11295 11.0758 0.920322L11.0479 0.894054C10.8061 0.666403 10.5457 0.491287 10.2575 0.351194C10.2389 0.351194 10.2296 0.333683 10.211 0.333683C10.1924 0.324927 10.1645 0.316171 10.1459 0.307415C9.82968 0.149811 9.48559 0.0447408 9.12291 0.00971758C8.79742 -0.0165499 8.47194 0.0097176 8.15575 0.0972757C8.09995 0.106032 8.05345 0.123543 7.99766 0.132299C7.98836 0.132299 7.97906 0.132299 7.96976 0.132299C7.84886 0.167322 7.72797 0.202345 7.60707 0.246124C7.58847 0.246124 7.57917 0.25488 7.56058 0.263636C7.51408 0.281148 7.47688 0.298659 7.43038 0.316171C7.41178 0.316171 7.40248 0.333683 7.38388 0.342438C7.0956 0.482531 6.83521 0.657648 6.59342 0.885299L6.50042 0.972857C6.16564 1.24429 5.85875 1.53323 5.55186 1.83093C4.7335 2.61019 3.92443 3.38946 3.10607 4.16873L0.911361 6.2351C0.836964 6.30515 0.762567 6.38395 0.69747 6.46275C0.678871 6.48026 0.660272 6.50653 0.641673 6.52404C0.632373 6.5328 0.613774 6.55031 0.604474 6.55906C0.47428 6.6904 0.390583 6.87427 0.297587 7.02312C0.185992 7.20699 0.102296 7.40838 0.0557976 7.61852C0.0185992 7.79363 0 7.97751 0 8.16138C0 8.21391 0 8.26645 0 8.32774C0 8.40654 -8.66093e-09 8.48534 0.00929959 8.56415C0.00929959 8.5729 0.00929959 8.59041 0.00929959 8.59917C0.00929959 8.66921 0.0278988 8.74802 0.0371984 8.81806C0.0371984 8.83558 0.0371984 8.84433 0.0371984 8.86184C0.046498 8.93189 0.0650972 9.01069 0.0836964 9.08074C0.0836964 9.08949 0.0836964 9.09825 0.0836964 9.10701C0.102296 9.18581 0.130194 9.25585 0.158093 9.3259C0.185992 9.39595 0.213891 9.47475 0.251089 9.5448C0.251089 9.5448 0.251089 9.56231 0.260389 9.57106C0.297587 9.64111 0.334786 9.7024 0.371984 9.77245C0.371984 9.7812 0.381284 9.78996 0.390583 9.79871C0.427782 9.86876 0.47428 9.93005 0.520778 9.99134C0.520778 9.99134 0.520778 9.99134 0.520778 10.0001C0.567276 10.0701 0.623073 10.1314 0.678871 10.1927C0.743968 10.2715 0.818365 10.3503 0.902061 10.4204L1.00436 10.5167C1.34844 10.9195 1.74833 11.2872 2.13891 11.6549C2.90148 12.3642 3.67334 13.0734 4.43591 13.7826C5.06828 14.3692 5.69136 14.9471 6.32373 15.5338C6.87241 16.0416 7.43968 16.5582 8.15575 16.8209C8.71373 17.0223 9.3368 17.0573 9.91338 16.9084C10.8433 16.672 11.578 16.0066 12.2662 15.3587C13.5495 14.1591 14.8329 12.9596 16.1162 11.76C16.9346 10.9983 17.7994 10.1489 17.9668 9.08074C18.1063 8.20516 17.7994 7.25077 17.1671 6.60284L17.195 6.65538ZM8.56493 2.11111C8.60213 2.10236 8.63003 2.0936 8.66723 2.0936C8.63003 2.0936 8.59283 2.10236 8.55563 2.11987L8.56493 2.11111ZM8.83462 2.07609C8.83462 2.07609 8.75093 2.07609 8.70443 2.08484C8.75093 2.08484 8.78812 2.07609 8.83462 2.07609C8.88112 2.07609 8.91832 2.07609 8.96482 2.08484C8.91832 2.08484 8.88112 2.07609 8.83462 2.07609ZM9.12291 2.11111C9.12291 2.11111 9.17871 2.12862 9.19731 2.13738C9.19731 2.13738 9.21591 2.13738 9.21591 2.14614C9.18801 2.13738 9.15081 2.11987 9.11361 2.11111H9.12291ZM8.99271 2.08484C8.99271 2.08484 9.07641 2.10236 9.11361 2.11111C9.07641 2.10236 9.02991 2.0936 8.99271 2.08484ZM10.2668 0.386217C10.2668 0.386217 10.2389 0.368706 10.2203 0.368706C10.2389 0.368706 10.2482 0.386217 10.2668 0.386217ZM8.00696 0.158566C8.00696 0.158566 7.98836 0.158566 7.97906 0.158566C7.98836 0.158566 7.99766 0.158566 8.00696 0.158566ZM7.61637 0.289904C7.61637 0.289904 7.58847 0.298659 7.56988 0.307415C7.58847 0.307415 7.59777 0.298659 7.61637 0.289904ZM7.44898 0.35995C7.44898 0.35995 7.42108 0.377462 7.40248 0.386217C7.42108 0.386217 7.43038 0.368706 7.44898 0.35995Z" fill="#00A980"/>
</svg>
