<svg width="12" height="12" viewBox="0 0 12 12" fill="none" xmlns="http://www.w3.org/2000/svg">
<path d="M11.4633 4.69791C11.0789 4.28382 10.5767 3.85736 10.087 3.42472C10.3412 3.67194 10.4342 4.05513 10.4156 4.40743C10.397 4.7659 10.273 5.10583 10.149 5.43958C10.366 5.63118 10.6015 5.85368 10.6077 6.13799C10.6139 6.42229 10.4032 6.65097 10.1986 6.84875C9.07021 7.97362 7.94186 9.09848 6.81351 10.2233C6.60892 10.4273 6.36093 10.6498 6.06954 10.6189C5.85255 10.5942 5.67896 10.4335 5.53016 10.279C4.93499 9.68563 4.33981 9.0923 3.74464 8.49897L1.73593 6.49646C1.61193 6.36667 1.50034 6.22452 1.45074 6.06382C1.41974 5.92785 1.43214 5.79187 1.48174 5.66208C1.54993 5.52611 1.65533 5.41486 1.76692 5.30361C2.10791 4.96368 2.4489 4.62375 2.78988 4.28382L5.32557 1.75596C5.44337 1.64471 5.57356 1.53964 5.72235 1.48402C5.75335 1.47784 5.77815 1.47165 5.80915 1.46547C5.87115 1.45929 5.93315 1.45929 5.99514 1.46547C5.99514 1.46547 5.99514 1.46547 6.00134 1.46547C6.05714 1.47165 6.10674 1.4902 6.16254 1.50874C6.26793 1.56436 6.36713 1.64471 6.46012 1.73124L8.13405 3.39999C8.25185 3.51742 8.37584 3.64104 8.49364 3.75847C8.61763 3.88208 8.68583 4.04895 8.68583 4.22819C8.68583 4.40743 8.61763 4.5743 8.48744 4.70409L6.59652 6.58917L7.60707 7.5966L9.49799 5.71153C9.53519 5.67444 9.57239 5.63736 9.60339 5.5941C9.60339 5.58792 9.61579 5.58174 9.62199 5.57556C9.65299 5.53847 9.69018 5.49521 9.72118 5.45194C9.72118 5.45194 9.72118 5.44576 9.72738 5.43958C9.78938 5.34687 9.85138 5.25417 9.89478 5.15528C9.91337 5.12437 9.92578 5.08729 9.93817 5.05639C9.95057 5.02548 9.96297 4.99458 9.97537 4.96368V4.95132C10.056 4.72264 10.1056 4.48159 10.1056 4.22819C10.1056 3.67812 9.89478 3.15895 9.50419 2.76339C9.343 2.5718 9.15701 2.39874 8.96482 2.22568L7.81167 1.0761C7.67527 0.927765 7.53268 0.785611 7.38388 0.649639L7.36528 0.631097C7.20409 0.470402 7.0305 0.346791 6.83831 0.247902C6.82591 0.247902 6.81971 0.235541 6.80731 0.235541C6.79491 0.22936 6.77631 0.22318 6.76391 0.216999C6.55312 0.105749 6.32373 0.0315818 6.08194 0.00685947C5.86495 -0.0116822 5.64796 0.00685948 5.43717 0.0686652C5.39997 0.0748458 5.36897 0.0872069 5.33177 0.0933875C5.32557 0.0933875 5.31937 0.0933875 5.31317 0.0933875C5.23258 0.11811 5.15198 0.142832 5.07138 0.173735C5.05898 0.173735 5.05278 0.179916 5.04038 0.186096C5.00938 0.198457 4.98459 0.210818 4.95359 0.22318C4.94119 0.22318 4.93499 0.235541 4.92259 0.241721C4.7304 0.34061 4.55681 0.464222 4.39561 0.624917L4.33361 0.686722C4.11042 0.87832 3.90583 1.08228 3.70124 1.29242C3.15566 1.84249 2.61629 2.39256 2.07071 2.94263L0.607574 4.40125C0.557976 4.45069 0.508378 4.50632 0.46498 4.56194C0.452581 4.5743 0.440181 4.59284 0.427782 4.60521C0.421582 4.61139 0.409182 4.62375 0.402983 4.62993C0.316186 4.72264 0.260389 4.85243 0.198392 4.9575C0.123995 5.08729 0.0681971 5.22944 0.0371984 5.37778C0.0123995 5.50139 0 5.63118 0 5.76097C0 5.79806 0 5.83514 0 5.8784C0 5.93403 -6.0536e-09 5.98965 0.00619973 6.04528C0.00619973 6.05146 0.00619973 6.06382 0.00619973 6.07C0.00619973 6.11945 0.0185992 6.17507 0.0247989 6.22451C0.0247989 6.23688 0.0247989 6.24306 0.0247989 6.25542C0.0309987 6.30486 0.0433981 6.36049 0.0557976 6.40993C0.0557976 6.41611 0.0557976 6.42229 0.0557976 6.42847C0.0681971 6.4841 0.0867963 6.53354 0.105395 6.58299C0.123995 6.63243 0.142594 6.68806 0.167393 6.7375C0.167393 6.7375 0.167393 6.74986 0.173593 6.75604C0.198391 6.80549 0.22319 6.84875 0.247989 6.8982C0.247989 6.90438 0.254189 6.91056 0.260389 6.91674C0.285188 6.96618 0.316186 7.00945 0.347185 7.05271C0.347185 7.05271 0.347185 7.05271 0.347185 7.05889C0.378184 7.10834 0.415382 7.1516 0.452581 7.19486C0.495979 7.25049 0.545577 7.30611 0.601374 7.35556L0.669571 7.42355C0.898961 7.70785 1.16555 7.96744 1.42594 8.22702C1.93432 8.72765 2.4489 9.22827 2.95727 9.7289C3.37886 10.143 3.79424 10.5509 4.21582 10.965C4.5816 11.3235 4.95979 11.6881 5.43717 11.8736C5.80915 12.0157 6.22453 12.0404 6.60892 11.9354C7.22889 11.7685 7.71867 11.2988 8.17745 10.8414C9.03301 9.99466 9.88858 9.14793 10.7441 8.30119C11.2897 7.76348 11.8663 7.16396 11.9779 6.40993C12.0709 5.79187 11.8663 5.11819 11.4447 4.66083L11.4633 4.69791ZM5.70996 1.4902C5.73475 1.48402 5.75335 1.47784 5.77815 1.47784C5.75335 1.47784 5.72855 1.48402 5.70376 1.49638L5.70996 1.4902ZM5.88975 1.46547C5.88975 1.46547 5.83395 1.46547 5.80295 1.47166C5.83395 1.47166 5.85875 1.46547 5.88975 1.46547C5.92075 1.46547 5.94554 1.46547 5.97654 1.47166C5.94554 1.47166 5.92075 1.46547 5.88975 1.46547ZM6.08194 1.4902C6.08194 1.4902 6.11914 1.50256 6.13154 1.50874C6.13154 1.50874 6.14394 1.50874 6.14394 1.51492C6.12534 1.50874 6.10054 1.49638 6.07574 1.4902H6.08194ZM5.99514 1.47166C5.99514 1.47166 6.05094 1.48402 6.07574 1.4902C6.05094 1.48402 6.01994 1.47784 5.99514 1.47166ZM6.84451 0.272624C6.84451 0.272624 6.82591 0.260263 6.81351 0.260263C6.82591 0.260263 6.83211 0.272624 6.84451 0.272624ZM5.33797 0.111929C5.33797 0.111929 5.32557 0.111929 5.31937 0.111929C5.32557 0.111929 5.33177 0.111929 5.33797 0.111929ZM5.07758 0.204638C5.07758 0.204638 5.05898 0.210818 5.04658 0.216999C5.05898 0.216999 5.06518 0.210818 5.07758 0.204638ZM4.96599 0.254082C4.96599 0.254082 4.94739 0.266444 4.93499 0.272624C4.94739 0.272624 4.95359 0.260263 4.96599 0.254082Z" fill="#00A980"/>
</svg>
