<svg width="80" height="80" viewBox="0 0 80 80" fill="none" xmlns="http://www.w3.org/2000/svg">
<path d="M75.2002 31.4C72.7202 28.72 69.4802 25.96 66.3202 23.16C67.9602 24.76 68.5602 27.24 68.4402 29.52C68.3202 31.84 67.5202 34.04 66.7202 36.2C68.1202 37.44 69.6402 38.88 69.6802 40.72C69.7202 42.56 68.3602 44.04 67.0402 45.32C59.7602 52.6 52.4802 59.88 45.2002 67.16C43.8802 68.48 42.2802 69.92 40.4002 69.72C39.0002 69.56 37.8802 68.52 36.9202 67.52C33.0802 63.68 29.2402 59.84 25.4002 56L12.4402 43.04C11.6402 42.2 10.9202 41.28 10.6002 40.24C10.4002 39.36 10.4802 38.48 10.8002 37.64C11.2402 36.76 11.9202 36.04 12.6402 35.32C14.8402 33.12 17.0402 30.92 19.2402 28.72L35.6002 12.36C36.3602 11.64 37.2002 10.96 38.1602 10.6C38.3602 10.56 38.5202 10.52 38.7202 10.48C39.1202 10.44 39.5202 10.44 39.9202 10.48C39.9202 10.48 39.9202 10.48 39.9602 10.48C40.3202 10.52 40.6402 10.64 41.0002 10.76C41.6802 11.12 42.3202 11.64 42.9202 12.2L53.7202 23C54.4802 23.76 55.2802 24.56 56.0402 25.32C56.8402 26.12 57.2802 27.2 57.2802 28.36C57.2802 29.52 56.8402 30.6 56.0002 31.44L43.8002 43.64L50.3202 50.16L62.5202 37.96C62.7602 37.72 63.0002 37.48 63.2002 37.2C63.2002 37.16 63.2802 37.12 63.3202 37.08C63.5202 36.84 63.7602 36.56 63.9602 36.28C63.9602 36.28 63.9602 36.24 64.0002 36.2C64.4002 35.6 64.8002 35 65.0802 34.36C65.2002 34.16 65.2802 33.92 65.3602 33.72C65.4402 33.52 65.5202 33.32 65.6002 33.12V33.04C66.1202 31.56 66.4402 30 66.4402 28.36C66.4402 24.8 65.0802 21.44 62.5602 18.88C61.5202 17.64 60.3202 16.52 59.0802 15.4L51.6402 7.96C50.7602 7 49.8402 6.08 48.8802 5.2L48.7602 5.08C47.7202 4.04 46.6002 3.24 45.3602 2.6C45.2802 2.6 45.2402 2.52 45.1602 2.52C45.0802 2.48 44.9602 2.44 44.8802 2.4C43.5202 1.68 42.0402 1.2 40.4802 1.04C39.0802 0.919999 37.6802 1.04 36.3202 1.44C36.0802 1.48 35.8802 1.56 35.6402 1.6C35.6002 1.6 35.5602 1.6 35.5202 1.6C35.0002 1.76 34.4802 1.92 33.9602 2.12C33.8802 2.12 33.8402 2.16 33.7602 2.2C33.5602 2.28 33.4002 2.36 33.2002 2.44C33.1202 2.44 33.0802 2.52 33.0002 2.56C31.7602 3.2 30.6402 4 29.6002 5.04L29.2002 5.44C27.7602 6.68 26.4402 8 25.1202 9.36C21.6002 12.92 18.1202 16.48 14.6002 20.04L5.16023 29.48C4.84023 29.8 4.52023 30.16 4.24023 30.52C4.16023 30.6 4.08023 30.72 4.00023 30.8C3.96023 30.84 3.88023 30.92 3.84023 30.96C3.28023 31.56 2.92023 32.4 2.52023 33.08C2.04023 33.92 1.68023 34.84 1.48023 35.8C1.32023 36.6 1.24023 37.44 1.24023 38.28C1.24023 38.52 1.24023 38.76 1.24023 39.04C1.24023 39.4 1.24023 39.76 1.28023 40.12C1.28023 40.16 1.28023 40.24 1.28023 40.28C1.28023 40.6 1.36023 40.96 1.40023 41.28C1.40023 41.36 1.40023 41.4 1.40023 41.48C1.44023 41.8 1.52023 42.16 1.60023 42.48C1.60023 42.52 1.60023 42.56 1.60023 42.6C1.68023 42.96 1.80023 43.28 1.92023 43.6C2.04023 43.92 2.16023 44.28 2.32023 44.6C2.32023 44.6 2.32023 44.68 2.36023 44.72C2.52023 45.04 2.68023 45.32 2.84023 45.64C2.84023 45.68 2.88023 45.72 2.92023 45.76C3.08023 46.08 3.28023 46.36 3.48023 46.64C3.48023 46.64 3.48023 46.64 3.48023 46.68C3.68023 47 3.92023 47.28 4.16023 47.56C4.44023 47.92 4.76023 48.28 5.12023 48.6L5.56023 49.04C7.04023 50.88 8.76023 52.56 10.4402 54.24C13.7202 57.48 17.0402 60.72 20.3202 63.96C23.0402 66.64 25.7202 69.28 28.4402 71.96C30.8002 74.28 33.2402 76.64 36.3202 77.84C38.7202 78.76 41.4002 78.92 43.8802 78.24C47.8802 77.16 51.0402 74.12 54.0002 71.16C59.5202 65.68 65.0402 60.2 70.5602 54.72C74.0802 51.24 77.8002 47.36 78.5202 42.48C79.1202 38.48 77.8002 34.12 75.0802 31.16L75.2002 31.4ZM38.0802 10.64C38.2402 10.6 38.3602 10.56 38.5202 10.56C38.3602 10.56 38.2002 10.6 38.0402 10.68L38.0802 10.64ZM39.2402 10.48C39.2402 10.48 38.8802 10.48 38.6802 10.52C38.8802 10.52 39.0402 10.48 39.2402 10.48C39.4402 10.48 39.6002 10.48 39.8002 10.52C39.6002 10.52 39.4402 10.48 39.2402 10.48ZM40.4802 10.64C40.4802 10.64 40.7202 10.72 40.8002 10.76C40.8002 10.76 40.8802 10.76 40.8802 10.8C40.7602 10.76 40.6002 10.68 40.4402 10.64H40.4802ZM39.9202 10.52C39.9202 10.52 40.2802 10.6 40.4402 10.64C40.2802 10.6 40.0802 10.56 39.9202 10.52ZM45.4002 2.76C45.4002 2.76 45.2802 2.68 45.2002 2.68C45.2802 2.68 45.3202 2.76 45.4002 2.76ZM35.6802 1.72C35.6802 1.72 35.6002 1.72 35.5602 1.72C35.6002 1.72 35.6402 1.72 35.6802 1.72ZM34.0002 2.32C34.0002 2.32 33.8802 2.36 33.8002 2.4C33.8802 2.4 33.9202 2.36 34.0002 2.32ZM33.2802 2.64C33.2802 2.64 33.1602 2.72 33.0802 2.76C33.1602 2.76 33.2002 2.68 33.2802 2.64Z" fill="white"/>
</svg>
