<svg width="14" height="14" viewBox="0 0 14 14" fill="none" xmlns="http://www.w3.org/2000/svg">
<mask id="mask0_111_2980" style="mask-type:luminance" maskUnits="userSpaceOnUse" x="2" y="8" width="10" height="5">
<path fill-rule="evenodd" clip-rule="evenodd" d="M2.33301 8.45605H11.5729V12.7576H2.33301V8.45605Z" fill="white"/>
</mask>
<g mask="url(#mask0_111_2980)">
<path fill-rule="evenodd" clip-rule="evenodd" d="M6.95359 9.33105C4.46801 9.33105 3.20801 9.75805 3.20801 10.601C3.20801 11.4515 4.46801 11.8826 6.95359 11.8826C9.43859 11.8826 10.698 11.4556 10.698 10.6126C10.698 9.76214 9.43859 9.33105 6.95359 9.33105ZM6.95359 12.7576C5.81084 12.7576 2.33301 12.7576 2.33301 10.601C2.33301 8.6783 4.97026 8.45605 6.95359 8.45605C8.09634 8.45605 11.573 8.45605 11.573 10.6126C11.573 12.5353 8.93634 12.7576 6.95359 12.7576Z" fill="white"/>
</g>
<mask id="mask1_111_2980" style="mask-type:luminance" maskUnits="userSpaceOnUse" x="3" y="1" width="8" height="7">
<path fill-rule="evenodd" clip-rule="evenodd" d="M3.85645 1.16699H10.0515V7.36118H3.85645V1.16699Z" fill="white"/>
</mask>
<g mask="url(#mask1_111_2980)">
<path fill-rule="evenodd" clip-rule="evenodd" d="M6.95455 1.99902C5.70563 1.99902 4.68946 3.0146 4.68946 4.26352C4.68538 5.50835 5.69396 6.52335 6.93763 6.52802L6.95455 6.94452V6.52802C8.20288 6.52802 9.21846 5.51185 9.21846 4.26352C9.21846 3.0146 8.20288 1.99902 6.95455 1.99902ZM6.95455 7.36043H6.93588C5.23138 7.35518 3.85063 5.9651 3.85646 4.26177C3.85646 2.55552 5.24596 1.16602 6.95455 1.16602C8.66255 1.16602 10.0515 2.55552 10.0515 4.26352C10.0515 5.97152 8.66255 7.36043 6.95455 7.36043Z" fill="white"/>
</g>
</svg>
