<svg width="20" height="21" viewBox="0 0 20 21" fill="none" xmlns="http://www.w3.org/2000/svg">
<mask id="mask0_316_3614" style="mask-type:luminance" maskUnits="userSpaceOnUse" x="1" y="1" width="17" height="18">
<path fill-rule="evenodd" clip-rule="evenodd" d="M1.62012 1.69727H17.396V18.2246H1.62012V1.69727Z" fill="white"/>
</mask>
<g mask="url(#mask0_316_3614)">
<path fill-rule="evenodd" clip-rule="evenodd" d="M9.50807 2.9701C5.82831 2.9701 2.83461 6.10551 2.83461 9.9605C2.83461 13.8155 5.82831 16.9517 9.50807 16.9517C13.187 16.9517 16.1807 13.8155 16.1807 9.9605C16.1807 6.10551 13.187 2.9701 9.50807 2.9701ZM9.50807 18.2246C5.15845 18.2246 1.61963 14.5172 1.61963 9.9605C1.61963 5.40375 5.15845 1.69727 9.50807 1.69727C13.8577 1.69727 17.3957 5.40375 17.3957 9.9605C17.3957 14.5172 13.8577 18.2246 9.50807 18.2246Z" fill="#2F2C2B"/>
</g>
<mask id="mask1_316_3614" style="mask-type:luminance" maskUnits="userSpaceOnUse" x="13" y="15" width="6" height="5">
<path fill-rule="evenodd" clip-rule="evenodd" d="M13.9639 15.0254H18.0333V19.2807H13.9639V15.0254Z" fill="white"/>
</mask>
<g mask="url(#mask1_316_3614)">
<path fill-rule="evenodd" clip-rule="evenodd" d="M17.4259 19.2807C17.2712 19.2807 17.1157 19.2187 16.9967 19.0948L14.1423 16.113C13.9049 15.8644 13.9041 15.4613 14.1415 15.2127C14.378 14.9624 14.7627 14.9641 15.0009 15.211L17.8552 18.1937C18.0926 18.4423 18.0934 18.8445 17.856 19.0932C17.7378 19.2187 17.5815 19.2807 17.4259 19.2807Z" fill="#2F2C2B"/>
</g>
</svg>
