<svg width="15" height="15" viewBox="0 0 15 15" fill="none" xmlns="http://www.w3.org/2000/svg">
<mask id="mask0_90_3081" style="mask-type:luminance" maskUnits="userSpaceOnUse" x="1" y="1" width="13" height="14">
<path fill-rule="evenodd" clip-rule="evenodd" d="M1.25 1.875H13.4369V14.0619H1.25V1.875Z" fill="white"/>
</mask>
<g mask="url(#mask0_90_3081)">
<path fill-rule="evenodd" clip-rule="evenodd" d="M6.75309 9.26095L9.03872 12.9691C9.13872 13.1316 9.29497 13.1297 9.35809 13.121C9.42122 13.1122 9.57309 13.0735 9.62809 12.8891L12.4862 3.23595C12.5362 3.06533 12.4443 2.94908 12.4031 2.90783C12.3631 2.86658 12.2487 2.77845 12.0831 2.82533L2.42309 5.65408C2.23997 5.70783 2.19997 5.86158 2.19122 5.9247C2.18247 5.98908 2.17997 6.14845 2.34184 6.25033L6.09247 8.59595L9.40622 5.2472C9.58809 5.06345 9.88497 5.06158 10.0693 5.24345C10.2537 5.42533 10.255 5.72283 10.0731 5.90658L6.75309 9.26095ZM9.30934 14.0622C8.87434 14.0622 8.47559 13.841 8.24059 13.461L5.81747 9.52908L1.84497 7.0447C1.41684 6.77658 1.19309 6.29908 1.26247 5.7972C1.33122 5.29533 1.67559 4.89658 2.15934 4.7547L11.8193 1.92595C12.2637 1.79595 12.74 1.91908 13.0675 2.24533C13.395 2.5747 13.5168 3.05595 13.3843 3.5022L10.5262 13.1547C10.3831 13.6403 9.98309 13.9835 9.48247 14.0503C9.42372 14.0578 9.36684 14.0622 9.30934 14.0622V14.0622Z" fill="white"/>
</g>
</svg>
