<svg width="24" height="24" viewBox="0 0 24 24" fill="none" xmlns="http://www.w3.org/2000/svg">
<mask id="mask0_1279_4621" style="mask-type:luminance" maskUnits="userSpaceOnUse" x="2" y="2" width="20" height="21">
<path fill-rule="evenodd" clip-rule="evenodd" d="M2 2.00098H21.2849V22.722H2V2.00098Z" fill="white"/>
</mask>
<g mask="url(#mask0_1279_4621)">
<path fill-rule="evenodd" clip-rule="evenodd" d="M7.20232 17.441C7.43132 17.441 7.66032 17.47 7.88432 17.53C8.56032 17.712 9.14732 18.164 9.49532 18.771C9.72132 19.152 9.84632 19.597 9.85032 20.051C9.85032 20.701 10.3723 21.222 11.0143 21.222H12.2673C12.9063 21.222 13.4283 20.704 13.4313 20.065C13.4273 19.359 13.7033 18.688 14.2083 18.183C14.7063 17.685 15.4023 17.386 16.0983 17.406C16.5543 17.417 16.9933 17.54 17.3803 17.76C17.9373 18.079 18.6483 17.889 18.9703 17.339L19.6343 16.232C19.7823 15.977 19.8253 15.657 19.7463 15.362C19.6683 15.067 19.4723 14.811 19.2083 14.66C18.5903 14.304 18.1493 13.73 17.9663 13.042C17.7853 12.367 17.8843 11.63 18.2373 11.023C18.4673 10.623 18.8043 10.286 19.2083 10.054C19.7503 9.73698 19.9403 9.02798 19.6253 8.47598C19.6123 8.45398 19.6003 8.43098 19.5903 8.40698L19.0043 7.39098C18.6853 6.83598 17.9753 6.64498 17.4183 6.96198C16.8163 7.31798 16.1003 7.41998 15.4123 7.23898C14.7253 7.06098 14.1493 6.62598 13.7903 6.01198C13.5603 5.62798 13.4353 5.18098 13.4313 4.72598C13.4403 4.38398 13.3203 4.07698 13.1023 3.85198C12.8853 3.62798 12.5803 3.50098 12.2673 3.50098H11.0143C10.7043 3.50098 10.4143 3.62198 10.1953 3.83998C9.97732 4.05898 9.85832 4.34998 9.86032 4.65998C9.83932 6.12198 8.64432 7.29898 7.19732 7.29898C6.73332 7.29398 6.28632 7.16898 5.89832 6.93698C5.35332 6.62698 4.64132 6.81798 4.32232 7.37298L3.64532 8.48598C3.33532 9.02398 3.52532 9.73498 4.07732 10.056C4.89632 10.53 5.40732 11.414 5.40732 12.362C5.40732 13.31 4.89632 14.193 4.07532 14.668C3.52632 14.986 3.33632 15.693 3.65432 16.243L4.28532 17.331C4.44132 17.612 4.69632 17.815 4.99132 17.898C5.28532 17.98 5.60932 17.945 5.87932 17.795C6.27632 17.562 6.73832 17.441 7.20232 17.441ZM12.2673 22.722H11.0143C9.54532 22.722 8.35032 21.528 8.35032 20.059C8.34832 19.878 8.29632 19.69 8.19932 19.527C8.04232 19.253 7.78832 19.057 7.49532 18.979C7.20432 18.901 6.88532 18.944 6.62332 19.096C5.99532 19.446 5.25632 19.531 4.58032 19.341C3.90532 19.15 3.32232 18.686 2.98032 18.071L2.35532 16.994C1.62432 15.726 2.05932 14.101 3.32532 13.369C3.68432 13.162 3.90732 12.776 3.90732 12.362C3.90732 11.948 3.68432 11.561 3.32532 11.354C2.05832 10.618 1.62432 8.98898 2.35432 7.72098L3.03232 6.60798C3.75332 5.35398 5.38332 4.91198 6.65432 5.64198C6.82732 5.74498 7.01532 5.79698 7.20632 5.79898C7.82932 5.79898 8.35032 5.28498 8.36032 4.65298C8.35632 3.95598 8.63132 3.28698 9.13232 2.78198C9.63532 2.27798 10.3033 2.00098 11.0143 2.00098H12.2673C12.9833 2.00098 13.6793 2.29498 14.1783 2.80598C14.6763 3.31998 14.9513 4.02498 14.9303 4.73998C14.9323 4.90098 14.9853 5.08698 15.0813 5.24998C15.2403 5.51998 15.4913 5.70998 15.7893 5.78798C16.0873 5.86198 16.3993 5.82198 16.6643 5.66498C17.9443 4.93398 19.5733 5.37198 20.3043 6.64198L20.9273 7.72098C20.9433 7.74998 20.9573 7.77798 20.9693 7.80698C21.6313 9.05798 21.1893 10.633 19.9593 11.352C19.7803 11.455 19.6353 11.599 19.5353 11.773C19.3803 12.042 19.3373 12.362 19.4153 12.656C19.4953 12.956 19.6863 13.205 19.9553 13.359C20.5623 13.708 21.0153 14.296 21.1963 14.975C21.3773 15.653 21.2783 16.389 20.9253 16.996L20.2613 18.102C19.5303 19.358 17.9013 19.793 16.6343 19.061C16.4653 18.964 16.2703 18.911 16.0763 18.906H16.0703C15.7813 18.906 15.4843 19.029 15.2683 19.244C15.0493 19.463 14.9293 19.755 14.9313 20.065C14.9243 21.534 13.7293 22.722 12.2673 22.722Z" fill="#2F2C2B"/>
</g>
<path fill-rule="evenodd" clip-rule="evenodd" d="M11.6458 10.4746C10.6058 10.4746 9.75977 11.3216 9.75977 12.3616C9.75977 13.4016 10.6058 14.2466 11.6458 14.2466C12.6858 14.2466 13.5318 13.4016 13.5318 12.3616C13.5318 11.3216 12.6858 10.4746 11.6458 10.4746ZM11.6458 15.7466C9.77877 15.7466 8.25977 14.2286 8.25977 12.3616C8.25977 10.4946 9.77877 8.97461 11.6458 8.97461C13.5128 8.97461 15.0318 10.4946 15.0318 12.3616C15.0318 14.2286 13.5128 15.7466 11.6458 15.7466Z" fill="#2F2C2B"/>
</svg>
