<svg width="38" height="37" viewBox="0 0 38 37" fill="none" xmlns="http://www.w3.org/2000/svg">
<path d="M19.6926 5.49313C19.6591 5.70043 19.6103 6.2872 19.576 7.11822M19.576 7.11822C19.5557 7.61089 19.5404 8.18941 19.5364 8.8256M19.576 7.11822C19.6045 7.19324 19.6312 7.27079 19.6557 7.35069C19.8136 7.86475 19.9918 8.42095 20.1237 8.96978M19.576 7.11822C19.3338 6.48125 18.9541 6.02569 18.5422 5.84904C18.3251 5.7559 18.0818 5.88569 17.9261 6.04295C17.3515 6.62303 17.2527 7.59946 17.1547 10.102M19.5364 8.8256C19.5319 9.55245 19.542 10.3546 19.5761 11.19C19.5836 11.373 19.6035 11.5024 19.6318 11.5898M19.5364 8.8256C19.6542 8.8305 19.7717 8.8494 19.8888 8.88427C19.967 8.90755 20.048 8.93597 20.1237 8.96978M19.5364 8.8256C18.7182 8.79158 17.8912 9.43432 17.1547 10.102M19.6318 11.5898C19.7357 11.9115 19.9521 11.6674 20.0746 11.4489C20.2664 11.1068 20.3313 10.692 20.3169 10.2399M19.6318 11.5898C19.0338 12.5442 18.2063 13.5574 17.3041 14.1661C17.0711 14.3233 16.6676 14.447 16.6534 14.2796C16.6164 13.8456 17.0349 13.3157 17.078 12.1773C17.1078 11.3877 17.1312 10.7011 17.1547 10.102M19.6318 11.5898C19.8157 11.2963 19.9778 11.0084 20.1138 10.7395C20.1978 10.5734 20.2649 10.4058 20.3169 10.2399M20.3169 10.2399C20.3041 9.83774 20.2285 9.40608 20.1237 8.96978M20.3169 10.2399C20.4174 9.91909 20.4615 9.60462 20.4623 9.31939C20.4627 9.16807 20.3093 9.05272 20.1237 8.96978M17.1547 10.102C17.0242 10.2203 16.8965 10.3394 16.7722 10.4557C15.933 11.2407 15.541 12.3487 15.271 12.5864C15.0808 12.7538 15.6149 11.8805 15.578 11.5648C15.5615 11.4241 15.1603 11.5612 14.8891 11.7575C13.7631 12.5725 13.8472 13.7676 13.6175 14.1613C13.1554 14.9538 11.851 14.6355 10.9267 14.7549C9.97172 14.8783 6.94933 15.1888 4.9266 14.9926C4.69243 14.9698 4.46621 14.9524 4.46275 14.9914C4.38369 15.8826 6.30317 16.3665 6.76818 17.3526C7.02695 17.9014 7.30472 18.6533 8.07089 19.4006C9.38002 20.6774 12.4358 20.6829 14.7573 20.1839M14.7573 20.1839C15.2503 20.0779 15.7103 19.9491 16.1133 19.8049C16.654 19.6116 16.4146 18.9248 16.1055 18.3441M14.7573 20.1839C14.8755 19.5984 15.0865 19.0049 15.4803 18.4777M14.7573 20.1839C14.5293 21.3129 14.6464 22.4124 14.4633 22.9501C14.3909 23.1629 14.1596 23.2883 13.8371 23.3643M16.1055 18.3441C16.0413 18.2233 15.974 18.1072 15.9101 18.001M16.1055 18.3441C15.9152 18.3916 15.7057 18.4373 15.4803 18.4777M16.1055 18.3441C16.6015 18.2201 16.9679 18.0827 17.1495 17.99C17.4218 17.8509 17.3849 17.5584 17.1184 17.5158C16.8518 17.4732 16.3187 17.6293 15.9299 17.9829C15.9233 17.9889 15.9167 17.9949 15.9101 18.001M15.9101 18.001C15.8489 17.8991 15.7907 17.8064 15.7413 17.7276L15.7337 17.7156C15.297 17.0197 14.6202 16.3736 13.5471 16.0189C12.9501 15.8215 12.1694 15.8983 11.701 16.0153C11.6564 16.0265 11.6137 16.0396 11.5728 16.0546M15.9101 18.001C15.7468 18.1517 15.6044 18.3114 15.4803 18.4777M11.5728 16.0546C10.9809 16.2715 10.756 16.8749 10.5402 17.3526C10.4521 17.5475 10.4517 17.7789 10.5203 17.9992M11.5728 16.0546C11.9219 16.0648 12.3013 16.1125 12.7002 16.2152C13.6187 16.4516 14.0802 16.8489 14.3872 17.3207C14.6577 17.7365 14.8375 18.1589 14.8236 18.5729M11.5728 16.0546C10.6237 16.0269 9.89915 16.2761 9.61823 16.4481C9.43052 16.563 9.3863 16.8395 9.42322 17.0771C9.46015 17.3148 9.61246 17.5489 10.0717 17.7866C10.2205 17.8636 10.3701 17.9343 10.5203 17.9992M10.5203 17.9992C10.5437 18.0745 10.5752 18.1485 10.614 18.2193C11.3864 19.6284 13.5333 19.4455 14.3791 19.3284C14.709 19.2828 14.7679 18.9773 14.8072 18.7396C14.8163 18.6842 14.8217 18.6286 14.8236 18.5729M10.5203 17.9992C12.0257 18.6495 13.5835 18.7108 14.8236 18.5729M14.8236 18.5729C15.0543 18.5472 15.274 18.5146 15.4803 18.4777M13.8371 23.3643C13.6058 23.4187 13.3275 23.4477 13.0272 23.4653M13.8371 23.3643C13.8946 23.991 13.6722 25.6312 11.7644 27.5686C11.6434 27.6915 11.5378 27.7757 11.4463 27.8108M13.8371 23.3643C13.8306 23.2939 13.8206 23.2363 13.8091 23.1925C13.7661 23.0294 13.4664 23.1488 13.2344 23.306C13.1622 23.355 13.0932 23.4083 13.0272 23.4653M13.0272 23.4653C12.6545 23.4872 12.2478 23.4914 11.8544 23.5047C11.3858 23.5205 11.1586 23.6217 11.0409 24.3643C10.9233 25.1068 10.9233 26.5115 11.0375 27.2352C11.1157 27.7308 11.2476 27.887 11.4463 27.8108M13.0272 23.4653C11.9681 24.3807 11.6872 26.2786 11.5775 27.2458C11.5559 27.4365 11.5093 27.6246 11.4463 27.8108M11.4463 27.8108C11.1857 28.5815 10.6439 29.3208 10.4236 30.0836C10.289 30.5497 10.2309 31.3428 10.5356 32.1705C10.6803 32.5638 11.4494 32.4519 11.8775 32.3739C13.3692 32.102 14.611 30.7209 15.5353 30.0895C15.6134 30.0361 15.6901 29.9785 15.7654 29.9172M15.7654 29.9172C15.9725 29.7487 16.17 29.5515 16.3637 29.3331M15.7654 29.9172C16.176 29.9189 16.6271 29.8745 17.0803 29.73C17.4588 29.6094 17.3243 29.3551 17.1126 29.1779C17.0596 29.1335 16.9895 29.0907 16.9049 29.0481M15.7654 29.9172C15.6321 29.9166 15.503 29.9112 15.3795 29.9027M16.3637 29.3331C16.4717 29.2113 16.5785 29.0829 16.685 28.9492M16.3637 29.3331C16.0168 29.5258 15.6835 29.7268 15.3795 29.9027M16.3637 29.3331C16.5413 29.2345 16.7224 29.138 16.9049 29.0481M16.685 28.9492C17.1286 28.3926 17.5681 27.7438 18.0738 27.0956C18.7411 26.2402 19.2826 25.2473 19.4876 24.0199M16.685 28.9492C16.2644 28.7762 15.6423 28.5856 14.973 28.2776M16.685 28.9492C16.7662 28.9826 16.8399 29.0153 16.9049 29.0481M19.4876 24.0199C19.4919 23.9945 19.496 23.969 19.4999 23.9434C19.5167 23.835 19.5339 23.7283 19.5515 23.6234M19.4876 24.0199C18.5255 25.2126 16.2255 27.9993 14.973 28.2776M19.4876 24.0199C19.5324 23.9644 19.5743 23.9123 19.613 23.8641C19.6958 23.7612 19.6514 23.6787 19.5515 23.6234M19.5515 23.6234C19.6923 22.785 19.8558 22.0608 19.9543 21.515M19.5515 23.6234C19.461 23.5733 19.3249 23.5454 19.1965 23.5449C17.9566 23.5395 15.7186 25.0981 14.3313 26.3083M19.9543 21.515C19.9973 21.277 20.0278 21.0729 20.0388 20.9081C20.0574 20.6283 19.8496 20.3961 19.6188 20.3536C19.4873 20.3293 19.3615 20.3269 19.2391 20.3447M19.9543 21.515C19.8 21.3128 19.6591 21.0952 19.5369 20.8608C19.4524 20.6988 19.3507 20.5259 19.2391 20.3447M19.9543 21.515C20.5157 22.2509 21.2548 22.7841 21.9173 23.1866C22.0186 23.2481 22.1193 23.2712 22.2171 23.2643M19.2391 20.3447C18.3028 20.4808 17.5688 21.8008 16.0083 23.5744C15.0818 24.6276 14.5681 25.5969 14.3313 26.3083M19.2391 20.3447C18.5323 19.197 17.425 17.7167 17.7334 16.5592L17.7527 16.4867C18.0908 15.2168 18.3898 14.0943 18.8111 13.9272C19.0049 13.8504 19.2371 13.9199 19.5046 14.0478C20.0803 14.3233 20.4373 14.7318 20.6561 15.2326C20.729 15.3993 20.8188 15.5685 20.9183 15.7472M14.3313 26.3083C14.2639 26.511 14.2189 26.6929 14.1933 26.8497C14.1341 27.2128 14.151 27.6449 14.2449 27.8981M14.3313 26.3083C14.2579 26.3724 14.1868 26.4355 14.1183 26.4974C13.9133 26.6826 13.6971 26.8521 13.6175 27.0495C13.5379 27.247 13.6141 27.4811 13.8437 27.6407C13.9763 27.7329 14.1104 27.8185 14.2449 27.8981M14.2449 27.8981C14.2522 27.9179 14.26 27.9366 14.2683 27.9541C14.4134 28.2604 14.6606 28.347 14.973 28.2776M14.2449 27.8981C14.4889 28.0426 14.734 28.1676 14.973 28.2776M16.9049 29.0481C16.9475 29.0271 16.9902 29.0065 17.033 28.9863C18.1601 28.4537 19.2265 27.6466 21.99 27.6029C22.2003 27.5996 22.3848 27.6459 22.5483 27.7294M15.3795 29.9027C14.8437 29.8659 14.4133 29.772 14.1956 29.7714C13.9878 29.7708 13.8495 30.0824 13.8852 30.203C14.0147 30.6395 14.6011 30.3531 15.3795 29.9027ZM22.5483 27.7294C23.2444 28.0849 23.5606 29.1148 23.8773 29.8587M22.5483 27.7294C22.5839 26.9921 22.4943 25.9704 22.4686 24.2958M22.5483 27.7294C22.5252 28.2054 22.45 28.5629 22.2715 28.9012C22.1481 29.1352 22.0788 29.373 22.1538 29.5716C22.2288 29.7702 22.4573 29.9263 22.7654 30.0067C23.0735 30.0871 23.4542 30.0871 23.6885 29.9701C23.7548 29.9369 23.8177 29.8997 23.8773 29.8587M23.8773 29.8587C23.9046 29.923 23.932 29.9852 23.9596 30.0446C24.4712 31.1445 25.9189 31.1087 26.8432 31.3476C27.0799 31.4087 27.3035 31.5817 27.4593 31.506C28.3373 31.0795 27.4651 29.4628 27.3462 26.2372C27.2502 23.6303 27.3866 20.4766 26.8489 19.449C26.2673 18.3376 25.6542 17.0826 25.3183 16.1517M23.8773 29.8587C24.3999 29.4991 24.6706 28.8464 24.7911 28.0721M25.3183 16.1517C25.2872 16.0655 25.2585 15.9821 25.2324 15.9018C24.9013 14.8842 24.6173 13.7747 24.0416 12.6703C23.7726 12.1543 23.3089 11.8805 23.0792 11.4867C22.85 11.0937 22.2335 11.0906 21.8492 11.1285C20.4865 11.2627 20.9186 14.0294 20.9183 15.7472M25.3183 16.1517C24.9914 16.9191 24.5386 17.9264 23.9585 19.6489C23.4334 21.208 23.1956 25.5487 23.1592 25.0633M25.3183 16.1517C25.4697 15.7962 25.5941 15.4922 25.6916 15.1924C25.7689 14.9547 25.8451 14.7206 25.9985 14.522C26.152 14.3233 26.3805 14.1672 26.6124 14.1649C27.6128 14.1547 28.6097 15.028 29.6505 15.2279C30.2264 15.3384 31.3767 15.4253 32.4936 15.4253C32.546 15.4253 32.5851 15.4283 32.6122 15.434M20.9183 15.7472C20.9183 15.9909 20.9095 16.2134 20.8857 16.4044C20.6561 18.247 21.6127 20.1455 21.9992 21.3338C22.0213 21.4017 22.0433 21.4692 22.0643 21.5185M20.9183 15.7472C21.3032 16.4382 21.8327 17.2708 22.0836 18.6484M22.0643 21.5185C22.117 21.6418 22.1639 21.6506 22.1919 21.2628C22.268 20.2104 22.2127 19.3572 22.0836 18.6484M22.0643 21.5185C22.0359 20.9794 22.0235 20.4139 22.0385 19.8735C22.0478 19.5348 22.0619 19.1016 22.0836 18.6484M22.0643 21.5185C22.0986 22.1691 22.1562 22.7812 22.2171 23.2643M22.0836 18.6484C22.1553 17.1496 22.3104 15.4305 22.6558 16.175C23.0804 17.0901 24.2712 20.6332 22.8427 22.8C22.6772 23.051 22.4562 23.2474 22.2171 23.2643M22.2171 23.2643C22.2937 23.8729 22.3756 24.2767 22.4227 24.2945C22.4402 24.3012 22.4554 24.3013 22.4686 24.2958M22.4686 24.2958C22.6427 24.2241 22.4619 23.186 22.4619 23.4278C22.4619 23.7354 22.4644 24.0242 22.4686 24.2958ZM24.7911 28.0721C25.1251 25.9272 24.3071 22.8489 24.4997 22.4795C25.316 20.9138 25.0743 25.3528 25.4608 26.2999C25.8367 27.2209 25.9235 27.9564 25.8093 28.2331C25.6452 28.6305 25.2404 28.4564 24.7911 28.0721ZM24.7911 28.0721C24.3049 27.6562 23.7667 26.9939 23.4254 26.5435C23.2337 26.2904 23.1758 25.7071 23.1592 25.0633M23.1592 25.0633C23.1567 24.9656 23.1552 24.8664 23.1542 24.7668M23.1592 25.0633C23.1559 25.0186 23.1542 24.933 23.1542 24.8006V24.7668M23.1542 24.7668C23.1515 24.4753 23.1542 24.1799 23.1542 23.9043V24.7668ZM32.6122 15.434C32.6943 15.4512 32.6657 15.4938 32.5595 15.5565M32.6122 15.434C32.5938 15.4765 32.5762 15.5173 32.5595 15.5565M32.6122 15.434C32.6135 15.4311 32.6147 15.4282 32.616 15.4253M32.5595 15.5565C32.0476 15.8583 29.7342 16.626 29.3101 17.2746C28.7491 18.1327 28.3097 18.9678 27.9624 19.8369C27.9018 19.9884 28.2266 20.0745 28.4586 20.0757C29.3887 20.0805 30.0728 18.8969 31.1505 18.0302C31.5359 17.5584 31.8452 17.0831 32.114 16.6113C32.2231 16.3888 32.2968 16.1694 32.5595 15.5565ZM19.0003 11.8781C18.9003 12.2441 18.8094 12.6084 18.7279 12.9688M18.7279 12.9688C18.5226 13.8771 18.3774 14.7603 18.2979 15.5828M18.7279 12.9688C18.7802 12.8744 18.839 12.7983 18.9057 12.7442C19.0026 12.6656 19.1178 12.6095 19.2721 12.6272C19.3232 12.633 19.3764 12.6402 19.4309 12.6492M18.7279 12.9688C18.4654 13.4433 18.3703 14.3795 18.289 15.3035C18.2819 15.3839 18.2745 15.48 18.2674 15.5875M18.2979 15.5828C18.2913 15.6515 18.2851 15.7197 18.2794 15.7875M18.2979 15.5828C18.4886 15.5548 18.683 15.5444 18.8506 15.5816M18.2979 15.5828C18.2878 15.5843 18.2776 15.5859 18.2674 15.5875M18.2794 15.7875C18.2582 16.0391 18.2434 16.2845 18.2351 16.5228M18.2794 15.7875C18.4693 15.7029 18.6584 15.6423 18.8458 15.6094M18.2794 15.7875C18.2713 15.7912 18.2632 15.7948 18.2551 15.7985M18.2351 16.5228C18.2264 16.7726 18.2249 17.0146 18.2307 17.2474C18.2407 17.644 18.2927 17.9884 18.3689 18.286M18.2351 16.5228C18.2353 16.27 18.2437 16.0195 18.2551 15.7985M18.2351 16.5228C18.2348 16.8562 18.2485 17.1935 18.2878 17.4721C18.3898 18.1954 18.6158 16.9397 18.8458 15.6094M18.3689 18.286C18.5677 19.0626 18.9307 19.5211 19.1394 19.7575M18.3689 18.286C17.9197 18.7578 17.4027 19.2401 16.901 19.6548M18.3689 18.286C18.4121 18.2406 18.4548 18.1953 18.4967 18.1502C19.0516 17.5523 19.1903 16.816 19.2866 16.3049L19.2882 16.2962C19.3325 16.0613 19.2703 15.8628 19.1555 15.7428C19.0894 15.6737 19.0071 15.6275 18.9146 15.5986M19.1394 19.7575C19.1742 19.7969 19.2047 19.8301 19.2294 19.8576C19.2782 19.9119 19.3327 19.946 19.3909 19.9668M19.1394 19.7575C18.8756 19.9085 18.5849 20.0227 18.2659 20.0769C17.8061 20.1549 17.3783 20.1316 17.0751 19.857C17.0136 19.8012 16.953 19.7372 16.901 19.6548M19.1394 19.7575C19.8513 19.35 20.3684 18.6744 20.7227 18.186M19.3909 19.9668C19.4551 19.9898 19.5238 19.9968 19.5946 19.9971C19.7296 19.9977 19.8819 19.9587 19.9984 19.841C20.3547 19.4814 20.5752 18.9028 20.712 18.2391M19.3909 19.9668C19.301 20.0517 19.2068 20.1364 19.1082 20.2206C18.0715 21.1056 16.979 21.922 15.8768 22.3654C14.8026 22.7976 13.783 23.2008 12.9171 23.0311C12.1117 22.8733 11.4138 22.6249 11.0744 22.1219C10.7294 21.6105 10.407 21.1124 10.3648 20.5841C10.3609 20.5351 10.3573 20.4863 10.354 20.4378M19.3909 19.9668C20.0147 19.378 20.4342 18.7774 20.712 18.2391M20.712 18.2391C20.7156 18.2214 20.7192 18.2037 20.7227 18.186M20.712 18.2391C20.7336 18.1973 20.7542 18.1559 20.7741 18.115M20.7227 18.186C20.8608 17.4894 20.9094 16.7042 20.9275 15.9819M20.7227 18.186C20.7403 18.1619 20.7574 18.1382 20.7741 18.115M20.9275 15.9819C20.9421 15.4033 20.9371 14.865 20.9429 14.4451C20.9505 13.8899 20.6942 13.4566 20.3682 13.1025C20.1035 12.8148 19.745 12.701 19.4309 12.6492M20.9275 15.9819C21.0809 16.1415 21.2383 16.3756 21.2117 16.6716C21.1834 16.9868 21.0697 17.5057 20.7741 18.115M20.9275 15.9819C20.9269 15.9812 20.9262 15.9805 20.9256 15.9799C20.6336 15.6773 20.0042 15.6228 19.2559 15.5832C19.1429 15.5772 19.0291 15.5826 18.9146 15.5986M19.4309 12.6492C19.3761 12.9514 19.3092 13.2635 19.2288 13.5825C19.117 14.0258 18.9833 14.8139 18.8506 15.5816M19.4309 12.6492C19.5936 11.7527 19.6507 10.9429 19.6439 10.2958M18.2674 15.5875C18.2631 15.6538 18.2589 15.7245 18.2551 15.7985M18.2674 15.5875C18.204 15.5974 18.1412 15.6092 18.0801 15.6216C17.7144 15.696 17.449 16.0846 17.2038 16.4969M18.2551 15.7985C17.9054 15.9581 17.5532 16.1985 17.2038 16.4969M18.8458 15.6094C18.8474 15.6001 18.849 15.5909 18.8506 15.5816M18.8458 15.6094C18.8688 15.6054 18.8917 15.6018 18.9146 15.5986M18.8506 15.5816C18.8724 15.5864 18.8937 15.5921 18.9146 15.5986M19.6439 10.2958C19.6416 10.0766 19.6319 9.87607 19.6165 9.69716C19.5806 9.27943 19.4147 8.92598 19.207 8.62752M19.6439 10.2958C20.2965 9.91014 20.9912 9.5025 21.3063 9.80406M19.6439 10.2958C19.5508 10.3509 19.4586 10.4054 19.3684 10.4574C19.0203 10.6583 17.438 12.1406 15.2076 14.0531C14.4637 14.691 14.3479 14.4439 14.3468 14.2849C14.3428 13.7349 14.6918 13.4164 14.6358 13.3366C13.9534 12.3633 12.8502 14.477 12.2139 14.9506C12.0695 15.058 11.9641 15.1865 11.9433 15.1882C11.9225 15.19 11.9987 15.073 11.9617 15.0322C11.6218 14.6566 10.7733 15.1486 9.29458 15.2279C8.92446 15.2477 8.65938 15.3449 8.48399 15.4436C8.3086 15.5424 8.23245 15.6594 8.61207 15.7783C9.79692 16.1492 10.8448 16.1348 10.9423 16.1933C11.9039 16.7705 8.12398 16.9601 6.98396 17.4336C6.7891 17.5146 6.73242 17.6695 6.67415 17.7884C6.61588 17.9072 6.5778 18.0242 6.65338 18.1821C6.84506 18.5824 8.33399 19.3604 10.2563 20.3843C10.2899 20.4022 10.3224 20.42 10.354 20.4378M19.207 8.62752C19.017 8.35457 18.792 8.1276 18.5994 7.93952C18.4298 7.77401 18.3103 7.70186 18.1753 7.73969C16.8619 8.1078 16.9626 11.32 16.9995 12.1524C17.0437 13.1488 18.4603 10.1873 18.9023 9.3791C19.0303 9.14487 19.1302 8.89149 19.207 8.62752ZM19.207 8.62752C19.4592 7.76047 19.4629 6.77908 19.4032 5.98612M19.4032 5.98612C19.383 5.71814 19.3556 5.47168 19.328 5.25842C19.2931 4.98791 19.1157 4.70683 19.0586 4.43074C19.0384 4.33298 18.8873 4.38876 18.8284 4.50641C18.6345 4.89409 18.9652 5.42074 19.4032 5.98612ZM19.4032 5.98612C19.7679 6.45688 20.207 6.95447 20.4796 7.42104C20.7946 7.96023 20.9988 8.52481 21.1731 9.05807C21.2349 9.24742 21.2708 9.50249 21.3063 9.80406M21.3063 9.80406C21.3798 10.4301 21.4512 11.2564 21.7483 12.111C21.9648 12.734 22.2692 13.0983 22.3269 13.2763C22.4415 13.6297 21.7742 11.417 21.4431 10.3238C21.3913 10.1528 21.4235 9.95079 21.3473 9.85028C21.3345 9.83333 21.3208 9.81794 21.3063 9.80406ZM10.354 20.4378C11.1668 20.8954 11.3104 21.3048 11.3842 21.533C11.4983 21.8854 11.5764 20.3961 11.5775 18.5262C11.5777 18.144 11.4633 18.029 11.3288 17.9882C11.1944 17.9474 11.004 17.9864 10.8679 18.065C10.3759 18.3492 10.2779 19.3157 10.354 20.4378ZM20.7741 18.115C20.9145 17.9205 21.0271 17.7622 21.1142 17.6725C21.3191 17.4616 21.7292 18.0254 22.1129 18.1833C23.2005 18.6308 23.8073 15.8995 23.9227 15.8392C24.158 15.7162 24.0253 16.4043 24.1078 16.7745M17.2038 16.4969C16.466 17.1271 15.7411 18.0158 15.0806 18.9471C14.521 19.7362 14.6156 20.35 14.7108 20.6456C14.8572 21.1002 15.8453 20.5272 16.901 19.6548M17.2038 16.4969C17.1553 16.5784 17.1076 16.6608 17.0601 16.7419C16.7643 17.2468 16.6926 18.1389 16.7497 19.1233C16.7637 19.3651 16.8227 19.5308 16.901 19.6548M24.1078 16.7745C24.1148 16.806 24.1234 16.8352 24.1339 16.8613C24.2556 17.1651 24.4749 17.3719 24.674 17.5076M24.1078 16.7745C24.2251 16.4323 24.4439 16.0418 24.8124 15.6772C24.9183 15.5723 25.059 15.4597 25.216 15.3483M24.1078 16.7745C24.0473 16.9509 24.0138 17.1145 24.0006 17.2551C23.9839 17.4334 24.0381 17.5513 24.191 17.5726C24.3592 17.596 24.5226 17.5659 24.674 17.5076M24.674 17.5076C24.7487 17.5585 24.8205 17.5994 24.8833 17.6317C24.9928 17.6879 25.1135 17.6719 25.1914 17.6134C25.5116 17.3727 25.6898 16.815 25.9237 16.1906M24.674 17.5076C24.9 17.4207 25.0993 17.2708 25.2485 17.1416C25.5465 16.8836 25.7278 16.5267 25.8392 16.125M25.9237 16.1906C26.1072 15.7007 26.3249 15.1698 26.6724 14.7188C26.8382 14.5036 26.4746 14.6221 26.0087 14.8658M25.9237 16.1906C25.895 16.1689 25.8668 16.147 25.8392 16.125M25.9237 16.1906C26.2183 16.4132 26.5678 16.6173 26.9196 16.8227C28.2396 17.5936 30.4905 16.6125 31.4027 15.9988C31.5099 15.9267 31.5324 15.7911 31.5373 15.6691M26.0087 14.8658C25.7517 15.0002 25.4635 15.1727 25.216 15.3483M26.0087 14.8658C25.9902 15.2944 25.9483 15.7312 25.8392 16.125M26.0087 14.8658C26.014 14.7436 26.0174 14.6221 26.0199 14.5025C26.0245 14.2835 25.9628 14.0892 25.886 13.9692C25.8093 13.8492 25.6951 13.8102 25.5791 13.8096C25.4631 13.809 25.3489 13.848 25.271 13.9851C25.0797 14.3221 25.1158 14.7537 25.1539 15.0877C25.1642 15.1783 25.1853 15.265 25.216 15.3483M25.216 15.3483C25.324 15.6423 25.5503 15.8942 25.8392 16.125M31.5373 15.6691C31.5386 15.6374 31.5387 15.6066 31.5388 15.578L31.5388 15.5654C31.5394 15.4265 31.5013 15.3094 31.4246 15.2296C30.9987 14.7867 29.9275 14.9524 29.253 15.148C29.0527 15.2062 28.889 15.4608 28.8099 15.6198C28.7309 15.7789 28.769 15.8959 28.8647 15.9757C29.3893 16.4129 30.3059 15.7422 30.6532 15.4259C30.8891 15.2111 31.2022 15.3852 31.5373 15.6691ZM31.5373 15.6691C31.6937 15.8015 31.8548 15.9579 32.0152 16.1098M32.0152 16.1098C32.3662 16.4423 32.7136 16.7537 32.9985 16.7467C33.6528 16.7305 33.5379 15.7812 33.6539 15.5844C33.6941 15.516 33.5414 15.4655 33.5396 15.4064C33.5344 15.2273 33.8841 15.1108 33.981 14.973C34.0165 14.9225 33.8114 14.8743 33.6758 14.9127C33.1997 15.0477 32.7443 15.482 32.0152 16.1098ZM32.0152 16.1098C31.7908 16.303 31.5404 16.5145 31.2556 16.7413C30.1032 17.6588 29.47 18.5389 28.4266 19.2957M28.4266 19.2957C28.3587 19.345 28.2891 19.3937 28.2174 19.4419C27.9608 19.6146 27.734 19.7788 27.533 19.9349M28.4266 19.2957C28.5741 19.3926 28.6896 19.5161 28.7511 19.6696C28.919 20.0887 28.7513 20.7593 28.439 21.1257L28.4229 21.1445C28.0173 21.6205 27.5221 22.2016 26.7312 22.31M28.4266 19.2957C28.1714 19.128 27.8206 19.0399 27.4893 19.0133C27.407 19.0067 27.3243 19.0042 27.2409 19.0057M27.533 19.9349C26.8717 20.4487 26.4899 20.8749 26.2476 21.2238M27.533 19.9349C27.5281 20.1777 27.4882 20.443 27.3838 20.7107C27.1395 21.3367 26.9595 21.9352 26.7312 22.31M27.533 19.9349C27.5383 19.6718 27.5024 19.4352 27.4628 19.251C27.4376 19.134 27.3421 19.049 27.2409 19.0057M26.2476 21.2238C26.0716 21.4772 25.9692 21.6899 25.8866 21.8659C25.7881 22.0759 25.8082 22.2407 26.0176 22.2821C26.0819 22.2948 26.1447 22.3047 26.2059 22.312M26.2476 21.2238C26.3186 20.0738 26.4815 19.2658 26.8564 19.0383M26.2476 21.2238C26.2268 21.5594 26.214 21.9241 26.2059 22.312M26.2059 22.312C26.3946 22.3345 26.5691 22.3322 26.7312 22.31M26.2059 22.312C26.2033 22.4395 26.2012 22.5694 26.1995 22.7017M26.7312 22.31C26.5999 22.5255 26.4527 22.667 26.268 22.6971C26.245 22.7008 26.2221 22.7023 26.1995 22.7017M27.2409 19.0057C27.1143 19.0079 26.9863 19.019 26.8564 19.0383M27.2409 19.0057C27.1924 18.9849 27.1427 18.9737 27.0988 18.9731C27.0095 18.972 26.929 18.9942 26.8564 19.0383M26.8564 19.0383C26.0551 19.1571 25.1837 19.5843 24.1264 20.11C20.9606 21.6839 20.5396 22.6758 20.4242 22.9708C20.3717 23.1051 20.385 23.2268 20.4992 23.2676C20.8228 23.3832 21.3438 23.1511 22.376 22.7793C23.9381 22.2165 25.1599 21.6274 25.7446 21.2575M25.7446 21.2575C25.9254 21.1431 26.0453 21.0496 26.0955 20.9844C26.1462 20.9184 25.9651 20.9424 25.8676 21.021C25.8085 21.0687 25.7693 21.1506 25.7446 21.2575ZM25.7446 21.2575C25.6924 21.4832 25.705 21.8202 25.7308 22.181C25.7468 22.4032 25.8451 22.5174 25.9414 22.5972C26.0187 22.6612 26.1075 22.699 26.1995 22.7017M26.1995 22.7017C26.1932 23.1878 26.1926 23.7048 26.1924 24.2425C26.1921 24.8834 26.3066 25.1163 26.403 25.2564C26.5606 25.4857 26.8455 25.5148 27.0186 25.6324C27.4801 25.9461 27.4605 26.8923 27.7686 27.6602C28.0046 28.2487 28.192 29.0182 28.2884 31.104C28.3089 31.5472 28.4597 31.6999 28.3472 31.7803C27.9684 32.0511 27.3866 31.8217 27.0988 31.7236C26.5163 31.525 26.0412 30.9172 25.5601 30.5222C24.9956 30.059 24.772 29.5763 24.5395 29.0448C24.3069 28.5132 23.8489 28.0392 23.3296 27.5863C22.6168 26.9647 21.9658 26.5423 21.4061 26.2845C20.7552 25.9847 20.2327 25.4781 19.7907 25.2399C19.5276 25.098 19.2323 25.16 19.0021 25.2582C18.508 25.4688 17.851 26.1417 17.2088 26.6827M17.2088 26.6827C17.1719 26.7138 17.135 26.7445 17.0982 26.7746C16.9798 26.8715 16.9626 27.0105 17.0001 27.1293C17.2007 27.765 18.1511 27.9186 19.1486 28.3313C21.0873 29.1332 21.6519 28.8645 22.1521 29.0419C22.2757 29.0857 22.4206 29.1466 22.5527 29.2095M17.2088 26.6827C17.5962 26.7883 17.9406 26.9041 18.2146 27.0336C18.7765 27.2991 21.7442 28.8012 22.5527 29.2095M17.2088 26.6827C16.6891 26.5409 16.0921 26.4175 15.4845 26.304C14.8107 26.1782 14.1956 26.1072 13.3498 26.0474C12.4606 25.9847 11.7725 26.0267 10.8113 26.5375C10.1934 26.8659 10.2702 27.6017 10.1352 28.6801C9.88057 30.7138 10.2679 32.0972 10.5748 32.0387C11.5295 31.8566 12.0379 30.5624 12.3835 29.7945C12.6222 29.264 13.0741 28.7108 13.2697 28.2166C13.2322 28.1172 13.1179 28.0392 13.002 27.96C12.886 27.8808 12.7718 27.8027 12.6541 27.4858M22.5527 29.2095C22.5868 29.2257 22.62 29.242 22.6517 29.2583C22.8305 29.3495 22.7685 29.3185 22.5527 29.2095ZM19.0002 3.83777C18.8322 3.83777 18.4186 3.88506 18.1989 4.33532L14.8278 11.2425C14.2942 12.334 13.2659 13.0927 12.077 13.2667L4.52976 14.381C4.03128 14.4548 3.86144 14.8332 3.80974 14.9921C3.76359 15.1453 3.68974 15.5351 4.03313 15.8718L9.49046 21.2446C10.36 22.1016 10.7551 23.337 10.5483 24.5459L9.26338 32.1322C9.18399 32.6071 9.47385 32.8833 9.60308 32.9779C9.7397 33.0838 10.1052 33.2938 10.5576 33.0517L17.3054 29.4666C18.3688 28.9047 19.6353 28.9047 20.695 29.4666L27.4409 33.0498C27.8951 33.29 28.2606 33.08 28.3991 32.9779C28.5283 32.8833 28.8182 32.6071 28.7388 32.1322L27.4502 24.5459C27.2434 23.337 27.6385 22.1016 28.508 21.2446L33.9654 15.8718C34.3106 15.5351 34.2368 15.1434 34.1888 14.9921C34.1389 14.8332 33.9691 14.4548 33.4706 14.381L25.9234 13.2667C24.7363 13.0927 23.708 12.334 23.1744 11.2406L19.7996 4.33532C19.5817 3.88506 19.1682 3.83777 19.0002 3.83777ZM10.1329 35.9991C9.37046 35.9991 8.61352 35.7532 7.96551 35.2689C6.84672 34.4289 6.2984 33.0422 6.53656 31.646L7.82151 24.0597C7.86951 23.7778 7.77535 23.4922 7.57227 23.2916L2.11494 17.9188C1.11062 16.9331 0.75061 15.4764 1.17523 14.1237C1.60355 12.7559 2.73711 11.7778 4.13467 11.5735L11.6819 10.4592C11.9736 10.4176 12.2247 10.2341 12.3502 9.97302L15.7232 3.064C16.3454 1.79079 17.6008 1 19.0002 1C20.3996 1 21.655 1.79079 22.2772 3.064L25.652 9.97113C25.7794 10.2341 26.0286 10.4176 26.3185 10.4592L33.8657 11.5735C35.2632 11.7778 36.3968 12.7559 36.8251 14.1237C37.2497 15.4764 36.8879 16.9331 35.8836 17.9188L30.4262 23.2916C30.2231 23.4922 30.1308 23.7778 30.1788 24.0578L31.4656 31.646C31.7019 33.0441 31.1536 34.4308 30.033 35.2689C28.8976 36.1221 27.4188 36.2375 26.1652 35.5678L19.4211 31.9865C19.1571 31.8465 18.8414 31.8465 18.5774 31.9865L11.8333 35.5697C11.2942 35.8573 10.7126 35.9991 10.1329 35.9991Z" stroke="#00A980" stroke-width="2" stroke-linecap="round"/>
</svg>
