<svg width="36" height="36" viewBox="0 0 36 36" fill="none" xmlns="http://www.w3.org/2000/svg">
<path fill-rule="evenodd" clip-rule="evenodd" d="M19.1249 6.75C18.9884 6.75 18.6524 6.7875 18.4739 7.1445L15.7349 12.621C15.3014 13.4865 14.4659 14.088 13.4999 14.226L7.36787 15.1095C6.96287 15.168 6.82487 15.468 6.78287 15.594C6.74537 15.7155 6.68537 16.0245 6.96437 16.2915L11.3984 20.5515C12.1049 21.231 12.4259 22.2105 12.2579 23.169L11.2139 29.184C11.1494 29.5605 11.3849 29.7795 11.4899 29.8545C11.6009 29.9385 11.8979 30.105 12.2654 29.913L17.7479 27.0705C18.6119 26.625 19.6409 26.625 20.5019 27.0705L25.9829 29.9115C26.3519 30.102 26.6489 29.9355 26.7614 29.8545C26.8664 29.7795 27.1019 29.5605 27.0374 29.184L25.9904 23.169C25.8224 22.2105 26.1434 21.231 26.8499 20.5515L31.2839 16.2915C31.5644 16.0245 31.5044 15.714 31.4654 15.594C31.4249 15.468 31.2869 15.168 30.8819 15.1095L24.7499 14.226C23.7854 14.088 22.9499 13.4865 22.5164 12.6195L19.7744 7.1445C19.5974 6.7875 19.2614 6.75 19.1249 6.75ZM11.9204 32.25C11.3009 32.25 10.6859 32.055 10.1594 31.671C9.25037 31.005 8.80487 29.9055 8.99837 28.7985L10.0424 22.7835C10.0814 22.56 10.0049 22.3335 9.83987 22.1745L5.40587 17.9145C4.58987 17.133 4.29737 15.978 4.64237 14.9055C4.99037 13.821 5.91137 13.0455 7.04687 12.8835L13.1789 12C13.4159 11.967 13.6199 11.8215 13.7219 11.6145L16.4624 6.1365C16.9679 5.127 17.9879 4.5 19.1249 4.5C20.2619 4.5 21.2819 5.127 21.7874 6.1365L24.5294 11.613C24.6329 11.8215 24.8354 11.967 25.0709 12L31.2029 12.8835C32.3384 13.0455 33.2594 13.821 33.6074 14.9055C33.9524 15.978 33.6584 17.133 32.8424 17.9145L28.4084 22.1745C28.2434 22.3335 28.1684 22.56 28.2074 22.782L29.2529 28.7985C29.4449 29.907 28.9994 31.0065 28.0889 31.671C27.1664 32.3475 25.9649 32.439 24.9464 31.908L19.4669 29.0685C19.2524 28.9575 18.9959 28.9575 18.7814 29.0685L13.3019 31.9095C12.8639 32.1375 12.3914 32.25 11.9204 32.25Z" fill="#EAEAEA"/>
<path d="M19.1249 6.75C18.9884 6.75 18.6524 6.7875 18.4739 7.1445L15.7349 12.621C15.3014 13.4865 14.4659 14.088 13.4999 14.226L7.36787 15.1095C6.96287 15.168 6.82487 15.468 6.78287 15.594C6.74537 15.7155 6.68537 16.0245 6.96437 16.2915L11.3984 20.5515C12.1049 21.231 12.4259 22.2105 12.2579 23.169L11.2139 29.184C11.1494 29.5605 11.3849 29.7795 11.4899 29.8545C11.6009 29.9385 11.8979 30.105 12.2654 29.913L17.7479 27.0705C18.6119 26.625 19.6409 26.625 20.5019 27.0705L25.9829 29.9115C26.3519 30.102 26.6489 29.9355 26.7614 29.8545C26.8664 29.7795 27.1019 29.5605 27.0374 29.184L25.9904 23.169C25.8224 22.2105 26.1434 21.231 26.8499 20.5515L31.2839 16.2915C31.5644 16.0245 31.5044 15.714 31.4654 15.594C31.4249 15.468 31.2869 15.168 30.8819 15.1095L24.7499 14.226C23.7854 14.088 22.9499 13.4865 22.5164 12.6195L19.7744 7.1445C19.5974 6.7875 19.2614 6.75 19.1249 6.75Z" fill="#EAEAEA"/>
</svg>
