<svg width="14" height="14" viewBox="0 0 14 14" fill="none" xmlns="http://www.w3.org/2000/svg">
<path d="M9.82422 3.38135C10.0457 3.38135 10.2288 3.54594 10.2577 3.75948L10.2617 3.81885V11.7626C10.2617 12.0042 10.0658 12.2001 9.82422 12.2001C9.60273 12.2001 9.41968 12.0355 9.39071 11.8219L9.38672 11.7626V3.81885C9.38672 3.57722 9.58259 3.38135 9.82422 3.38135Z" fill="#C8C8C8"/>
<path d="M11.8926 9.0644C12.0631 8.89315 12.3401 8.89251 12.5114 9.06297C12.667 9.21794 12.6817 9.46096 12.555 9.63252L12.5128 9.68169L10.1341 12.0714C9.97862 12.2276 9.73464 12.2418 9.56308 12.114L9.51394 12.0714L7.13524 9.68169C6.96478 9.51044 6.96542 9.23343 7.13667 9.06297C7.29235 8.90801 7.53544 8.89445 7.70641 9.02193L7.75539 9.0644L9.82376 11.1422L11.8926 9.0644Z" fill="#C8C8C8"/>
<path d="M4.03125 1.79834C4.25274 1.79834 4.43579 1.96293 4.46476 2.17647L4.46875 2.23584V10.1795C4.46875 10.4212 4.27287 10.617 4.03125 10.617C3.80976 10.617 3.62671 10.4525 3.59774 10.2389L3.59375 10.1795V2.23584C3.59375 1.99422 3.78963 1.79834 4.03125 1.79834Z" fill="#C8C8C8"/>
<path d="M3.72293 1.9272C3.8784 1.77101 4.12238 1.75681 4.29394 1.8846L4.34307 1.9272L6.72178 4.31692C6.89224 4.48817 6.8916 4.76518 6.72035 4.93564C6.56467 5.0906 6.32158 5.10416 6.1506 4.97668L6.10163 4.93421L4.03287 2.85573L1.96437 4.93421C1.80941 5.08989 1.56639 5.10457 1.39482 4.97788L1.34565 4.93564C1.18997 4.78067 1.17529 4.53765 1.30198 4.36609L1.34422 4.31692L3.72293 1.9272Z" fill="#C8C8C8"/>
</svg>
