<svg width="20" height="20" viewBox="0 0 20 20" fill="none" xmlns="http://www.w3.org/2000/svg">
<path fill-rule="evenodd" clip-rule="evenodd" d="M6.72083 3.25C4.6125 3.25 3.25 4.69417 3.25 6.93V13.7367C3.25 15.9725 4.6125 17.4167 6.72083 17.4167H13.9442C16.0533 17.4167 17.4167 15.9725 17.4167 13.7367V6.93C17.4167 4.69417 16.0533 3.25 13.945 3.25H6.72083ZM13.9442 18.6667H6.72083C3.89667 18.6667 2 16.685 2 13.7367V6.93C2 3.98167 3.89667 2 6.72083 2H13.945C16.7692 2 18.6667 3.98167 18.6667 6.93V13.7367C18.6667 16.685 16.7692 18.6667 13.9442 18.6667V18.6667Z" fill="#2F2C2B"/>
<path fill-rule="evenodd" clip-rule="evenodd" d="M9.34531 12.9362C9.18615 12.9362 9.02531 12.8754 8.90365 12.7529L6.92531 10.7754C6.68115 10.5312 6.68115 10.1362 6.92531 9.89207C7.16948 9.6479 7.56448 9.6479 7.80865 9.89207L9.34531 11.4271L12.8586 7.91457C13.1028 7.6704 13.4978 7.6704 13.742 7.91457C13.9861 8.15874 13.9861 8.55374 13.742 8.7979L9.78698 12.7529C9.66531 12.8754 9.50531 12.9362 9.34531 12.9362" fill="#2F2C2B"/>
</svg>
